M48
; DRILL file {KiCad (6.0.5)} date Wed Oct 26 12:34:14 2022
; FORMAT={3:3/ absolute / metric / suppress leading zeros}
; #@! TF.CreationDate,2022-10-26T12:34:14+09:00
; #@! TF.GenerationSoftware,Kicad,Pcbnew,(6.0.5)
; #@! TF.FileFunction,MixedPlating,1,2
FMAT,2
METRIC,TZ
; #@! TA.AperFunction,Plated,PTH,ViaDrill
T1C0.600
; #@! TA.AperFunction,Plated,PTH,ViaDrill
T2C0.800
; #@! TA.AperFunction,Plated,PTH,ComponentDrill
T3C1.000
; #@! TA.AperFunction,Plated,PTH,ViaDrill
T4C3.000
%
G90
G05
T1
X172720Y-76200
X173990Y-77470
X177546Y-68834
X177546Y-88392
X178548Y-67832
X179324Y-88392
X180848Y-64770
X181102Y-88392
X182844Y-65822
X185928Y-90424
X187452Y-90424
X190627Y-66167
X192019Y-89159
X192809Y-90655
X194564Y-69596
X197612Y-77470
X197612Y-85090
X198029Y-73061
T2
X182880Y-74930
X182880Y-80010
X187960Y-74930
X187960Y-80010
T3
X167640Y-66040
X167640Y-68580
X167640Y-71120
X167640Y-73660
X167640Y-76200
X167640Y-78740
X167640Y-81280
X167640Y-83820
X167640Y-86360
X167640Y-88900
X170180Y-66040
X170180Y-68580
X170180Y-71120
X170180Y-73660
X170180Y-76200
X170180Y-78740
X170180Y-81280
X170180Y-83820
X170180Y-86360
X170180Y-88900
X173990Y-59690
X173990Y-62230
X173990Y-92710
X173990Y-95250
X176530Y-59690
X176530Y-62230
X176530Y-92710
X176530Y-95250
X179070Y-59690
X179070Y-62230
X179070Y-92710
X179070Y-95250
X181610Y-59690
X181610Y-62230
X181610Y-92710
X181610Y-95250
X184150Y-59690
X184150Y-62230
X184150Y-92710
X184150Y-95250
X186690Y-59690
X186690Y-62230
X186690Y-92710
X186690Y-95250
X189230Y-59690
X189230Y-62230
X189230Y-92710
X189230Y-95250
X191770Y-59690
X191770Y-62230
X191770Y-92710
X191770Y-95250
X194310Y-59690
X194310Y-62230
X194310Y-92710
X194310Y-95250
X196850Y-59690
X196850Y-62230
X196850Y-92710
X196850Y-95250
X200660Y-66040
X200660Y-68580
X200660Y-71120
X200660Y-73660
X200660Y-76200
X200660Y-78740
X200660Y-81280
X200660Y-83820
X200660Y-86360
X200660Y-88900
X203200Y-66040
X203200Y-68580
X203200Y-71120
X203200Y-73660
X203200Y-76200
X203200Y-78740
X203200Y-81280
X203200Y-83820
X203200Y-86360
X203200Y-88900
T4
X167640Y-95250
X185420Y-77470
X203200Y-59690
X203200Y-95250
T0
M30
