  0
SECTION
  2
HEADER
  9
$ANGBASE
  50
0.0
  9
$ANGDIR
  70
1
  9
$MEASUREMENT
  70
0
  0
ENDSEC
  0
SECTION
  2
TABLES
  0
TABLE
  2
LTYPE
  70
4
  0
LTYPE
  5
40F
  2
CONTINUOUS
  70
0
  3
Solid line
  72
65
  73
0
  40
0.0
  0
LTYPE
  5
410
  2
DASHDOT
 70
0
  3
Dash Dot ____ _ ____ _
 72
65
 73
4
 40
2.0
 49
1.25
 49
-0.25
 49
0.25
 49
-0.25
  0
LTYPE
  5
411
  2
DASHED
 70
0
  3
Dashed __ __ __ __ __
 72
65
 73
2
 40
0.75
 49
0.5
 49
-0.25
  0
LTYPE
  5
43B
  2
DOTTED
 70
0
  3
Dotted .  .  .  .
 72
65
 73
2
 40
0.2
 49
0.0
 49
-0.2
  0
ENDTAB
  0
TABLE
  2
STYLE
  70
4
  0
STYLE
  2
KICAD
  70
0
  40
0
  41
1
  42
1
  50
0
  71
0
  3
isocp.shx
  0
STYLE
  2
KICADB
  70
0
  40
0
  41
1
  42
1
  50
0
  71
0
  3
isocp.shx
  0
STYLE
  2
KICADI
  70
0
  40
0
  41
1
  42
1
  50
15
  71
0
  3
isocp.shx
  0
STYLE
  2
KICADBI
  70
0
  40
0
  41
1
  42
1
  50
15
  71
0
  3
isocp.shx
  0
ENDTAB
  0
TABLE
  2
LAYER
  70
1
  0
LAYER
  2
BLACK
  70
0
  62
7
  6
CONTINUOUS
  0
ENDTAB
  0
ENDSEC
  0
SECTION
  2
ENTITIES
0
LINE
8
BLACK
6
CONTINUOUS
10
7.27047
20
-3.38368
11
7.25276
21
-3.38368
0
LINE
8
BLACK
6
CONTINUOUS
10
7.25276
20
-3.38368
11
7.25276
21
-3.32561
0
LINE
8
BLACK
6
CONTINUOUS
10
7.25276
20
-3.32561
11
7.27047
21
-3.32561
0
LINE
8
BLACK
6
CONTINUOUS
10
7.27047
20
-3.32561
11
7.27047
21
-3.38368
0
LINE
8
BLACK
6
CONTINUOUS
10
7.44961
20
-3.38368
11
7.43189
21
-3.38368
0
LINE
8
BLACK
6
CONTINUOUS
10
7.43189
20
-3.38368
11
7.43189
21
-3.32561
0
LINE
8
BLACK
6
CONTINUOUS
10
7.43189
20
-3.32561
11
7.44961
21
-3.32561
0
LINE
8
BLACK
6
CONTINUOUS
10
7.44961
20
-3.32561
11
7.44961
21
-3.38368
0
LINE
8
BLACK
6
CONTINUOUS
10
7.42402
20
-3.38368
11
7.4063
21
-3.38368
0
LINE
8
BLACK
6
CONTINUOUS
10
7.4063
20
-3.38368
11
7.4063
21
-3.32561
0
LINE
8
BLACK
6
CONTINUOUS
10
7.4063
20
-3.32561
11
7.42402
21
-3.32561
0
LINE
8
BLACK
6
CONTINUOUS
10
7.42402
20
-3.32561
11
7.42402
21
-3.38368
0
LINE
8
BLACK
6
CONTINUOUS
10
7.39843
20
-3.38368
11
7.38071
21
-3.38368
0
LINE
8
BLACK
6
CONTINUOUS
10
7.38071
20
-3.38368
11
7.38071
21
-3.32561
0
LINE
8
BLACK
6
CONTINUOUS
10
7.38071
20
-3.32561
11
7.39843
21
-3.32561
0
LINE
8
BLACK
6
CONTINUOUS
10
7.39843
20
-3.32561
11
7.39843
21
-3.38368
0
LINE
8
BLACK
6
CONTINUOUS
10
7.37283
20
-3.38368
11
7.35512
21
-3.38368
0
LINE
8
BLACK
6
CONTINUOUS
10
7.35512
20
-3.38368
11
7.35512
21
-3.32561
0
LINE
8
BLACK
6
CONTINUOUS
10
7.35512
20
-3.32561
11
7.37283
21
-3.32561
0
LINE
8
BLACK
6
CONTINUOUS
10
7.37283
20
-3.32561
11
7.37283
21
-3.38368
0
LINE
8
BLACK
6
CONTINUOUS
10
7.34724
20
-3.38368
11
7.32953
21
-3.38368
0
LINE
8
BLACK
6
CONTINUOUS
10
7.32953
20
-3.38368
11
7.32953
21
-3.32561
0
LINE
8
BLACK
6
CONTINUOUS
10
7.32953
20
-3.32561
11
7.34724
21
-3.32561
0
LINE
8
BLACK
6
CONTINUOUS
10
7.34724
20
-3.32561
11
7.34724
21
-3.38368
0
LINE
8
BLACK
6
CONTINUOUS
10
7.29606
20
-3.38368
11
7.27835
21
-3.38368
0
LINE
8
BLACK
6
CONTINUOUS
10
7.27835
20
-3.38368
11
7.27835
21
-3.32561
0
LINE
8
BLACK
6
CONTINUOUS
10
7.27835
20
-3.32561
11
7.29606
21
-3.32561
0
LINE
8
BLACK
6
CONTINUOUS
10
7.29606
20
-3.32561
11
7.29606
21
-3.38368
0
LINE
8
BLACK
6
CONTINUOUS
10
7.24488
20
-3.38368
11
7.22717
21
-3.38368
0
LINE
8
BLACK
6
CONTINUOUS
10
7.22717
20
-3.38368
11
7.22717
21
-3.32561
0
LINE
8
BLACK
6
CONTINUOUS
10
7.22717
20
-3.32561
11
7.24488
21
-3.32561
0
LINE
8
BLACK
6
CONTINUOUS
10
7.24488
20
-3.32561
11
7.24488
21
-3.38368
0
LINE
8
BLACK
6
CONTINUOUS
10
7.06575
20
-3.38368
11
7.04803
21
-3.38368
0
LINE
8
BLACK
6
CONTINUOUS
10
7.04803
20
-3.38368
11
7.04803
21
-3.32561
0
LINE
8
BLACK
6
CONTINUOUS
10
7.04803
20
-3.32561
11
7.06575
21
-3.32561
0
LINE
8
BLACK
6
CONTINUOUS
10
7.06575
20
-3.32561
11
7.06575
21
-3.38368
0
LINE
8
BLACK
6
CONTINUOUS
10
7.09134
20
-3.38368
11
7.07362
21
-3.38368
0
LINE
8
BLACK
6
CONTINUOUS
10
7.07362
20
-3.38368
11
7.07362
21
-3.32561
0
LINE
8
BLACK
6
CONTINUOUS
10
7.07362
20
-3.32561
11
7.09134
21
-3.32561
0
LINE
8
BLACK
6
CONTINUOUS
10
7.09134
20
-3.32561
11
7.09134
21
-3.38368
0
LINE
8
BLACK
6
CONTINUOUS
10
7.11693
20
-3.38368
11
7.09921
21
-3.38368
0
LINE
8
BLACK
6
CONTINUOUS
10
7.09921
20
-3.38368
11
7.09921
21
-3.32561
0
LINE
8
BLACK
6
CONTINUOUS
10
7.09921
20
-3.32561
11
7.11693
21
-3.32561
0
LINE
8
BLACK
6
CONTINUOUS
10
7.11693
20
-3.32561
11
7.11693
21
-3.38368
0
LINE
8
BLACK
6
CONTINUOUS
10
7.14252
20
-3.38368
11
7.1248
21
-3.38368
0
LINE
8
BLACK
6
CONTINUOUS
10
7.1248
20
-3.38368
11
7.1248
21
-3.32561
0
LINE
8
BLACK
6
CONTINUOUS
10
7.1248
20
-3.32561
11
7.14252
21
-3.32561
0
LINE
8
BLACK
6
CONTINUOUS
10
7.14252
20
-3.32561
11
7.14252
21
-3.38368
0
LINE
8
BLACK
6
CONTINUOUS
10
7.16811
20
-3.38368
11
7.15039
21
-3.38368
0
LINE
8
BLACK
6
CONTINUOUS
10
7.15039
20
-3.38368
11
7.15039
21
-3.32561
0
LINE
8
BLACK
6
CONTINUOUS
10
7.15039
20
-3.32561
11
7.16811
21
-3.32561
0
LINE
8
BLACK
6
CONTINUOUS
10
7.16811
20
-3.32561
11
7.16811
21
-3.38368
0
LINE
8
BLACK
6
CONTINUOUS
10
7.1937
20
-3.38368
11
7.17598
21
-3.38368
0
LINE
8
BLACK
6
CONTINUOUS
10
7.17598
20
-3.38368
11
7.17598
21
-3.32561
0
LINE
8
BLACK
6
CONTINUOUS
10
7.17598
20
-3.32561
11
7.1937
21
-3.32561
0
LINE
8
BLACK
6
CONTINUOUS
10
7.1937
20
-3.32561
11
7.1937
21
-3.38368
0
LINE
8
BLACK
6
CONTINUOUS
10
7.21929
20
-3.38368
11
7.20157
21
-3.38368
0
LINE
8
BLACK
6
CONTINUOUS
10
7.20157
20
-3.38368
11
7.20157
21
-3.32561
0
LINE
8
BLACK
6
CONTINUOUS
10
7.20157
20
-3.32561
11
7.21929
21
-3.32561
0
LINE
8
BLACK
6
CONTINUOUS
10
7.21929
20
-3.32561
11
7.21929
21
-3.38368
0
LINE
8
BLACK
6
CONTINUOUS
10
7.4752
20
-3.38368
11
7.45748
21
-3.38368
0
LINE
8
BLACK
6
CONTINUOUS
10
7.45748
20
-3.38368
11
7.45748
21
-3.32561
0
LINE
8
BLACK
6
CONTINUOUS
10
7.45748
20
-3.32561
11
7.4752
21
-3.32561
0
LINE
8
BLACK
6
CONTINUOUS
10
7.4752
20
-3.32561
11
7.4752
21
-3.38368
0
LINE
8
BLACK
6
CONTINUOUS
10
7.50079
20
-3.38368
11
7.48307
21
-3.38368
0
LINE
8
BLACK
6
CONTINUOUS
10
7.48307
20
-3.38368
11
7.48307
21
-3.32561
0
LINE
8
BLACK
6
CONTINUOUS
10
7.48307
20
-3.32561
11
7.50079
21
-3.32561
0
LINE
8
BLACK
6
CONTINUOUS
10
7.50079
20
-3.32561
11
7.50079
21
-3.38368
0
LINE
8
BLACK
6
CONTINUOUS
10
7.52638
20
-3.38368
11
7.50866
21
-3.38368
0
LINE
8
BLACK
6
CONTINUOUS
10
7.50866
20
-3.38368
11
7.50866
21
-3.32561
0
LINE
8
BLACK
6
CONTINUOUS
10
7.50866
20
-3.32561
11
7.52638
21
-3.32561
0
LINE
8
BLACK
6
CONTINUOUS
10
7.52638
20
-3.32561
11
7.52638
21
-3.38368
0
LINE
8
BLACK
6
CONTINUOUS
10
7.55197
20
-3.38368
11
7.53425
21
-3.38368
0
LINE
8
BLACK
6
CONTINUOUS
10
7.53425
20
-3.38368
11
7.53425
21
-3.32561
0
LINE
8
BLACK
6
CONTINUOUS
10
7.53425
20
-3.32561
11
7.55197
21
-3.32561
0
LINE
8
BLACK
6
CONTINUOUS
10
7.55197
20
-3.32561
11
7.55197
21
-3.38368
0
LINE
8
BLACK
6
CONTINUOUS
10
7.32165
20
-3.38368
11
7.30394
21
-3.38368
0
LINE
8
BLACK
6
CONTINUOUS
10
7.30394
20
-3.38368
11
7.30394
21
-3.32561
0
LINE
8
BLACK
6
CONTINUOUS
10
7.30394
20
-3.32561
11
7.32165
21
-3.32561
0
LINE
8
BLACK
6
CONTINUOUS
10
7.32165
20
-3.32561
11
7.32165
21
-3.38368
0
LINE
8
BLACK
6
CONTINUOUS
10
7.02439
20
-3.30197
11
6.96632
21
-3.30197
0
LINE
8
BLACK
6
CONTINUOUS
10
6.96632
20
-3.30197
11
6.96632
21
-3.28425
0
LINE
8
BLACK
6
CONTINUOUS
10
6.96632
20
-3.28425
11
7.02439
21
-3.28425
0
LINE
8
BLACK
6
CONTINUOUS
10
7.02439
20
-3.28425
11
7.02439
21
-3.30197
0
LINE
8
BLACK
6
CONTINUOUS
10
7.63368
20
-3.30197
11
7.57561
21
-3.30197
0
LINE
8
BLACK
6
CONTINUOUS
10
7.57561
20
-3.30197
11
7.57561
21
-3.28425
0
LINE
8
BLACK
6
CONTINUOUS
10
7.57561
20
-3.28425
11
7.63368
21
-3.28425
0
LINE
8
BLACK
6
CONTINUOUS
10
7.63368
20
-3.28425
11
7.63368
21
-3.30197
0
LINE
8
BLACK
6
CONTINUOUS
10
7.02439
20
-3.27638
11
6.96632
21
-3.27638
0
LINE
8
BLACK
6
CONTINUOUS
10
6.96632
20
-3.27638
11
6.96632
21
-3.25866
0
LINE
8
BLACK
6
CONTINUOUS
10
6.96632
20
-3.25866
11
7.02439
21
-3.25866
0
LINE
8
BLACK
6
CONTINUOUS
10
7.02439
20
-3.25866
11
7.02439
21
-3.27638
0
LINE
8
BLACK
6
CONTINUOUS
10
7.63368
20
-3.27638
11
7.57561
21
-3.27638
0
LINE
8
BLACK
6
CONTINUOUS
10
7.57561
20
-3.27638
11
7.57561
21
-3.25866
0
LINE
8
BLACK
6
CONTINUOUS
10
7.57561
20
-3.25866
11
7.63368
21
-3.25866
0
LINE
8
BLACK
6
CONTINUOUS
10
7.63368
20
-3.25866
11
7.63368
21
-3.27638
0
LINE
8
BLACK
6
CONTINUOUS
10
7.02439
20
-3.25079
11
6.96632
21
-3.25079
0
LINE
8
BLACK
6
CONTINUOUS
10
6.96632
20
-3.25079
11
6.96632
21
-3.23307
0
LINE
8
BLACK
6
CONTINUOUS
10
6.96632
20
-3.23307
11
7.02439
21
-3.23307
0
LINE
8
BLACK
6
CONTINUOUS
10
7.02439
20
-3.23307
11
7.02439
21
-3.25079
0
LINE
8
BLACK
6
CONTINUOUS
10
7.63368
20
-3.25079
11
7.57561
21
-3.25079
0
LINE
8
BLACK
6
CONTINUOUS
10
7.57561
20
-3.25079
11
7.57561
21
-3.23307
0
LINE
8
BLACK
6
CONTINUOUS
10
7.57561
20
-3.23307
11
7.63368
21
-3.23307
0
LINE
8
BLACK
6
CONTINUOUS
10
7.63368
20
-3.23307
11
7.63368
21
-3.25079
0
LINE
8
BLACK
6
CONTINUOUS
10
7.48701
20
-3.23701
11
7.11299
21
-3.23701
0
LINE
8
BLACK
6
CONTINUOUS
10
7.11299
20
-3.23701
11
7.11299
21
-2.86299
0
LINE
8
BLACK
6
CONTINUOUS
10
7.11299
20
-2.86299
11
7.48701
21
-2.86299
0
LINE
8
BLACK
6
CONTINUOUS
10
7.48701
20
-2.86299
11
7.48701
21
-3.23701
0
LINE
8
BLACK
6
CONTINUOUS
10
7.02439
20
-3.2252
11
6.96632
21
-3.2252
0
LINE
8
BLACK
6
CONTINUOUS
10
6.96632
20
-3.2252
11
6.96632
21
-3.20748
0
LINE
8
BLACK
6
CONTINUOUS
10
6.96632
20
-3.20748
11
7.02439
21
-3.20748
0
LINE
8
BLACK
6
CONTINUOUS
10
7.02439
20
-3.20748
11
7.02439
21
-3.2252
0
LINE
8
BLACK
6
CONTINUOUS
10
7.63368
20
-3.2252
11
7.57561
21
-3.2252
0
LINE
8
BLACK
6
CONTINUOUS
10
7.57561
20
-3.2252
11
7.57561
21
-3.20748
0
LINE
8
BLACK
6
CONTINUOUS
10
7.57561
20
-3.20748
11
7.63368
21
-3.20748
0
LINE
8
BLACK
6
CONTINUOUS
10
7.63368
20
-3.20748
11
7.63368
21
-3.2252
0
LINE
8
BLACK
6
CONTINUOUS
10
7.02439
20
-3.19961
11
6.96632
21
-3.19961
0
LINE
8
BLACK
6
CONTINUOUS
10
6.96632
20
-3.19961
11
6.96632
21
-3.18189
0
LINE
8
BLACK
6
CONTINUOUS
10
6.96632
20
-3.18189
11
7.02439
21
-3.18189
0
LINE
8
BLACK
6
CONTINUOUS
10
7.02439
20
-3.18189
11
7.02439
21
-3.19961
0
LINE
8
BLACK
6
CONTINUOUS
10
7.63368
20
-3.19961
11
7.57561
21
-3.19961
0
LINE
8
BLACK
6
CONTINUOUS
10
7.57561
20
-3.19961
11
7.57561
21
-3.18189
0
LINE
8
BLACK
6
CONTINUOUS
10
7.57561
20
-3.18189
11
7.63368
21
-3.18189
0
LINE
8
BLACK
6
CONTINUOUS
10
7.63368
20
-3.18189
11
7.63368
21
-3.19961
0
LINE
8
BLACK
6
CONTINUOUS
10
7.02439
20
-3.17402
11
6.96632
21
-3.17402
0
LINE
8
BLACK
6
CONTINUOUS
10
6.96632
20
-3.17402
11
6.96632
21
-3.1563
0
LINE
8
BLACK
6
CONTINUOUS
10
6.96632
20
-3.1563
11
7.02439
21
-3.1563
0
LINE
8
BLACK
6
CONTINUOUS
10
7.02439
20
-3.1563
11
7.02439
21
-3.17402
0
LINE
8
BLACK
6
CONTINUOUS
10
7.63368
20
-3.17402
11
7.57561
21
-3.17402
0
LINE
8
BLACK
6
CONTINUOUS
10
7.57561
20
-3.17402
11
7.57561
21
-3.1563
0
LINE
8
BLACK
6
CONTINUOUS
10
7.57561
20
-3.1563
11
7.63368
21
-3.1563
0
LINE
8
BLACK
6
CONTINUOUS
10
7.63368
20
-3.1563
11
7.63368
21
-3.17402
0
LINE
8
BLACK
6
CONTINUOUS
10
7.02439
20
-3.14843
11
6.96632
21
-3.14843
0
LINE
8
BLACK
6
CONTINUOUS
10
6.96632
20
-3.14843
11
6.96632
21
-3.13071
0
LINE
8
BLACK
6
CONTINUOUS
10
6.96632
20
-3.13071
11
7.02439
21
-3.13071
0
LINE
8
BLACK
6
CONTINUOUS
10
7.02439
20
-3.13071
11
7.02439
21
-3.14843
0
LINE
8
BLACK
6
CONTINUOUS
10
7.63368
20
-3.14843
11
7.57561
21
-3.14843
0
LINE
8
BLACK
6
CONTINUOUS
10
7.57561
20
-3.14843
11
7.57561
21
-3.13071
0
LINE
8
BLACK
6
CONTINUOUS
10
7.57561
20
-3.13071
11
7.63368
21
-3.13071
0
LINE
8
BLACK
6
CONTINUOUS
10
7.63368
20
-3.13071
11
7.63368
21
-3.14843
0
LINE
8
BLACK
6
CONTINUOUS
10
7.02439
20
-3.12283
11
6.96632
21
-3.12283
0
LINE
8
BLACK
6
CONTINUOUS
10
6.96632
20
-3.12283
11
6.96632
21
-3.10512
0
LINE
8
BLACK
6
CONTINUOUS
10
6.96632
20
-3.10512
11
7.02439
21
-3.10512
0
LINE
8
BLACK
6
CONTINUOUS
10
7.02439
20
-3.10512
11
7.02439
21
-3.12283
0
LINE
8
BLACK
6
CONTINUOUS
10
7.63368
20
-3.12283
11
7.57561
21
-3.12283
0
LINE
8
BLACK
6
CONTINUOUS
10
7.57561
20
-3.12283
11
7.57561
21
-3.10512
0
LINE
8
BLACK
6
CONTINUOUS
10
7.57561
20
-3.10512
11
7.63368
21
-3.10512
0
LINE
8
BLACK
6
CONTINUOUS
10
7.63368
20
-3.10512
11
7.63368
21
-3.12283
0
LINE
8
BLACK
6
CONTINUOUS
10
7.02439
20
-3.09724
11
6.96632
21
-3.09724
0
LINE
8
BLACK
6
CONTINUOUS
10
6.96632
20
-3.09724
11
6.96632
21
-3.07953
0
LINE
8
BLACK
6
CONTINUOUS
10
6.96632
20
-3.07953
11
7.02439
21
-3.07953
0
LINE
8
BLACK
6
CONTINUOUS
10
7.02439
20
-3.07953
11
7.02439
21
-3.09724
0
LINE
8
BLACK
6
CONTINUOUS
10
7.63368
20
-3.09724
11
7.57561
21
-3.09724
0
LINE
8
BLACK
6
CONTINUOUS
10
7.57561
20
-3.09724
11
7.57561
21
-3.07953
0
LINE
8
BLACK
6
CONTINUOUS
10
7.57561
20
-3.07953
11
7.63368
21
-3.07953
0
LINE
8
BLACK
6
CONTINUOUS
10
7.63368
20
-3.07953
11
7.63368
21
-3.09724
0
LINE
8
BLACK
6
CONTINUOUS
10
7.63368
20
-3.07165
11
7.57561
21
-3.07165
0
LINE
8
BLACK
6
CONTINUOUS
10
7.57561
20
-3.07165
11
7.57561
21
-3.05394
0
LINE
8
BLACK
6
CONTINUOUS
10
7.57561
20
-3.05394
11
7.63368
21
-3.05394
0
LINE
8
BLACK
6
CONTINUOUS
10
7.63368
20
-3.05394
11
7.63368
21
-3.07165
0
LINE
8
BLACK
6
CONTINUOUS
10
7.02439
20
-3.07165
11
6.96632
21
-3.07165
0
LINE
8
BLACK
6
CONTINUOUS
10
6.96632
20
-3.07165
11
6.96632
21
-3.05394
0
LINE
8
BLACK
6
CONTINUOUS
10
6.96632
20
-3.05394
11
7.02439
21
-3.05394
0
LINE
8
BLACK
6
CONTINUOUS
10
7.02439
20
-3.05394
11
7.02439
21
-3.07165
0
LINE
8
BLACK
6
CONTINUOUS
10
7.63368
20
-3.04606
11
7.57561
21
-3.04606
0
LINE
8
BLACK
6
CONTINUOUS
10
7.57561
20
-3.04606
11
7.57561
21
-3.02835
0
LINE
8
BLACK
6
CONTINUOUS
10
7.57561
20
-3.02835
11
7.63368
21
-3.02835
0
LINE
8
BLACK
6
CONTINUOUS
10
7.63368
20
-3.02835
11
7.63368
21
-3.04606
0
LINE
8
BLACK
6
CONTINUOUS
10
7.02439
20
-3.04606
11
6.96632
21
-3.04606
0
LINE
8
BLACK
6
CONTINUOUS
10
6.96632
20
-3.04606
11
6.96632
21
-3.02835
0
LINE
8
BLACK
6
CONTINUOUS
10
6.96632
20
-3.02835
11
7.02439
21
-3.02835
0
LINE
8
BLACK
6
CONTINUOUS
10
7.02439
20
-3.02835
11
7.02439
21
-3.04606
0
LINE
8
BLACK
6
CONTINUOUS
10
7.63368
20
-3.02047
11
7.57561
21
-3.02047
0
LINE
8
BLACK
6
CONTINUOUS
10
7.57561
20
-3.02047
11
7.57561
21
-3.00276
0
LINE
8
BLACK
6
CONTINUOUS
10
7.57561
20
-3.00276
11
7.63368
21
-3.00276
0
LINE
8
BLACK
6
CONTINUOUS
10
7.63368
20
-3.00276
11
7.63368
21
-3.02047
0
LINE
8
BLACK
6
CONTINUOUS
10
7.02439
20
-3.02047
11
6.96632
21
-3.02047
0
LINE
8
BLACK
6
CONTINUOUS
10
6.96632
20
-3.02047
11
6.96632
21
-3.00276
0
LINE
8
BLACK
6
CONTINUOUS
10
6.96632
20
-3.00276
11
7.02439
21
-3.00276
0
LINE
8
BLACK
6
CONTINUOUS
10
7.02439
20
-3.00276
11
7.02439
21
-3.02047
0
LINE
8
BLACK
6
CONTINUOUS
10
7.63368
20
-2.99488
11
7.57561
21
-2.99488
0
LINE
8
BLACK
6
CONTINUOUS
10
7.57561
20
-2.99488
11
7.57561
21
-2.97717
0
LINE
8
BLACK
6
CONTINUOUS
10
7.57561
20
-2.97717
11
7.63368
21
-2.97717
0
LINE
8
BLACK
6
CONTINUOUS
10
7.63368
20
-2.97717
11
7.63368
21
-2.99488
0
LINE
8
BLACK
6
CONTINUOUS
10
7.02439
20
-2.99488
11
6.96632
21
-2.99488
0
LINE
8
BLACK
6
CONTINUOUS
10
6.96632
20
-2.99488
11
6.96632
21
-2.97717
0
LINE
8
BLACK
6
CONTINUOUS
10
6.96632
20
-2.97717
11
7.02439
21
-2.97717
0
LINE
8
BLACK
6
CONTINUOUS
10
7.02439
20
-2.97717
11
7.02439
21
-2.99488
0
LINE
8
BLACK
6
CONTINUOUS
10
7.63368
20
-2.96929
11
7.57561
21
-2.96929
0
LINE
8
BLACK
6
CONTINUOUS
10
7.57561
20
-2.96929
11
7.57561
21
-2.95157
0
LINE
8
BLACK
6
CONTINUOUS
10
7.57561
20
-2.95157
11
7.63368
21
-2.95157
0
LINE
8
BLACK
6
CONTINUOUS
10
7.63368
20
-2.95157
11
7.63368
21
-2.96929
0
LINE
8
BLACK
6
CONTINUOUS
10
7.02439
20
-2.96929
11
6.96632
21
-2.96929
0
LINE
8
BLACK
6
CONTINUOUS
10
6.96632
20
-2.96929
11
6.96632
21
-2.95157
0
LINE
8
BLACK
6
CONTINUOUS
10
6.96632
20
-2.95157
11
7.02439
21
-2.95157
0
LINE
8
BLACK
6
CONTINUOUS
10
7.02439
20
-2.95157
11
7.02439
21
-2.96929
0
LINE
8
BLACK
6
CONTINUOUS
10
7.63368
20
-2.9437
11
7.57561
21
-2.9437
0
LINE
8
BLACK
6
CONTINUOUS
10
7.57561
20
-2.9437
11
7.57561
21
-2.92598
0
LINE
8
BLACK
6
CONTINUOUS
10
7.57561
20
-2.92598
11
7.63368
21
-2.92598
0
LINE
8
BLACK
6
CONTINUOUS
10
7.63368
20
-2.92598
11
7.63368
21
-2.9437
0
LINE
8
BLACK
6
CONTINUOUS
10
7.02439
20
-2.9437
11
6.96632
21
-2.9437
0
LINE
8
BLACK
6
CONTINUOUS
10
6.96632
20
-2.9437
11
6.96632
21
-2.92598
0
LINE
8
BLACK
6
CONTINUOUS
10
6.96632
20
-2.92598
11
7.02439
21
-2.92598
0
LINE
8
BLACK
6
CONTINUOUS
10
7.02439
20
-2.92598
11
7.02439
21
-2.9437
0
LINE
8
BLACK
6
CONTINUOUS
10
7.63368
20
-2.91811
11
7.57561
21
-2.91811
0
LINE
8
BLACK
6
CONTINUOUS
10
7.57561
20
-2.91811
11
7.57561
21
-2.90039
0
LINE
8
BLACK
6
CONTINUOUS
10
7.57561
20
-2.90039
11
7.63368
21
-2.90039
0
LINE
8
BLACK
6
CONTINUOUS
10
7.63368
20
-2.90039
11
7.63368
21
-2.91811
0
LINE
8
BLACK
6
CONTINUOUS
10
7.02439
20
-2.91811
11
6.96632
21
-2.91811
0
LINE
8
BLACK
6
CONTINUOUS
10
6.96632
20
-2.91811
11
6.96632
21
-2.90039
0
LINE
8
BLACK
6
CONTINUOUS
10
6.96632
20
-2.90039
11
7.02439
21
-2.90039
0
LINE
8
BLACK
6
CONTINUOUS
10
7.02439
20
-2.90039
11
7.02439
21
-2.91811
0
LINE
8
BLACK
6
CONTINUOUS
10
7.63368
20
-2.89252
11
7.57561
21
-2.89252
0
LINE
8
BLACK
6
CONTINUOUS
10
7.57561
20
-2.89252
11
7.57561
21
-2.8748
0
LINE
8
BLACK
6
CONTINUOUS
10
7.57561
20
-2.8748
11
7.63368
21
-2.8748
0
LINE
8
BLACK
6
CONTINUOUS
10
7.63368
20
-2.8748
11
7.63368
21
-2.89252
0
LINE
8
BLACK
6
CONTINUOUS
10
7.02439
20
-2.89252
11
6.96632
21
-2.89252
0
LINE
8
BLACK
6
CONTINUOUS
10
6.96632
20
-2.89252
11
6.96632
21
-2.8748
0
LINE
8
BLACK
6
CONTINUOUS
10
6.96632
20
-2.8748
11
7.02439
21
-2.8748
0
LINE
8
BLACK
6
CONTINUOUS
10
7.02439
20
-2.8748
11
7.02439
21
-2.89252
0
LINE
8
BLACK
6
CONTINUOUS
10
7.63368
20
-2.86693
11
7.57561
21
-2.86693
0
LINE
8
BLACK
6
CONTINUOUS
10
7.57561
20
-2.86693
11
7.57561
21
-2.84921
0
LINE
8
BLACK
6
CONTINUOUS
10
7.57561
20
-2.84921
11
7.63368
21
-2.84921
0
LINE
8
BLACK
6
CONTINUOUS
10
7.63368
20
-2.84921
11
7.63368
21
-2.86693
0
LINE
8
BLACK
6
CONTINUOUS
10
7.02439
20
-2.86693
11
6.96632
21
-2.86693
0
LINE
8
BLACK
6
CONTINUOUS
10
6.96632
20
-2.86693
11
6.96632
21
-2.84921
0
LINE
8
BLACK
6
CONTINUOUS
10
6.96632
20
-2.84921
11
7.02439
21
-2.84921
0
LINE
8
BLACK
6
CONTINUOUS
10
7.02439
20
-2.84921
11
7.02439
21
-2.86693
0
LINE
8
BLACK
6
CONTINUOUS
10
7.63368
20
-2.84134
11
7.57561
21
-2.84134
0
LINE
8
BLACK
6
CONTINUOUS
10
7.57561
20
-2.84134
11
7.57561
21
-2.82362
0
LINE
8
BLACK
6
CONTINUOUS
10
7.57561
20
-2.82362
11
7.63368
21
-2.82362
0
LINE
8
BLACK
6
CONTINUOUS
10
7.63368
20
-2.82362
11
7.63368
21
-2.84134
0
LINE
8
BLACK
6
CONTINUOUS
10
7.02439
20
-2.84134
11
6.96632
21
-2.84134
0
LINE
8
BLACK
6
CONTINUOUS
10
6.96632
20
-2.84134
11
6.96632
21
-2.82362
0
LINE
8
BLACK
6
CONTINUOUS
10
6.96632
20
-2.82362
11
7.02439
21
-2.82362
0
LINE
8
BLACK
6
CONTINUOUS
10
7.02439
20
-2.82362
11
7.02439
21
-2.84134
0
LINE
8
BLACK
6
CONTINUOUS
10
7.63368
20
-2.81575
11
7.57561
21
-2.81575
0
LINE
8
BLACK
6
CONTINUOUS
10
7.57561
20
-2.81575
11
7.57561
21
-2.79803
0
LINE
8
BLACK
6
CONTINUOUS
10
7.57561
20
-2.79803
11
7.63368
21
-2.79803
0
LINE
8
BLACK
6
CONTINUOUS
10
7.63368
20
-2.79803
11
7.63368
21
-2.81575
0
LINE
8
BLACK
6
CONTINUOUS
10
7.02439
20
-2.81575
11
6.96632
21
-2.81575
0
LINE
8
BLACK
6
CONTINUOUS
10
6.96632
20
-2.81575
11
6.96632
21
-2.79803
0
LINE
8
BLACK
6
CONTINUOUS
10
6.96632
20
-2.79803
11
7.02439
21
-2.79803
0
LINE
8
BLACK
6
CONTINUOUS
10
7.02439
20
-2.79803
11
7.02439
21
-2.81575
0
LINE
8
BLACK
6
CONTINUOUS
10
7.55197
20
-2.77439
11
7.53425
21
-2.77439
0
LINE
8
BLACK
6
CONTINUOUS
10
7.53425
20
-2.77439
11
7.53425
21
-2.71632
0
LINE
8
BLACK
6
CONTINUOUS
10
7.53425
20
-2.71632
11
7.55197
21
-2.71632
0
LINE
8
BLACK
6
CONTINUOUS
10
7.55197
20
-2.71632
11
7.55197
21
-2.77439
0
LINE
8
BLACK
6
CONTINUOUS
10
7.24488
20
-2.77439
11
7.22717
21
-2.77439
0
LINE
8
BLACK
6
CONTINUOUS
10
7.22717
20
-2.77439
11
7.22717
21
-2.71632
0
LINE
8
BLACK
6
CONTINUOUS
10
7.22717
20
-2.71632
11
7.24488
21
-2.71632
0
LINE
8
BLACK
6
CONTINUOUS
10
7.24488
20
-2.71632
11
7.24488
21
-2.77439
0
LINE
8
BLACK
6
CONTINUOUS
10
7.21929
20
-2.77439
11
7.20157
21
-2.77439
0
LINE
8
BLACK
6
CONTINUOUS
10
7.20157
20
-2.77439
11
7.20157
21
-2.71632
0
LINE
8
BLACK
6
CONTINUOUS
10
7.20157
20
-2.71632
11
7.21929
21
-2.71632
0
LINE
8
BLACK
6
CONTINUOUS
10
7.21929
20
-2.71632
11
7.21929
21
-2.77439
0
LINE
8
BLACK
6
CONTINUOUS
10
7.1937
20
-2.77439
11
7.17598
21
-2.77439
0
LINE
8
BLACK
6
CONTINUOUS
10
7.17598
20
-2.77439
11
7.17598
21
-2.71632
0
LINE
8
BLACK
6
CONTINUOUS
10
7.17598
20
-2.71632
11
7.1937
21
-2.71632
0
LINE
8
BLACK
6
CONTINUOUS
10
7.1937
20
-2.71632
11
7.1937
21
-2.77439
0
LINE
8
BLACK
6
CONTINUOUS
10
7.16811
20
-2.77439
11
7.15039
21
-2.77439
0
LINE
8
BLACK
6
CONTINUOUS
10
7.15039
20
-2.77439
11
7.15039
21
-2.71632
0
LINE
8
BLACK
6
CONTINUOUS
10
7.15039
20
-2.71632
11
7.16811
21
-2.71632
0
LINE
8
BLACK
6
CONTINUOUS
10
7.16811
20
-2.71632
11
7.16811
21
-2.77439
0
LINE
8
BLACK
6
CONTINUOUS
10
7.14252
20
-2.77439
11
7.1248
21
-2.77439
0
LINE
8
BLACK
6
CONTINUOUS
10
7.1248
20
-2.77439
11
7.1248
21
-2.71632
0
LINE
8
BLACK
6
CONTINUOUS
10
7.1248
20
-2.71632
11
7.14252
21
-2.71632
0
LINE
8
BLACK
6
CONTINUOUS
10
7.14252
20
-2.71632
11
7.14252
21
-2.77439
0
LINE
8
BLACK
6
CONTINUOUS
10
7.11693
20
-2.77439
11
7.09921
21
-2.77439
0
LINE
8
BLACK
6
CONTINUOUS
10
7.09921
20
-2.77439
11
7.09921
21
-2.71632
0
LINE
8
BLACK
6
CONTINUOUS
10
7.09921
20
-2.71632
11
7.11693
21
-2.71632
0
LINE
8
BLACK
6
CONTINUOUS
10
7.11693
20
-2.71632
11
7.11693
21
-2.77439
0
LINE
8
BLACK
6
CONTINUOUS
10
7.09134
20
-2.77439
11
7.07362
21
-2.77439
0
LINE
8
BLACK
6
CONTINUOUS
10
7.07362
20
-2.77439
11
7.07362
21
-2.71632
0
LINE
8
BLACK
6
CONTINUOUS
10
7.07362
20
-2.71632
11
7.09134
21
-2.71632
0
LINE
8
BLACK
6
CONTINUOUS
10
7.09134
20
-2.71632
11
7.09134
21
-2.77439
0
LINE
8
BLACK
6
CONTINUOUS
10
7.06575
20
-2.77439
11
7.04803
21
-2.77439
0
LINE
8
BLACK
6
CONTINUOUS
10
7.04803
20
-2.77439
11
7.04803
21
-2.71632
0
LINE
8
BLACK
6
CONTINUOUS
10
7.04803
20
-2.71632
11
7.06575
21
-2.71632
0
LINE
8
BLACK
6
CONTINUOUS
10
7.06575
20
-2.71632
11
7.06575
21
-2.77439
0
LINE
8
BLACK
6
CONTINUOUS
10
7.29606
20
-2.77439
11
7.27835
21
-2.77439
0
LINE
8
BLACK
6
CONTINUOUS
10
7.27835
20
-2.77439
11
7.27835
21
-2.71632
0
LINE
8
BLACK
6
CONTINUOUS
10
7.27835
20
-2.71632
11
7.29606
21
-2.71632
0
LINE
8
BLACK
6
CONTINUOUS
10
7.29606
20
-2.71632
11
7.29606
21
-2.77439
0
LINE
8
BLACK
6
CONTINUOUS
10
7.32165
20
-2.77439
11
7.30394
21
-2.77439
0
LINE
8
BLACK
6
CONTINUOUS
10
7.30394
20
-2.77439
11
7.30394
21
-2.71632
0
LINE
8
BLACK
6
CONTINUOUS
10
7.30394
20
-2.71632
11
7.32165
21
-2.71632
0
LINE
8
BLACK
6
CONTINUOUS
10
7.32165
20
-2.71632
11
7.32165
21
-2.77439
0
LINE
8
BLACK
6
CONTINUOUS
10
7.34724
20
-2.77439
11
7.32953
21
-2.77439
0
LINE
8
BLACK
6
CONTINUOUS
10
7.32953
20
-2.77439
11
7.32953
21
-2.71632
0
LINE
8
BLACK
6
CONTINUOUS
10
7.32953
20
-2.71632
11
7.34724
21
-2.71632
0
LINE
8
BLACK
6
CONTINUOUS
10
7.34724
20
-2.71632
11
7.34724
21
-2.77439
0
LINE
8
BLACK
6
CONTINUOUS
10
7.37283
20
-2.77439
11
7.35512
21
-2.77439
0
LINE
8
BLACK
6
CONTINUOUS
10
7.35512
20
-2.77439
11
7.35512
21
-2.71632
0
LINE
8
BLACK
6
CONTINUOUS
10
7.35512
20
-2.71632
11
7.37283
21
-2.71632
0
LINE
8
BLACK
6
CONTINUOUS
10
7.37283
20
-2.71632
11
7.37283
21
-2.77439
0
LINE
8
BLACK
6
CONTINUOUS
10
7.39843
20
-2.77439
11
7.38071
21
-2.77439
0
LINE
8
BLACK
6
CONTINUOUS
10
7.38071
20
-2.77439
11
7.38071
21
-2.71632
0
LINE
8
BLACK
6
CONTINUOUS
10
7.38071
20
-2.71632
11
7.39843
21
-2.71632
0
LINE
8
BLACK
6
CONTINUOUS
10
7.39843
20
-2.71632
11
7.39843
21
-2.77439
0
LINE
8
BLACK
6
CONTINUOUS
10
7.42402
20
-2.77439
11
7.4063
21
-2.77439
0
LINE
8
BLACK
6
CONTINUOUS
10
7.4063
20
-2.77439
11
7.4063
21
-2.71632
0
LINE
8
BLACK
6
CONTINUOUS
10
7.4063
20
-2.71632
11
7.42402
21
-2.71632
0
LINE
8
BLACK
6
CONTINUOUS
10
7.42402
20
-2.71632
11
7.42402
21
-2.77439
0
LINE
8
BLACK
6
CONTINUOUS
10
7.44961
20
-2.77439
11
7.43189
21
-2.77439
0
LINE
8
BLACK
6
CONTINUOUS
10
7.43189
20
-2.77439
11
7.43189
21
-2.71632
0
LINE
8
BLACK
6
CONTINUOUS
10
7.43189
20
-2.71632
11
7.44961
21
-2.71632
0
LINE
8
BLACK
6
CONTINUOUS
10
7.44961
20
-2.71632
11
7.44961
21
-2.77439
0
LINE
8
BLACK
6
CONTINUOUS
10
7.4752
20
-2.77439
11
7.45748
21
-2.77439
0
LINE
8
BLACK
6
CONTINUOUS
10
7.45748
20
-2.77439
11
7.45748
21
-2.71632
0
LINE
8
BLACK
6
CONTINUOUS
10
7.45748
20
-2.71632
11
7.4752
21
-2.71632
0
LINE
8
BLACK
6
CONTINUOUS
10
7.4752
20
-2.71632
11
7.4752
21
-2.77439
0
LINE
8
BLACK
6
CONTINUOUS
10
7.50079
20
-2.77439
11
7.48307
21
-2.77439
0
LINE
8
BLACK
6
CONTINUOUS
10
7.48307
20
-2.77439
11
7.48307
21
-2.71632
0
LINE
8
BLACK
6
CONTINUOUS
10
7.48307
20
-2.71632
11
7.50079
21
-2.71632
0
LINE
8
BLACK
6
CONTINUOUS
10
7.50079
20
-2.71632
11
7.50079
21
-2.77439
0
LINE
8
BLACK
6
CONTINUOUS
10
7.52638
20
-2.77439
11
7.50866
21
-2.77439
0
LINE
8
BLACK
6
CONTINUOUS
10
7.50866
20
-2.77439
11
7.50866
21
-2.71632
0
LINE
8
BLACK
6
CONTINUOUS
10
7.50866
20
-2.71632
11
7.52638
21
-2.71632
0
LINE
8
BLACK
6
CONTINUOUS
10
7.52638
20
-2.71632
11
7.52638
21
-2.77439
0
LINE
8
BLACK
6
CONTINUOUS
10
7.27047
20
-2.77439
11
7.25276
21
-2.77439
0
LINE
8
BLACK
6
CONTINUOUS
10
7.25276
20
-2.77439
11
7.25276
21
-2.71632
0
LINE
8
BLACK
6
CONTINUOUS
10
7.25276
20
-2.71632
11
7.27047
21
-2.71632
0
LINE
8
BLACK
6
CONTINUOUS
10
7.27047
20
-2.71632
11
7.27047
21
-2.77439
  0
ENDSEC
  0
EOF
