  0
SECTION
  2
HEADER
  9
$ANGBASE
  50
0.0
  9
$ANGDIR
  70
1
  9
$MEASUREMENT
  70
0
  0
ENDSEC
  0
SECTION
  2
TABLES
  0
TABLE
  2
LTYPE
  70
4
  0
LTYPE
  5
40F
  2
CONTINUOUS
  70
0
  3
Solid line
  72
65
  73
0
  40
0.0
  0
LTYPE
  5
410
  2
DASHDOT
 70
0
  3
Dash Dot ____ _ ____ _
 72
65
 73
4
 40
2.0
 49
1.25
 49
-0.25
 49
0.25
 49
-0.25
  0
LTYPE
  5
411
  2
DASHED
 70
0
  3
Dashed __ __ __ __ __
 72
65
 73
2
 40
0.75
 49
0.5
 49
-0.25
  0
LTYPE
  5
43B
  2
DOTTED
 70
0
  3
Dotted .  .  .  .
 72
65
 73
2
 40
0.2
 49
0.0
 49
-0.2
  0
ENDTAB
  0
TABLE
  2
STYLE
  70
4
  0
STYLE
  2
KICAD
  70
0
  40
0
  41
1
  42
1
  50
0
  71
0
  3
isocp.shx
  0
STYLE
  2
KICADB
  70
0
  40
0
  41
1
  42
1
  50
0
  71
0
  3
isocp.shx
  0
STYLE
  2
KICADI
  70
0
  40
0
  41
1
  42
1
  50
15
  71
0
  3
isocp.shx
  0
STYLE
  2
KICADBI
  70
0
  40
0
  41
1
  42
1
  50
15
  71
0
  3
isocp.shx
  0
ENDTAB
  0
TABLE
  2
LAYER
  70
1
  0
LAYER
  2
BLACK
  70
0
  62
7
  6
CONTINUOUS
  0
ENDTAB
  0
ENDSEC
  0
SECTION
  2
ENTITIES
0
LINE
8
BLACK
6
CONTINUOUS
10
7.09323
20
-3.29398
11
7.09611
21
-3.2959
0
LINE
8
BLACK
6
CONTINUOUS
10
7.09611
20
-3.2959
11
7.09803
21
-3.29878
0
LINE
8
BLACK
6
CONTINUOUS
10
7.09803
20
-3.29878
11
7.0987
21
-3.30217
0
LINE
8
BLACK
6
CONTINUOUS
10
7.0987
20
-3.30217
11
7.0987
21
-3.31988
0
LINE
8
BLACK
6
CONTINUOUS
10
7.0987
20
-3.31988
11
7.09803
21
-3.32327
0
LINE
8
BLACK
6
CONTINUOUS
10
7.09803
20
-3.32327
11
7.09611
21
-3.32615
0
LINE
8
BLACK
6
CONTINUOUS
10
7.09611
20
-3.32615
11
7.09323
21
-3.32807
0
LINE
8
BLACK
6
CONTINUOUS
10
7.09323
20
-3.32807
11
7.08984
21
-3.32874
0
LINE
8
BLACK
6
CONTINUOUS
10
7.08984
20
-3.32874
11
7.07016
21
-3.32874
0
LINE
8
BLACK
6
CONTINUOUS
10
7.07016
20
-3.32874
11
7.06677
21
-3.32807
0
LINE
8
BLACK
6
CONTINUOUS
10
7.06677
20
-3.32807
11
7.06389
21
-3.32615
0
LINE
8
BLACK
6
CONTINUOUS
10
7.06389
20
-3.32615
11
7.06197
21
-3.32327
0
LINE
8
BLACK
6
CONTINUOUS
10
7.06197
20
-3.32327
11
7.0613
21
-3.31988
0
LINE
8
BLACK
6
CONTINUOUS
10
7.0613
20
-3.31988
11
7.0613
21
-3.30217
0
LINE
8
BLACK
6
CONTINUOUS
10
7.0613
20
-3.30217
11
7.06197
21
-3.29878
0
LINE
8
BLACK
6
CONTINUOUS
10
7.06197
20
-3.29878
11
7.06389
21
-3.2959
0
LINE
8
BLACK
6
CONTINUOUS
10
7.06389
20
-3.2959
11
7.06677
21
-3.29398
0
LINE
8
BLACK
6
CONTINUOUS
10
7.06677
20
-3.29398
11
7.07016
21
-3.29331
0
LINE
8
BLACK
6
CONTINUOUS
10
7.07016
20
-3.29331
11
7.08984
21
-3.29331
0
LINE
8
BLACK
6
CONTINUOUS
10
7.08984
20
-3.29331
11
7.09323
21
-3.29398
0
LINE
8
BLACK
6
CONTINUOUS
10
7.15323
20
-3.29347
11
7.15611
21
-3.29539
0
LINE
8
BLACK
6
CONTINUOUS
10
7.15611
20
-3.29539
11
7.15803
21
-3.29826
0
LINE
8
BLACK
6
CONTINUOUS
10
7.15803
20
-3.29826
11
7.1587
21
-3.30165
0
LINE
8
BLACK
6
CONTINUOUS
10
7.1587
20
-3.30165
11
7.1587
21
-3.31937
0
LINE
8
BLACK
6
CONTINUOUS
10
7.1587
20
-3.31937
11
7.15803
21
-3.32276
0
LINE
8
BLACK
6
CONTINUOUS
10
7.15803
20
-3.32276
11
7.15611
21
-3.32563
0
LINE
8
BLACK
6
CONTINUOUS
10
7.15611
20
-3.32563
11
7.15323
21
-3.32755
0
LINE
8
BLACK
6
CONTINUOUS
10
7.15323
20
-3.32755
11
7.14984
21
-3.32823
0
LINE
8
BLACK
6
CONTINUOUS
10
7.14984
20
-3.32823
11
7.13016
21
-3.32823
0
LINE
8
BLACK
6
CONTINUOUS
10
7.13016
20
-3.32823
11
7.12677
21
-3.32755
0
LINE
8
BLACK
6
CONTINUOUS
10
7.12677
20
-3.32755
11
7.12389
21
-3.32563
0
LINE
8
BLACK
6
CONTINUOUS
10
7.12389
20
-3.32563
11
7.12197
21
-3.32276
0
LINE
8
BLACK
6
CONTINUOUS
10
7.12197
20
-3.32276
11
7.1213
21
-3.31937
0
LINE
8
BLACK
6
CONTINUOUS
10
7.1213
20
-3.31937
11
7.1213
21
-3.30165
0
LINE
8
BLACK
6
CONTINUOUS
10
7.1213
20
-3.30165
11
7.12197
21
-3.29826
0
LINE
8
BLACK
6
CONTINUOUS
10
7.12197
20
-3.29826
11
7.12389
21
-3.29539
0
LINE
8
BLACK
6
CONTINUOUS
10
7.12389
20
-3.29539
11
7.12677
21
-3.29347
0
LINE
8
BLACK
6
CONTINUOUS
10
7.12677
20
-3.29347
11
7.13016
21
-3.2928
0
LINE
8
BLACK
6
CONTINUOUS
10
7.13016
20
-3.2928
11
7.14984
21
-3.2928
0
LINE
8
BLACK
6
CONTINUOUS
10
7.14984
20
-3.2928
11
7.15323
21
-3.29347
0
LINE
8
BLACK
6
CONTINUOUS
10
7.33323
20
-3.29347
11
7.33611
21
-3.29539
0
LINE
8
BLACK
6
CONTINUOUS
10
7.33611
20
-3.29539
11
7.33803
21
-3.29826
0
LINE
8
BLACK
6
CONTINUOUS
10
7.33803
20
-3.29826
11
7.3387
21
-3.30165
0
LINE
8
BLACK
6
CONTINUOUS
10
7.3387
20
-3.30165
11
7.3387
21
-3.31937
0
LINE
8
BLACK
6
CONTINUOUS
10
7.3387
20
-3.31937
11
7.33803
21
-3.32276
0
LINE
8
BLACK
6
CONTINUOUS
10
7.33803
20
-3.32276
11
7.33611
21
-3.32563
0
LINE
8
BLACK
6
CONTINUOUS
10
7.33611
20
-3.32563
11
7.33323
21
-3.32755
0
LINE
8
BLACK
6
CONTINUOUS
10
7.33323
20
-3.32755
11
7.32984
21
-3.32823
0
LINE
8
BLACK
6
CONTINUOUS
10
7.32984
20
-3.32823
11
7.31016
21
-3.32823
0
LINE
8
BLACK
6
CONTINUOUS
10
7.31016
20
-3.32823
11
7.30677
21
-3.32755
0
LINE
8
BLACK
6
CONTINUOUS
10
7.30677
20
-3.32755
11
7.30389
21
-3.32563
0
LINE
8
BLACK
6
CONTINUOUS
10
7.30389
20
-3.32563
11
7.30197
21
-3.32276
0
LINE
8
BLACK
6
CONTINUOUS
10
7.30197
20
-3.32276
11
7.3013
21
-3.31937
0
LINE
8
BLACK
6
CONTINUOUS
10
7.3013
20
-3.31937
11
7.3013
21
-3.30165
0
LINE
8
BLACK
6
CONTINUOUS
10
7.3013
20
-3.30165
11
7.30197
21
-3.29826
0
LINE
8
BLACK
6
CONTINUOUS
10
7.30197
20
-3.29826
11
7.30389
21
-3.29539
0
LINE
8
BLACK
6
CONTINUOUS
10
7.30389
20
-3.29539
11
7.30677
21
-3.29347
0
LINE
8
BLACK
6
CONTINUOUS
10
7.30677
20
-3.29347
11
7.31016
21
-3.2928
0
LINE
8
BLACK
6
CONTINUOUS
10
7.31016
20
-3.2928
11
7.32984
21
-3.2928
0
LINE
8
BLACK
6
CONTINUOUS
10
7.32984
20
-3.2928
11
7.33323
21
-3.29347
0
LINE
8
BLACK
6
CONTINUOUS
10
7.39323
20
-3.29347
11
7.39611
21
-3.29539
0
LINE
8
BLACK
6
CONTINUOUS
10
7.39611
20
-3.29539
11
7.39803
21
-3.29826
0
LINE
8
BLACK
6
CONTINUOUS
10
7.39803
20
-3.29826
11
7.3987
21
-3.30165
0
LINE
8
BLACK
6
CONTINUOUS
10
7.3987
20
-3.30165
11
7.3987
21
-3.31937
0
LINE
8
BLACK
6
CONTINUOUS
10
7.3987
20
-3.31937
11
7.39803
21
-3.32276
0
LINE
8
BLACK
6
CONTINUOUS
10
7.39803
20
-3.32276
11
7.39611
21
-3.32563
0
LINE
8
BLACK
6
CONTINUOUS
10
7.39611
20
-3.32563
11
7.39323
21
-3.32755
0
LINE
8
BLACK
6
CONTINUOUS
10
7.39323
20
-3.32755
11
7.38984
21
-3.32823
0
LINE
8
BLACK
6
CONTINUOUS
10
7.38984
20
-3.32823
11
7.37016
21
-3.32823
0
LINE
8
BLACK
6
CONTINUOUS
10
7.37016
20
-3.32823
11
7.36677
21
-3.32755
0
LINE
8
BLACK
6
CONTINUOUS
10
7.36677
20
-3.32755
11
7.36389
21
-3.32563
0
LINE
8
BLACK
6
CONTINUOUS
10
7.36389
20
-3.32563
11
7.36197
21
-3.32276
0
LINE
8
BLACK
6
CONTINUOUS
10
7.36197
20
-3.32276
11
7.3613
21
-3.31937
0
LINE
8
BLACK
6
CONTINUOUS
10
7.3613
20
-3.31937
11
7.3613
21
-3.30165
0
LINE
8
BLACK
6
CONTINUOUS
10
7.3613
20
-3.30165
11
7.36197
21
-3.29826
0
LINE
8
BLACK
6
CONTINUOUS
10
7.36197
20
-3.29826
11
7.36389
21
-3.29539
0
LINE
8
BLACK
6
CONTINUOUS
10
7.36389
20
-3.29539
11
7.36677
21
-3.29347
0
LINE
8
BLACK
6
CONTINUOUS
10
7.36677
20
-3.29347
11
7.37016
21
-3.2928
0
LINE
8
BLACK
6
CONTINUOUS
10
7.37016
20
-3.2928
11
7.38984
21
-3.2928
0
LINE
8
BLACK
6
CONTINUOUS
10
7.38984
20
-3.2928
11
7.39323
21
-3.29347
0
LINE
8
BLACK
6
CONTINUOUS
10
7.45323
20
-3.29347
11
7.45611
21
-3.29539
0
LINE
8
BLACK
6
CONTINUOUS
10
7.45611
20
-3.29539
11
7.45803
21
-3.29826
0
LINE
8
BLACK
6
CONTINUOUS
10
7.45803
20
-3.29826
11
7.4587
21
-3.30165
0
LINE
8
BLACK
6
CONTINUOUS
10
7.4587
20
-3.30165
11
7.4587
21
-3.31937
0
LINE
8
BLACK
6
CONTINUOUS
10
7.4587
20
-3.31937
11
7.45803
21
-3.32276
0
LINE
8
BLACK
6
CONTINUOUS
10
7.45803
20
-3.32276
11
7.45611
21
-3.32563
0
LINE
8
BLACK
6
CONTINUOUS
10
7.45611
20
-3.32563
11
7.45323
21
-3.32755
0
LINE
8
BLACK
6
CONTINUOUS
10
7.45323
20
-3.32755
11
7.44984
21
-3.32823
0
LINE
8
BLACK
6
CONTINUOUS
10
7.44984
20
-3.32823
11
7.43016
21
-3.32823
0
LINE
8
BLACK
6
CONTINUOUS
10
7.43016
20
-3.32823
11
7.42677
21
-3.32755
0
LINE
8
BLACK
6
CONTINUOUS
10
7.42677
20
-3.32755
11
7.42389
21
-3.32563
0
LINE
8
BLACK
6
CONTINUOUS
10
7.42389
20
-3.32563
11
7.42197
21
-3.32276
0
LINE
8
BLACK
6
CONTINUOUS
10
7.42197
20
-3.32276
11
7.4213
21
-3.31937
0
LINE
8
BLACK
6
CONTINUOUS
10
7.4213
20
-3.31937
11
7.4213
21
-3.30165
0
LINE
8
BLACK
6
CONTINUOUS
10
7.4213
20
-3.30165
11
7.42197
21
-3.29826
0
LINE
8
BLACK
6
CONTINUOUS
10
7.42197
20
-3.29826
11
7.42389
21
-3.29539
0
LINE
8
BLACK
6
CONTINUOUS
10
7.42389
20
-3.29539
11
7.42677
21
-3.29347
0
LINE
8
BLACK
6
CONTINUOUS
10
7.42677
20
-3.29347
11
7.43016
21
-3.2928
0
LINE
8
BLACK
6
CONTINUOUS
10
7.43016
20
-3.2928
11
7.44984
21
-3.2928
0
LINE
8
BLACK
6
CONTINUOUS
10
7.44984
20
-3.2928
11
7.45323
21
-3.29347
0
LINE
8
BLACK
6
CONTINUOUS
10
7.27323
20
-3.29347
11
7.27611
21
-3.29539
0
LINE
8
BLACK
6
CONTINUOUS
10
7.27611
20
-3.29539
11
7.27803
21
-3.29826
0
LINE
8
BLACK
6
CONTINUOUS
10
7.27803
20
-3.29826
11
7.2787
21
-3.30165
0
LINE
8
BLACK
6
CONTINUOUS
10
7.2787
20
-3.30165
11
7.2787
21
-3.31937
0
LINE
8
BLACK
6
CONTINUOUS
10
7.2787
20
-3.31937
11
7.27803
21
-3.32276
0
LINE
8
BLACK
6
CONTINUOUS
10
7.27803
20
-3.32276
11
7.27611
21
-3.32563
0
LINE
8
BLACK
6
CONTINUOUS
10
7.27611
20
-3.32563
11
7.27323
21
-3.32755
0
LINE
8
BLACK
6
CONTINUOUS
10
7.27323
20
-3.32755
11
7.26984
21
-3.32823
0
LINE
8
BLACK
6
CONTINUOUS
10
7.26984
20
-3.32823
11
7.25016
21
-3.32823
0
LINE
8
BLACK
6
CONTINUOUS
10
7.25016
20
-3.32823
11
7.24677
21
-3.32755
0
LINE
8
BLACK
6
CONTINUOUS
10
7.24677
20
-3.32755
11
7.24389
21
-3.32563
0
LINE
8
BLACK
6
CONTINUOUS
10
7.24389
20
-3.32563
11
7.24197
21
-3.32276
0
LINE
8
BLACK
6
CONTINUOUS
10
7.24197
20
-3.32276
11
7.2413
21
-3.31937
0
LINE
8
BLACK
6
CONTINUOUS
10
7.2413
20
-3.31937
11
7.2413
21
-3.30165
0
LINE
8
BLACK
6
CONTINUOUS
10
7.2413
20
-3.30165
11
7.24197
21
-3.29826
0
LINE
8
BLACK
6
CONTINUOUS
10
7.24197
20
-3.29826
11
7.24389
21
-3.29539
0
LINE
8
BLACK
6
CONTINUOUS
10
7.24389
20
-3.29539
11
7.24677
21
-3.29347
0
LINE
8
BLACK
6
CONTINUOUS
10
7.24677
20
-3.29347
11
7.25016
21
-3.2928
0
LINE
8
BLACK
6
CONTINUOUS
10
7.25016
20
-3.2928
11
7.26984
21
-3.2928
0
LINE
8
BLACK
6
CONTINUOUS
10
7.26984
20
-3.2928
11
7.27323
21
-3.29347
0
LINE
8
BLACK
6
CONTINUOUS
10
7.21323
20
-3.29347
11
7.21611
21
-3.29539
0
LINE
8
BLACK
6
CONTINUOUS
10
7.21611
20
-3.29539
11
7.21803
21
-3.29826
0
LINE
8
BLACK
6
CONTINUOUS
10
7.21803
20
-3.29826
11
7.2187
21
-3.30165
0
LINE
8
BLACK
6
CONTINUOUS
10
7.2187
20
-3.30165
11
7.2187
21
-3.31937
0
LINE
8
BLACK
6
CONTINUOUS
10
7.2187
20
-3.31937
11
7.21803
21
-3.32276
0
LINE
8
BLACK
6
CONTINUOUS
10
7.21803
20
-3.32276
11
7.21611
21
-3.32563
0
LINE
8
BLACK
6
CONTINUOUS
10
7.21611
20
-3.32563
11
7.21323
21
-3.32755
0
LINE
8
BLACK
6
CONTINUOUS
10
7.21323
20
-3.32755
11
7.20984
21
-3.32823
0
LINE
8
BLACK
6
CONTINUOUS
10
7.20984
20
-3.32823
11
7.19016
21
-3.32823
0
LINE
8
BLACK
6
CONTINUOUS
10
7.19016
20
-3.32823
11
7.18677
21
-3.32755
0
LINE
8
BLACK
6
CONTINUOUS
10
7.18677
20
-3.32755
11
7.18389
21
-3.32563
0
LINE
8
BLACK
6
CONTINUOUS
10
7.18389
20
-3.32563
11
7.18197
21
-3.32276
0
LINE
8
BLACK
6
CONTINUOUS
10
7.18197
20
-3.32276
11
7.1813
21
-3.31937
0
LINE
8
BLACK
6
CONTINUOUS
10
7.1813
20
-3.31937
11
7.1813
21
-3.30165
0
LINE
8
BLACK
6
CONTINUOUS
10
7.1813
20
-3.30165
11
7.18197
21
-3.29826
0
LINE
8
BLACK
6
CONTINUOUS
10
7.18197
20
-3.29826
11
7.18389
21
-3.29539
0
LINE
8
BLACK
6
CONTINUOUS
10
7.18389
20
-3.29539
11
7.18677
21
-3.29347
0
LINE
8
BLACK
6
CONTINUOUS
10
7.18677
20
-3.29347
11
7.19016
21
-3.2928
0
LINE
8
BLACK
6
CONTINUOUS
10
7.19016
20
-3.2928
11
7.20984
21
-3.2928
0
LINE
8
BLACK
6
CONTINUOUS
10
7.20984
20
-3.2928
11
7.21323
21
-3.29347
0
LINE
8
BLACK
6
CONTINUOUS
10
7.09323
20
-3.23296
11
7.09611
21
-3.23488
0
LINE
8
BLACK
6
CONTINUOUS
10
7.09611
20
-3.23488
11
7.09803
21
-3.23775
0
LINE
8
BLACK
6
CONTINUOUS
10
7.09803
20
-3.23775
11
7.0987
21
-3.24114
0
LINE
8
BLACK
6
CONTINUOUS
10
7.0987
20
-3.24114
11
7.0987
21
-3.25886
0
LINE
8
BLACK
6
CONTINUOUS
10
7.0987
20
-3.25886
11
7.09803
21
-3.26225
0
LINE
8
BLACK
6
CONTINUOUS
10
7.09803
20
-3.26225
11
7.09611
21
-3.26512
0
LINE
8
BLACK
6
CONTINUOUS
10
7.09611
20
-3.26512
11
7.09323
21
-3.26704
0
LINE
8
BLACK
6
CONTINUOUS
10
7.09323
20
-3.26704
11
7.08984
21
-3.26772
0
LINE
8
BLACK
6
CONTINUOUS
10
7.08984
20
-3.26772
11
7.07016
21
-3.26772
0
LINE
8
BLACK
6
CONTINUOUS
10
7.07016
20
-3.26772
11
7.06677
21
-3.26704
0
LINE
8
BLACK
6
CONTINUOUS
10
7.06677
20
-3.26704
11
7.06389
21
-3.26512
0
LINE
8
BLACK
6
CONTINUOUS
10
7.06389
20
-3.26512
11
7.06197
21
-3.26225
0
LINE
8
BLACK
6
CONTINUOUS
10
7.06197
20
-3.26225
11
7.0613
21
-3.25886
0
LINE
8
BLACK
6
CONTINUOUS
10
7.0613
20
-3.25886
11
7.0613
21
-3.24114
0
LINE
8
BLACK
6
CONTINUOUS
10
7.0613
20
-3.24114
11
7.06197
21
-3.23775
0
LINE
8
BLACK
6
CONTINUOUS
10
7.06197
20
-3.23775
11
7.06389
21
-3.23488
0
LINE
8
BLACK
6
CONTINUOUS
10
7.06389
20
-3.23488
11
7.06677
21
-3.23296
0
LINE
8
BLACK
6
CONTINUOUS
10
7.06677
20
-3.23296
11
7.07016
21
-3.23228
0
LINE
8
BLACK
6
CONTINUOUS
10
7.07016
20
-3.23228
11
7.08984
21
-3.23228
0
LINE
8
BLACK
6
CONTINUOUS
10
7.08984
20
-3.23228
11
7.09323
21
-3.23296
0
LINE
8
BLACK
6
CONTINUOUS
10
7.27323
20
-3.23245
11
7.27611
21
-3.23437
0
LINE
8
BLACK
6
CONTINUOUS
10
7.27611
20
-3.23437
11
7.27803
21
-3.23724
0
LINE
8
BLACK
6
CONTINUOUS
10
7.27803
20
-3.23724
11
7.2787
21
-3.24063
0
LINE
8
BLACK
6
CONTINUOUS
10
7.2787
20
-3.24063
11
7.2787
21
-3.25835
0
LINE
8
BLACK
6
CONTINUOUS
10
7.2787
20
-3.25835
11
7.27803
21
-3.26174
0
LINE
8
BLACK
6
CONTINUOUS
10
7.27803
20
-3.26174
11
7.27611
21
-3.26461
0
LINE
8
BLACK
6
CONTINUOUS
10
7.27611
20
-3.26461
11
7.27323
21
-3.26653
0
LINE
8
BLACK
6
CONTINUOUS
10
7.27323
20
-3.26653
11
7.26984
21
-3.2672
0
LINE
8
BLACK
6
CONTINUOUS
10
7.26984
20
-3.2672
11
7.25016
21
-3.2672
0
LINE
8
BLACK
6
CONTINUOUS
10
7.25016
20
-3.2672
11
7.24677
21
-3.26653
0
LINE
8
BLACK
6
CONTINUOUS
10
7.24677
20
-3.26653
11
7.24389
21
-3.26461
0
LINE
8
BLACK
6
CONTINUOUS
10
7.24389
20
-3.26461
11
7.24197
21
-3.26174
0
LINE
8
BLACK
6
CONTINUOUS
10
7.24197
20
-3.26174
11
7.2413
21
-3.25835
0
LINE
8
BLACK
6
CONTINUOUS
10
7.2413
20
-3.25835
11
7.2413
21
-3.24063
0
LINE
8
BLACK
6
CONTINUOUS
10
7.2413
20
-3.24063
11
7.24197
21
-3.23724
0
LINE
8
BLACK
6
CONTINUOUS
10
7.24197
20
-3.23724
11
7.24389
21
-3.23437
0
LINE
8
BLACK
6
CONTINUOUS
10
7.24389
20
-3.23437
11
7.24677
21
-3.23245
0
LINE
8
BLACK
6
CONTINUOUS
10
7.24677
20
-3.23245
11
7.25016
21
-3.23177
0
LINE
8
BLACK
6
CONTINUOUS
10
7.25016
20
-3.23177
11
7.26984
21
-3.23177
0
LINE
8
BLACK
6
CONTINUOUS
10
7.26984
20
-3.23177
11
7.27323
21
-3.23245
0
LINE
8
BLACK
6
CONTINUOUS
10
7.39323
20
-3.23245
11
7.39611
21
-3.23437
0
LINE
8
BLACK
6
CONTINUOUS
10
7.39611
20
-3.23437
11
7.39803
21
-3.23724
0
LINE
8
BLACK
6
CONTINUOUS
10
7.39803
20
-3.23724
11
7.3987
21
-3.24063
0
LINE
8
BLACK
6
CONTINUOUS
10
7.3987
20
-3.24063
11
7.3987
21
-3.25835
0
LINE
8
BLACK
6
CONTINUOUS
10
7.3987
20
-3.25835
11
7.39803
21
-3.26174
0
LINE
8
BLACK
6
CONTINUOUS
10
7.39803
20
-3.26174
11
7.39611
21
-3.26461
0
LINE
8
BLACK
6
CONTINUOUS
10
7.39611
20
-3.26461
11
7.39323
21
-3.26653
0
LINE
8
BLACK
6
CONTINUOUS
10
7.39323
20
-3.26653
11
7.38984
21
-3.2672
0
LINE
8
BLACK
6
CONTINUOUS
10
7.38984
20
-3.2672
11
7.37016
21
-3.2672
0
LINE
8
BLACK
6
CONTINUOUS
10
7.37016
20
-3.2672
11
7.36677
21
-3.26653
0
LINE
8
BLACK
6
CONTINUOUS
10
7.36677
20
-3.26653
11
7.36389
21
-3.26461
0
LINE
8
BLACK
6
CONTINUOUS
10
7.36389
20
-3.26461
11
7.36197
21
-3.26174
0
LINE
8
BLACK
6
CONTINUOUS
10
7.36197
20
-3.26174
11
7.3613
21
-3.25835
0
LINE
8
BLACK
6
CONTINUOUS
10
7.3613
20
-3.25835
11
7.3613
21
-3.24063
0
LINE
8
BLACK
6
CONTINUOUS
10
7.3613
20
-3.24063
11
7.36197
21
-3.23724
0
LINE
8
BLACK
6
CONTINUOUS
10
7.36197
20
-3.23724
11
7.36389
21
-3.23437
0
LINE
8
BLACK
6
CONTINUOUS
10
7.36389
20
-3.23437
11
7.36677
21
-3.23245
0
LINE
8
BLACK
6
CONTINUOUS
10
7.36677
20
-3.23245
11
7.37016
21
-3.23177
0
LINE
8
BLACK
6
CONTINUOUS
10
7.37016
20
-3.23177
11
7.38984
21
-3.23177
0
LINE
8
BLACK
6
CONTINUOUS
10
7.38984
20
-3.23177
11
7.39323
21
-3.23245
0
LINE
8
BLACK
6
CONTINUOUS
10
7.45323
20
-3.23245
11
7.45611
21
-3.23437
0
LINE
8
BLACK
6
CONTINUOUS
10
7.45611
20
-3.23437
11
7.45803
21
-3.23724
0
LINE
8
BLACK
6
CONTINUOUS
10
7.45803
20
-3.23724
11
7.4587
21
-3.24063
0
LINE
8
BLACK
6
CONTINUOUS
10
7.4587
20
-3.24063
11
7.4587
21
-3.25835
0
LINE
8
BLACK
6
CONTINUOUS
10
7.4587
20
-3.25835
11
7.45803
21
-3.26174
0
LINE
8
BLACK
6
CONTINUOUS
10
7.45803
20
-3.26174
11
7.45611
21
-3.26461
0
LINE
8
BLACK
6
CONTINUOUS
10
7.45611
20
-3.26461
11
7.45323
21
-3.26653
0
LINE
8
BLACK
6
CONTINUOUS
10
7.45323
20
-3.26653
11
7.44984
21
-3.2672
0
LINE
8
BLACK
6
CONTINUOUS
10
7.44984
20
-3.2672
11
7.43016
21
-3.2672
0
LINE
8
BLACK
6
CONTINUOUS
10
7.43016
20
-3.2672
11
7.42677
21
-3.26653
0
LINE
8
BLACK
6
CONTINUOUS
10
7.42677
20
-3.26653
11
7.42389
21
-3.26461
0
LINE
8
BLACK
6
CONTINUOUS
10
7.42389
20
-3.26461
11
7.42197
21
-3.26174
0
LINE
8
BLACK
6
CONTINUOUS
10
7.42197
20
-3.26174
11
7.4213
21
-3.25835
0
LINE
8
BLACK
6
CONTINUOUS
10
7.4213
20
-3.25835
11
7.4213
21
-3.24063
0
LINE
8
BLACK
6
CONTINUOUS
10
7.4213
20
-3.24063
11
7.42197
21
-3.23724
0
LINE
8
BLACK
6
CONTINUOUS
10
7.42197
20
-3.23724
11
7.42389
21
-3.23437
0
LINE
8
BLACK
6
CONTINUOUS
10
7.42389
20
-3.23437
11
7.42677
21
-3.23245
0
LINE
8
BLACK
6
CONTINUOUS
10
7.42677
20
-3.23245
11
7.43016
21
-3.23177
0
LINE
8
BLACK
6
CONTINUOUS
10
7.43016
20
-3.23177
11
7.44984
21
-3.23177
0
LINE
8
BLACK
6
CONTINUOUS
10
7.44984
20
-3.23177
11
7.45323
21
-3.23245
0
LINE
8
BLACK
6
CONTINUOUS
10
7.33323
20
-3.23245
11
7.33611
21
-3.23437
0
LINE
8
BLACK
6
CONTINUOUS
10
7.33611
20
-3.23437
11
7.33803
21
-3.23724
0
LINE
8
BLACK
6
CONTINUOUS
10
7.33803
20
-3.23724
11
7.3387
21
-3.24063
0
LINE
8
BLACK
6
CONTINUOUS
10
7.3387
20
-3.24063
11
7.3387
21
-3.25835
0
LINE
8
BLACK
6
CONTINUOUS
10
7.3387
20
-3.25835
11
7.33803
21
-3.26174
0
LINE
8
BLACK
6
CONTINUOUS
10
7.33803
20
-3.26174
11
7.33611
21
-3.26461
0
LINE
8
BLACK
6
CONTINUOUS
10
7.33611
20
-3.26461
11
7.33323
21
-3.26653
0
LINE
8
BLACK
6
CONTINUOUS
10
7.33323
20
-3.26653
11
7.32984
21
-3.2672
0
LINE
8
BLACK
6
CONTINUOUS
10
7.32984
20
-3.2672
11
7.31016
21
-3.2672
0
LINE
8
BLACK
6
CONTINUOUS
10
7.31016
20
-3.2672
11
7.30677
21
-3.26653
0
LINE
8
BLACK
6
CONTINUOUS
10
7.30677
20
-3.26653
11
7.30389
21
-3.26461
0
LINE
8
BLACK
6
CONTINUOUS
10
7.30389
20
-3.26461
11
7.30197
21
-3.26174
0
LINE
8
BLACK
6
CONTINUOUS
10
7.30197
20
-3.26174
11
7.3013
21
-3.25835
0
LINE
8
BLACK
6
CONTINUOUS
10
7.3013
20
-3.25835
11
7.3013
21
-3.24063
0
LINE
8
BLACK
6
CONTINUOUS
10
7.3013
20
-3.24063
11
7.30197
21
-3.23724
0
LINE
8
BLACK
6
CONTINUOUS
10
7.30197
20
-3.23724
11
7.30389
21
-3.23437
0
LINE
8
BLACK
6
CONTINUOUS
10
7.30389
20
-3.23437
11
7.30677
21
-3.23245
0
LINE
8
BLACK
6
CONTINUOUS
10
7.30677
20
-3.23245
11
7.31016
21
-3.23177
0
LINE
8
BLACK
6
CONTINUOUS
10
7.31016
20
-3.23177
11
7.32984
21
-3.23177
0
LINE
8
BLACK
6
CONTINUOUS
10
7.32984
20
-3.23177
11
7.33323
21
-3.23245
0
LINE
8
BLACK
6
CONTINUOUS
10
7.15323
20
-3.23245
11
7.15611
21
-3.23437
0
LINE
8
BLACK
6
CONTINUOUS
10
7.15611
20
-3.23437
11
7.15803
21
-3.23724
0
LINE
8
BLACK
6
CONTINUOUS
10
7.15803
20
-3.23724
11
7.1587
21
-3.24063
0
LINE
8
BLACK
6
CONTINUOUS
10
7.1587
20
-3.24063
11
7.1587
21
-3.25835
0
LINE
8
BLACK
6
CONTINUOUS
10
7.1587
20
-3.25835
11
7.15803
21
-3.26174
0
LINE
8
BLACK
6
CONTINUOUS
10
7.15803
20
-3.26174
11
7.15611
21
-3.26461
0
LINE
8
BLACK
6
CONTINUOUS
10
7.15611
20
-3.26461
11
7.15323
21
-3.26653
0
LINE
8
BLACK
6
CONTINUOUS
10
7.15323
20
-3.26653
11
7.14984
21
-3.2672
0
LINE
8
BLACK
6
CONTINUOUS
10
7.14984
20
-3.2672
11
7.13016
21
-3.2672
0
LINE
8
BLACK
6
CONTINUOUS
10
7.13016
20
-3.2672
11
7.12677
21
-3.26653
0
LINE
8
BLACK
6
CONTINUOUS
10
7.12677
20
-3.26653
11
7.12389
21
-3.26461
0
LINE
8
BLACK
6
CONTINUOUS
10
7.12389
20
-3.26461
11
7.12197
21
-3.26174
0
LINE
8
BLACK
6
CONTINUOUS
10
7.12197
20
-3.26174
11
7.1213
21
-3.25835
0
LINE
8
BLACK
6
CONTINUOUS
10
7.1213
20
-3.25835
11
7.1213
21
-3.24063
0
LINE
8
BLACK
6
CONTINUOUS
10
7.1213
20
-3.24063
11
7.12197
21
-3.23724
0
LINE
8
BLACK
6
CONTINUOUS
10
7.12197
20
-3.23724
11
7.12389
21
-3.23437
0
LINE
8
BLACK
6
CONTINUOUS
10
7.12389
20
-3.23437
11
7.12677
21
-3.23245
0
LINE
8
BLACK
6
CONTINUOUS
10
7.12677
20
-3.23245
11
7.13016
21
-3.23177
0
LINE
8
BLACK
6
CONTINUOUS
10
7.13016
20
-3.23177
11
7.14984
21
-3.23177
0
LINE
8
BLACK
6
CONTINUOUS
10
7.14984
20
-3.23177
11
7.15323
21
-3.23245
0
LINE
8
BLACK
6
CONTINUOUS
10
7.21323
20
-3.23245
11
7.21611
21
-3.23437
0
LINE
8
BLACK
6
CONTINUOUS
10
7.21611
20
-3.23437
11
7.21803
21
-3.23724
0
LINE
8
BLACK
6
CONTINUOUS
10
7.21803
20
-3.23724
11
7.2187
21
-3.24063
0
LINE
8
BLACK
6
CONTINUOUS
10
7.2187
20
-3.24063
11
7.2187
21
-3.25835
0
LINE
8
BLACK
6
CONTINUOUS
10
7.2187
20
-3.25835
11
7.21803
21
-3.26174
0
LINE
8
BLACK
6
CONTINUOUS
10
7.21803
20
-3.26174
11
7.21611
21
-3.26461
0
LINE
8
BLACK
6
CONTINUOUS
10
7.21611
20
-3.26461
11
7.21323
21
-3.26653
0
LINE
8
BLACK
6
CONTINUOUS
10
7.21323
20
-3.26653
11
7.20984
21
-3.2672
0
LINE
8
BLACK
6
CONTINUOUS
10
7.20984
20
-3.2672
11
7.19016
21
-3.2672
0
LINE
8
BLACK
6
CONTINUOUS
10
7.19016
20
-3.2672
11
7.18677
21
-3.26653
0
LINE
8
BLACK
6
CONTINUOUS
10
7.18677
20
-3.26653
11
7.18389
21
-3.26461
0
LINE
8
BLACK
6
CONTINUOUS
10
7.18389
20
-3.26461
11
7.18197
21
-3.26174
0
LINE
8
BLACK
6
CONTINUOUS
10
7.18197
20
-3.26174
11
7.1813
21
-3.25835
0
LINE
8
BLACK
6
CONTINUOUS
10
7.1813
20
-3.25835
11
7.1813
21
-3.24063
0
LINE
8
BLACK
6
CONTINUOUS
10
7.1813
20
-3.24063
11
7.18197
21
-3.23724
0
LINE
8
BLACK
6
CONTINUOUS
10
7.18197
20
-3.23724
11
7.18389
21
-3.23437
0
LINE
8
BLACK
6
CONTINUOUS
10
7.18389
20
-3.23437
11
7.18677
21
-3.23245
0
LINE
8
BLACK
6
CONTINUOUS
10
7.18677
20
-3.23245
11
7.19016
21
-3.23177
0
LINE
8
BLACK
6
CONTINUOUS
10
7.19016
20
-3.23177
11
7.20984
21
-3.23177
0
LINE
8
BLACK
6
CONTINUOUS
10
7.20984
20
-3.23177
11
7.21323
21
-3.23245
0
LINE
8
BLACK
6
CONTINUOUS
10
7.54327
20
-3.17197
11
7.54615
21
-3.17389
0
LINE
8
BLACK
6
CONTINUOUS
10
7.54615
20
-3.17389
11
7.54807
21
-3.17677
0
LINE
8
BLACK
6
CONTINUOUS
10
7.54807
20
-3.17677
11
7.54874
21
-3.18016
0
LINE
8
BLACK
6
CONTINUOUS
10
7.54874
20
-3.18016
11
7.54874
21
-3.19984
0
LINE
8
BLACK
6
CONTINUOUS
10
7.54874
20
-3.19984
11
7.54807
21
-3.20323
0
LINE
8
BLACK
6
CONTINUOUS
10
7.54807
20
-3.20323
11
7.54615
21
-3.20611
0
LINE
8
BLACK
6
CONTINUOUS
10
7.54615
20
-3.20611
11
7.54327
21
-3.20803
0
LINE
8
BLACK
6
CONTINUOUS
10
7.54327
20
-3.20803
11
7.53988
21
-3.2087
0
LINE
8
BLACK
6
CONTINUOUS
10
7.53988
20
-3.2087
11
7.52217
21
-3.2087
0
LINE
8
BLACK
6
CONTINUOUS
10
7.52217
20
-3.2087
11
7.51878
21
-3.20803
0
LINE
8
BLACK
6
CONTINUOUS
10
7.51878
20
-3.20803
11
7.5159
21
-3.20611
0
LINE
8
BLACK
6
CONTINUOUS
10
7.5159
20
-3.20611
11
7.51398
21
-3.20323
0
LINE
8
BLACK
6
CONTINUOUS
10
7.51398
20
-3.20323
11
7.51331
21
-3.19984
0
LINE
8
BLACK
6
CONTINUOUS
10
7.51331
20
-3.19984
11
7.51331
21
-3.18016
0
LINE
8
BLACK
6
CONTINUOUS
10
7.51331
20
-3.18016
11
7.51398
21
-3.17677
0
LINE
8
BLACK
6
CONTINUOUS
10
7.51398
20
-3.17677
11
7.5159
21
-3.17389
0
LINE
8
BLACK
6
CONTINUOUS
10
7.5159
20
-3.17389
11
7.51878
21
-3.17197
0
LINE
8
BLACK
6
CONTINUOUS
10
7.51878
20
-3.17197
11
7.52217
21
-3.1713
0
LINE
8
BLACK
6
CONTINUOUS
10
7.52217
20
-3.1713
11
7.53988
21
-3.1713
0
LINE
8
BLACK
6
CONTINUOUS
10
7.53988
20
-3.1713
11
7.54327
21
-3.17197
0
LINE
8
BLACK
6
CONTINUOUS
10
7.48225
20
-3.17197
11
7.48512
21
-3.17389
0
LINE
8
BLACK
6
CONTINUOUS
10
7.48512
20
-3.17389
11
7.48704
21
-3.17677
0
LINE
8
BLACK
6
CONTINUOUS
10
7.48704
20
-3.17677
11
7.48772
21
-3.18016
0
LINE
8
BLACK
6
CONTINUOUS
10
7.48772
20
-3.18016
11
7.48772
21
-3.19984
0
LINE
8
BLACK
6
CONTINUOUS
10
7.48772
20
-3.19984
11
7.48704
21
-3.20323
0
LINE
8
BLACK
6
CONTINUOUS
10
7.48704
20
-3.20323
11
7.48512
21
-3.20611
0
LINE
8
BLACK
6
CONTINUOUS
10
7.48512
20
-3.20611
11
7.48225
21
-3.20803
0
LINE
8
BLACK
6
CONTINUOUS
10
7.48225
20
-3.20803
11
7.47886
21
-3.2087
0
LINE
8
BLACK
6
CONTINUOUS
10
7.47886
20
-3.2087
11
7.46114
21
-3.2087
0
LINE
8
BLACK
6
CONTINUOUS
10
7.46114
20
-3.2087
11
7.45775
21
-3.20803
0
LINE
8
BLACK
6
CONTINUOUS
10
7.45775
20
-3.20803
11
7.45488
21
-3.20611
0
LINE
8
BLACK
6
CONTINUOUS
10
7.45488
20
-3.20611
11
7.45296
21
-3.20323
0
LINE
8
BLACK
6
CONTINUOUS
10
7.45296
20
-3.20323
11
7.45228
21
-3.19984
0
LINE
8
BLACK
6
CONTINUOUS
10
7.45228
20
-3.19984
11
7.45228
21
-3.18016
0
LINE
8
BLACK
6
CONTINUOUS
10
7.45228
20
-3.18016
11
7.45296
21
-3.17677
0
LINE
8
BLACK
6
CONTINUOUS
10
7.45296
20
-3.17677
11
7.45488
21
-3.17389
0
LINE
8
BLACK
6
CONTINUOUS
10
7.45488
20
-3.17389
11
7.45775
21
-3.17197
0
LINE
8
BLACK
6
CONTINUOUS
10
7.45775
20
-3.17197
11
7.46114
21
-3.1713
0
LINE
8
BLACK
6
CONTINUOUS
10
7.46114
20
-3.1713
11
7.47886
21
-3.1713
0
LINE
8
BLACK
6
CONTINUOUS
10
7.47886
20
-3.1713
11
7.48225
21
-3.17197
0
LINE
8
BLACK
6
CONTINUOUS
10
7.48225
20
-3.05197
11
7.48512
21
-3.05389
0
LINE
8
BLACK
6
CONTINUOUS
10
7.48512
20
-3.05389
11
7.48704
21
-3.05677
0
LINE
8
BLACK
6
CONTINUOUS
10
7.48704
20
-3.05677
11
7.48772
21
-3.06016
0
LINE
8
BLACK
6
CONTINUOUS
10
7.48772
20
-3.06016
11
7.48772
21
-3.07984
0
LINE
8
BLACK
6
CONTINUOUS
10
7.48772
20
-3.07984
11
7.48704
21
-3.08323
0
LINE
8
BLACK
6
CONTINUOUS
10
7.48704
20
-3.08323
11
7.48512
21
-3.08611
0
LINE
8
BLACK
6
CONTINUOUS
10
7.48512
20
-3.08611
11
7.48225
21
-3.08803
0
LINE
8
BLACK
6
CONTINUOUS
10
7.48225
20
-3.08803
11
7.47886
21
-3.0887
0
LINE
8
BLACK
6
CONTINUOUS
10
7.47886
20
-3.0887
11
7.46114
21
-3.0887
0
LINE
8
BLACK
6
CONTINUOUS
10
7.46114
20
-3.0887
11
7.45775
21
-3.08803
0
LINE
8
BLACK
6
CONTINUOUS
10
7.45775
20
-3.08803
11
7.45488
21
-3.08611
0
LINE
8
BLACK
6
CONTINUOUS
10
7.45488
20
-3.08611
11
7.45296
21
-3.08323
0
LINE
8
BLACK
6
CONTINUOUS
10
7.45296
20
-3.08323
11
7.45228
21
-3.07984
0
LINE
8
BLACK
6
CONTINUOUS
10
7.45228
20
-3.07984
11
7.45228
21
-3.06016
0
LINE
8
BLACK
6
CONTINUOUS
10
7.45228
20
-3.06016
11
7.45296
21
-3.05677
0
LINE
8
BLACK
6
CONTINUOUS
10
7.45296
20
-3.05677
11
7.45488
21
-3.05389
0
LINE
8
BLACK
6
CONTINUOUS
10
7.45488
20
-3.05389
11
7.45775
21
-3.05197
0
LINE
8
BLACK
6
CONTINUOUS
10
7.45775
20
-3.05197
11
7.46114
21
-3.0513
0
LINE
8
BLACK
6
CONTINUOUS
10
7.46114
20
-3.0513
11
7.47886
21
-3.0513
0
LINE
8
BLACK
6
CONTINUOUS
10
7.47886
20
-3.0513
11
7.48225
21
-3.05197
0
LINE
8
BLACK
6
CONTINUOUS
10
7.54327
20
-3.05197
11
7.54615
21
-3.05389
0
LINE
8
BLACK
6
CONTINUOUS
10
7.54615
20
-3.05389
11
7.54807
21
-3.05677
0
LINE
8
BLACK
6
CONTINUOUS
10
7.54807
20
-3.05677
11
7.54874
21
-3.06016
0
LINE
8
BLACK
6
CONTINUOUS
10
7.54874
20
-3.06016
11
7.54874
21
-3.07984
0
LINE
8
BLACK
6
CONTINUOUS
10
7.54874
20
-3.07984
11
7.54807
21
-3.08323
0
LINE
8
BLACK
6
CONTINUOUS
10
7.54807
20
-3.08323
11
7.54615
21
-3.08611
0
LINE
8
BLACK
6
CONTINUOUS
10
7.54615
20
-3.08611
11
7.54327
21
-3.08803
0
LINE
8
BLACK
6
CONTINUOUS
10
7.54327
20
-3.08803
11
7.53988
21
-3.0887
0
LINE
8
BLACK
6
CONTINUOUS
10
7.53988
20
-3.0887
11
7.52217
21
-3.0887
0
LINE
8
BLACK
6
CONTINUOUS
10
7.52217
20
-3.0887
11
7.51878
21
-3.08803
0
LINE
8
BLACK
6
CONTINUOUS
10
7.51878
20
-3.08803
11
7.5159
21
-3.08611
0
LINE
8
BLACK
6
CONTINUOUS
10
7.5159
20
-3.08611
11
7.51398
21
-3.08323
0
LINE
8
BLACK
6
CONTINUOUS
10
7.51398
20
-3.08323
11
7.51331
21
-3.07984
0
LINE
8
BLACK
6
CONTINUOUS
10
7.51331
20
-3.07984
11
7.51331
21
-3.06016
0
LINE
8
BLACK
6
CONTINUOUS
10
7.51331
20
-3.06016
11
7.51398
21
-3.05677
0
LINE
8
BLACK
6
CONTINUOUS
10
7.51398
20
-3.05677
11
7.5159
21
-3.05389
0
LINE
8
BLACK
6
CONTINUOUS
10
7.5159
20
-3.05389
11
7.51878
21
-3.05197
0
LINE
8
BLACK
6
CONTINUOUS
10
7.51878
20
-3.05197
11
7.52217
21
-3.0513
0
LINE
8
BLACK
6
CONTINUOUS
10
7.52217
20
-3.0513
11
7.53988
21
-3.0513
0
LINE
8
BLACK
6
CONTINUOUS
10
7.53988
20
-3.0513
11
7.54327
21
-3.05197
0
LINE
8
BLACK
6
CONTINUOUS
10
7.07174
20
-3.04197
11
7.07461
21
-3.04389
0
LINE
8
BLACK
6
CONTINUOUS
10
7.07461
20
-3.04389
11
7.07653
21
-3.04677
0
LINE
8
BLACK
6
CONTINUOUS
10
7.07653
20
-3.04677
11
7.0772
21
-3.05016
0
LINE
8
BLACK
6
CONTINUOUS
10
7.0772
20
-3.05016
11
7.0772
21
-3.06984
0
LINE
8
BLACK
6
CONTINUOUS
10
7.0772
20
-3.06984
11
7.07653
21
-3.07323
0
LINE
8
BLACK
6
CONTINUOUS
10
7.07653
20
-3.07323
11
7.07461
21
-3.07611
0
LINE
8
BLACK
6
CONTINUOUS
10
7.07461
20
-3.07611
11
7.07174
21
-3.07803
0
LINE
8
BLACK
6
CONTINUOUS
10
7.07174
20
-3.07803
11
7.06835
21
-3.0787
0
LINE
8
BLACK
6
CONTINUOUS
10
7.06835
20
-3.0787
11
7.05063
21
-3.0787
0
LINE
8
BLACK
6
CONTINUOUS
10
7.05063
20
-3.0787
11
7.04724
21
-3.07803
0
LINE
8
BLACK
6
CONTINUOUS
10
7.04724
20
-3.07803
11
7.04437
21
-3.07611
0
LINE
8
BLACK
6
CONTINUOUS
10
7.04437
20
-3.07611
11
7.04245
21
-3.07323
0
LINE
8
BLACK
6
CONTINUOUS
10
7.04245
20
-3.07323
11
7.04177
21
-3.06984
0
LINE
8
BLACK
6
CONTINUOUS
10
7.04177
20
-3.06984
11
7.04177
21
-3.05016
0
LINE
8
BLACK
6
CONTINUOUS
10
7.04177
20
-3.05016
11
7.04245
21
-3.04677
0
LINE
8
BLACK
6
CONTINUOUS
10
7.04245
20
-3.04677
11
7.04437
21
-3.04389
0
LINE
8
BLACK
6
CONTINUOUS
10
7.04437
20
-3.04389
11
7.04724
21
-3.04197
0
LINE
8
BLACK
6
CONTINUOUS
10
7.04724
20
-3.04197
11
7.05063
21
-3.0413
0
LINE
8
BLACK
6
CONTINUOUS
10
7.05063
20
-3.0413
11
7.06835
21
-3.0413
0
LINE
8
BLACK
6
CONTINUOUS
10
7.06835
20
-3.0413
11
7.07174
21
-3.04197
0
LINE
8
BLACK
6
CONTINUOUS
10
7.13276
20
-3.04197
11
7.13563
21
-3.04389
0
LINE
8
BLACK
6
CONTINUOUS
10
7.13563
20
-3.04389
11
7.13755
21
-3.04677
0
LINE
8
BLACK
6
CONTINUOUS
10
7.13755
20
-3.04677
11
7.13823
21
-3.05016
0
LINE
8
BLACK
6
CONTINUOUS
10
7.13823
20
-3.05016
11
7.13823
21
-3.06984
0
LINE
8
BLACK
6
CONTINUOUS
10
7.13823
20
-3.06984
11
7.13755
21
-3.07323
0
LINE
8
BLACK
6
CONTINUOUS
10
7.13755
20
-3.07323
11
7.13563
21
-3.07611
0
LINE
8
BLACK
6
CONTINUOUS
10
7.13563
20
-3.07611
11
7.13276
21
-3.07803
0
LINE
8
BLACK
6
CONTINUOUS
10
7.13276
20
-3.07803
11
7.12937
21
-3.0787
0
LINE
8
BLACK
6
CONTINUOUS
10
7.12937
20
-3.0787
11
7.11165
21
-3.0787
0
LINE
8
BLACK
6
CONTINUOUS
10
7.11165
20
-3.0787
11
7.10826
21
-3.07803
0
LINE
8
BLACK
6
CONTINUOUS
10
7.10826
20
-3.07803
11
7.10539
21
-3.07611
0
LINE
8
BLACK
6
CONTINUOUS
10
7.10539
20
-3.07611
11
7.10347
21
-3.07323
0
LINE
8
BLACK
6
CONTINUOUS
10
7.10347
20
-3.07323
11
7.1028
21
-3.06984
0
LINE
8
BLACK
6
CONTINUOUS
10
7.1028
20
-3.06984
11
7.1028
21
-3.05016
0
LINE
8
BLACK
6
CONTINUOUS
10
7.1028
20
-3.05016
11
7.10347
21
-3.04677
0
LINE
8
BLACK
6
CONTINUOUS
10
7.10347
20
-3.04677
11
7.10539
21
-3.04389
0
LINE
8
BLACK
6
CONTINUOUS
10
7.10539
20
-3.04389
11
7.10826
21
-3.04197
0
LINE
8
BLACK
6
CONTINUOUS
10
7.10826
20
-3.04197
11
7.11165
21
-3.0413
0
LINE
8
BLACK
6
CONTINUOUS
10
7.11165
20
-3.0413
11
7.12937
21
-3.0413
0
LINE
8
BLACK
6
CONTINUOUS
10
7.12937
20
-3.0413
11
7.13276
21
-3.04197
0
LINE
8
BLACK
6
CONTINUOUS
10
7.07323
20
-2.98296
11
7.07611
21
-2.98488
0
LINE
8
BLACK
6
CONTINUOUS
10
7.07611
20
-2.98488
11
7.07803
21
-2.98775
0
LINE
8
BLACK
6
CONTINUOUS
10
7.07803
20
-2.98775
11
7.0787
21
-2.99114
0
LINE
8
BLACK
6
CONTINUOUS
10
7.0787
20
-2.99114
11
7.0787
21
-3.00886
0
LINE
8
BLACK
6
CONTINUOUS
10
7.0787
20
-3.00886
11
7.07803
21
-3.01225
0
LINE
8
BLACK
6
CONTINUOUS
10
7.07803
20
-3.01225
11
7.07611
21
-3.01512
0
LINE
8
BLACK
6
CONTINUOUS
10
7.07611
20
-3.01512
11
7.07323
21
-3.01704
0
LINE
8
BLACK
6
CONTINUOUS
10
7.07323
20
-3.01704
11
7.06984
21
-3.01772
0
LINE
8
BLACK
6
CONTINUOUS
10
7.06984
20
-3.01772
11
7.05016
21
-3.01772
0
LINE
8
BLACK
6
CONTINUOUS
10
7.05016
20
-3.01772
11
7.04677
21
-3.01704
0
LINE
8
BLACK
6
CONTINUOUS
10
7.04677
20
-3.01704
11
7.04389
21
-3.01512
0
LINE
8
BLACK
6
CONTINUOUS
10
7.04389
20
-3.01512
11
7.04197
21
-3.01225
0
LINE
8
BLACK
6
CONTINUOUS
10
7.04197
20
-3.01225
11
7.0413
21
-3.00886
0
LINE
8
BLACK
6
CONTINUOUS
10
7.0413
20
-3.00886
11
7.0413
21
-2.99114
0
LINE
8
BLACK
6
CONTINUOUS
10
7.0413
20
-2.99114
11
7.04197
21
-2.98775
0
LINE
8
BLACK
6
CONTINUOUS
10
7.04197
20
-2.98775
11
7.04389
21
-2.98488
0
LINE
8
BLACK
6
CONTINUOUS
10
7.04389
20
-2.98488
11
7.04677
21
-2.98296
0
LINE
8
BLACK
6
CONTINUOUS
10
7.04677
20
-2.98296
11
7.05016
21
-2.98228
0
LINE
8
BLACK
6
CONTINUOUS
10
7.05016
20
-2.98228
11
7.06984
21
-2.98228
0
LINE
8
BLACK
6
CONTINUOUS
10
7.06984
20
-2.98228
11
7.07323
21
-2.98296
0
LINE
8
BLACK
6
CONTINUOUS
10
7.54327
20
-2.93197
11
7.54615
21
-2.93389
0
LINE
8
BLACK
6
CONTINUOUS
10
7.54615
20
-2.93389
11
7.54807
21
-2.93677
0
LINE
8
BLACK
6
CONTINUOUS
10
7.54807
20
-2.93677
11
7.54874
21
-2.94016
0
LINE
8
BLACK
6
CONTINUOUS
10
7.54874
20
-2.94016
11
7.54874
21
-2.95984
0
LINE
8
BLACK
6
CONTINUOUS
10
7.54874
20
-2.95984
11
7.54807
21
-2.96323
0
LINE
8
BLACK
6
CONTINUOUS
10
7.54807
20
-2.96323
11
7.54615
21
-2.96611
0
LINE
8
BLACK
6
CONTINUOUS
10
7.54615
20
-2.96611
11
7.54327
21
-2.96803
0
LINE
8
BLACK
6
CONTINUOUS
10
7.54327
20
-2.96803
11
7.53988
21
-2.9687
0
LINE
8
BLACK
6
CONTINUOUS
10
7.53988
20
-2.9687
11
7.52217
21
-2.9687
0
LINE
8
BLACK
6
CONTINUOUS
10
7.52217
20
-2.9687
11
7.51878
21
-2.96803
0
LINE
8
BLACK
6
CONTINUOUS
10
7.51878
20
-2.96803
11
7.5159
21
-2.96611
0
LINE
8
BLACK
6
CONTINUOUS
10
7.5159
20
-2.96611
11
7.51398
21
-2.96323
0
LINE
8
BLACK
6
CONTINUOUS
10
7.51398
20
-2.96323
11
7.51331
21
-2.95984
0
LINE
8
BLACK
6
CONTINUOUS
10
7.51331
20
-2.95984
11
7.51331
21
-2.94016
0
LINE
8
BLACK
6
CONTINUOUS
10
7.51331
20
-2.94016
11
7.51398
21
-2.93677
0
LINE
8
BLACK
6
CONTINUOUS
10
7.51398
20
-2.93677
11
7.5159
21
-2.93389
0
LINE
8
BLACK
6
CONTINUOUS
10
7.5159
20
-2.93389
11
7.51878
21
-2.93197
0
LINE
8
BLACK
6
CONTINUOUS
10
7.51878
20
-2.93197
11
7.52217
21
-2.9313
0
LINE
8
BLACK
6
CONTINUOUS
10
7.52217
20
-2.9313
11
7.53988
21
-2.9313
0
LINE
8
BLACK
6
CONTINUOUS
10
7.53988
20
-2.9313
11
7.54327
21
-2.93197
0
LINE
8
BLACK
6
CONTINUOUS
10
7.48225
20
-2.93197
11
7.48512
21
-2.93389
0
LINE
8
BLACK
6
CONTINUOUS
10
7.48512
20
-2.93389
11
7.48704
21
-2.93677
0
LINE
8
BLACK
6
CONTINUOUS
10
7.48704
20
-2.93677
11
7.48772
21
-2.94016
0
LINE
8
BLACK
6
CONTINUOUS
10
7.48772
20
-2.94016
11
7.48772
21
-2.95984
0
LINE
8
BLACK
6
CONTINUOUS
10
7.48772
20
-2.95984
11
7.48704
21
-2.96323
0
LINE
8
BLACK
6
CONTINUOUS
10
7.48704
20
-2.96323
11
7.48512
21
-2.96611
0
LINE
8
BLACK
6
CONTINUOUS
10
7.48512
20
-2.96611
11
7.48225
21
-2.96803
0
LINE
8
BLACK
6
CONTINUOUS
10
7.48225
20
-2.96803
11
7.47886
21
-2.9687
0
LINE
8
BLACK
6
CONTINUOUS
10
7.47886
20
-2.9687
11
7.46114
21
-2.9687
0
LINE
8
BLACK
6
CONTINUOUS
10
7.46114
20
-2.9687
11
7.45775
21
-2.96803
0
LINE
8
BLACK
6
CONTINUOUS
10
7.45775
20
-2.96803
11
7.45488
21
-2.96611
0
LINE
8
BLACK
6
CONTINUOUS
10
7.45488
20
-2.96611
11
7.45296
21
-2.96323
0
LINE
8
BLACK
6
CONTINUOUS
10
7.45296
20
-2.96323
11
7.45228
21
-2.95984
0
LINE
8
BLACK
6
CONTINUOUS
10
7.45228
20
-2.95984
11
7.45228
21
-2.94016
0
LINE
8
BLACK
6
CONTINUOUS
10
7.45228
20
-2.94016
11
7.45296
21
-2.93677
0
LINE
8
BLACK
6
CONTINUOUS
10
7.45296
20
-2.93677
11
7.45488
21
-2.93389
0
LINE
8
BLACK
6
CONTINUOUS
10
7.45488
20
-2.93389
11
7.45775
21
-2.93197
0
LINE
8
BLACK
6
CONTINUOUS
10
7.45775
20
-2.93197
11
7.46114
21
-2.9313
0
LINE
8
BLACK
6
CONTINUOUS
10
7.46114
20
-2.9313
11
7.47886
21
-2.9313
0
LINE
8
BLACK
6
CONTINUOUS
10
7.47886
20
-2.9313
11
7.48225
21
-2.93197
0
LINE
8
BLACK
6
CONTINUOUS
10
7.07323
20
-2.92193
11
7.07611
21
-2.92385
0
LINE
8
BLACK
6
CONTINUOUS
10
7.07611
20
-2.92385
11
7.07803
21
-2.92673
0
LINE
8
BLACK
6
CONTINUOUS
10
7.07803
20
-2.92673
11
7.0787
21
-2.93012
0
LINE
8
BLACK
6
CONTINUOUS
10
7.0787
20
-2.93012
11
7.0787
21
-2.94783
0
LINE
8
BLACK
6
CONTINUOUS
10
7.0787
20
-2.94783
11
7.07803
21
-2.95122
0
LINE
8
BLACK
6
CONTINUOUS
10
7.07803
20
-2.95122
11
7.07611
21
-2.9541
0
LINE
8
BLACK
6
CONTINUOUS
10
7.07611
20
-2.9541
11
7.07323
21
-2.95602
0
LINE
8
BLACK
6
CONTINUOUS
10
7.07323
20
-2.95602
11
7.06984
21
-2.95669
0
LINE
8
BLACK
6
CONTINUOUS
10
7.06984
20
-2.95669
11
7.05016
21
-2.95669
0
LINE
8
BLACK
6
CONTINUOUS
10
7.05016
20
-2.95669
11
7.04677
21
-2.95602
0
LINE
8
BLACK
6
CONTINUOUS
10
7.04677
20
-2.95602
11
7.04389
21
-2.9541
0
LINE
8
BLACK
6
CONTINUOUS
10
7.04389
20
-2.9541
11
7.04197
21
-2.95122
0
LINE
8
BLACK
6
CONTINUOUS
10
7.04197
20
-2.95122
11
7.0413
21
-2.94783
0
LINE
8
BLACK
6
CONTINUOUS
10
7.0413
20
-2.94783
11
7.0413
21
-2.93012
0
LINE
8
BLACK
6
CONTINUOUS
10
7.0413
20
-2.93012
11
7.04197
21
-2.92673
0
LINE
8
BLACK
6
CONTINUOUS
10
7.04197
20
-2.92673
11
7.04389
21
-2.92385
0
LINE
8
BLACK
6
CONTINUOUS
10
7.04389
20
-2.92385
11
7.04677
21
-2.92193
0
LINE
8
BLACK
6
CONTINUOUS
10
7.04677
20
-2.92193
11
7.05016
21
-2.92126
0
LINE
8
BLACK
6
CONTINUOUS
10
7.05016
20
-2.92126
11
7.06984
21
-2.92126
0
LINE
8
BLACK
6
CONTINUOUS
10
7.06984
20
-2.92126
11
7.07323
21
-2.92193
0
LINE
8
BLACK
6
CONTINUOUS
10
7.48225
20
-2.87197
11
7.48512
21
-2.87389
0
LINE
8
BLACK
6
CONTINUOUS
10
7.48512
20
-2.87389
11
7.48704
21
-2.87677
0
LINE
8
BLACK
6
CONTINUOUS
10
7.48704
20
-2.87677
11
7.48772
21
-2.88016
0
LINE
8
BLACK
6
CONTINUOUS
10
7.48772
20
-2.88016
11
7.48772
21
-2.89984
0
LINE
8
BLACK
6
CONTINUOUS
10
7.48772
20
-2.89984
11
7.48704
21
-2.90323
0
LINE
8
BLACK
6
CONTINUOUS
10
7.48704
20
-2.90323
11
7.48512
21
-2.90611
0
LINE
8
BLACK
6
CONTINUOUS
10
7.48512
20
-2.90611
11
7.48225
21
-2.90803
0
LINE
8
BLACK
6
CONTINUOUS
10
7.48225
20
-2.90803
11
7.47886
21
-2.9087
0
LINE
8
BLACK
6
CONTINUOUS
10
7.47886
20
-2.9087
11
7.46114
21
-2.9087
0
LINE
8
BLACK
6
CONTINUOUS
10
7.46114
20
-2.9087
11
7.45775
21
-2.90803
0
LINE
8
BLACK
6
CONTINUOUS
10
7.45775
20
-2.90803
11
7.45488
21
-2.90611
0
LINE
8
BLACK
6
CONTINUOUS
10
7.45488
20
-2.90611
11
7.45296
21
-2.90323
0
LINE
8
BLACK
6
CONTINUOUS
10
7.45296
20
-2.90323
11
7.45228
21
-2.89984
0
LINE
8
BLACK
6
CONTINUOUS
10
7.45228
20
-2.89984
11
7.45228
21
-2.88016
0
LINE
8
BLACK
6
CONTINUOUS
10
7.45228
20
-2.88016
11
7.45296
21
-2.87677
0
LINE
8
BLACK
6
CONTINUOUS
10
7.45296
20
-2.87677
11
7.45488
21
-2.87389
0
LINE
8
BLACK
6
CONTINUOUS
10
7.45488
20
-2.87389
11
7.45775
21
-2.87197
0
LINE
8
BLACK
6
CONTINUOUS
10
7.45775
20
-2.87197
11
7.46114
21
-2.8713
0
LINE
8
BLACK
6
CONTINUOUS
10
7.46114
20
-2.8713
11
7.47886
21
-2.8713
0
LINE
8
BLACK
6
CONTINUOUS
10
7.47886
20
-2.8713
11
7.48225
21
-2.87197
0
LINE
8
BLACK
6
CONTINUOUS
10
7.54327
20
-2.87197
11
7.54615
21
-2.87389
0
LINE
8
BLACK
6
CONTINUOUS
10
7.54615
20
-2.87389
11
7.54807
21
-2.87677
0
LINE
8
BLACK
6
CONTINUOUS
10
7.54807
20
-2.87677
11
7.54874
21
-2.88016
0
LINE
8
BLACK
6
CONTINUOUS
10
7.54874
20
-2.88016
11
7.54874
21
-2.89984
0
LINE
8
BLACK
6
CONTINUOUS
10
7.54874
20
-2.89984
11
7.54807
21
-2.90323
0
LINE
8
BLACK
6
CONTINUOUS
10
7.54807
20
-2.90323
11
7.54615
21
-2.90611
0
LINE
8
BLACK
6
CONTINUOUS
10
7.54615
20
-2.90611
11
7.54327
21
-2.90803
0
LINE
8
BLACK
6
CONTINUOUS
10
7.54327
20
-2.90803
11
7.53988
21
-2.9087
0
LINE
8
BLACK
6
CONTINUOUS
10
7.53988
20
-2.9087
11
7.52217
21
-2.9087
0
LINE
8
BLACK
6
CONTINUOUS
10
7.52217
20
-2.9087
11
7.51878
21
-2.90803
0
LINE
8
BLACK
6
CONTINUOUS
10
7.51878
20
-2.90803
11
7.5159
21
-2.90611
0
LINE
8
BLACK
6
CONTINUOUS
10
7.5159
20
-2.90611
11
7.51398
21
-2.90323
0
LINE
8
BLACK
6
CONTINUOUS
10
7.51398
20
-2.90323
11
7.51331
21
-2.89984
0
LINE
8
BLACK
6
CONTINUOUS
10
7.51331
20
-2.89984
11
7.51331
21
-2.88016
0
LINE
8
BLACK
6
CONTINUOUS
10
7.51331
20
-2.88016
11
7.51398
21
-2.87677
0
LINE
8
BLACK
6
CONTINUOUS
10
7.51398
20
-2.87677
11
7.5159
21
-2.87389
0
LINE
8
BLACK
6
CONTINUOUS
10
7.5159
20
-2.87389
11
7.51878
21
-2.87197
0
LINE
8
BLACK
6
CONTINUOUS
10
7.51878
20
-2.87197
11
7.52217
21
-2.8713
0
LINE
8
BLACK
6
CONTINUOUS
10
7.52217
20
-2.8713
11
7.53988
21
-2.8713
0
LINE
8
BLACK
6
CONTINUOUS
10
7.53988
20
-2.8713
11
7.54327
21
-2.87197
0
LINE
8
BLACK
6
CONTINUOUS
10
7.42323
20
-2.86398
11
7.42611
21
-2.8659
0
LINE
8
BLACK
6
CONTINUOUS
10
7.42611
20
-2.8659
11
7.42803
21
-2.86878
0
LINE
8
BLACK
6
CONTINUOUS
10
7.42803
20
-2.86878
11
7.4287
21
-2.87217
0
LINE
8
BLACK
6
CONTINUOUS
10
7.4287
20
-2.87217
11
7.4287
21
-2.88988
0
LINE
8
BLACK
6
CONTINUOUS
10
7.4287
20
-2.88988
11
7.42803
21
-2.89327
0
LINE
8
BLACK
6
CONTINUOUS
10
7.42803
20
-2.89327
11
7.42611
21
-2.89615
0
LINE
8
BLACK
6
CONTINUOUS
10
7.42611
20
-2.89615
11
7.42323
21
-2.89807
0
LINE
8
BLACK
6
CONTINUOUS
10
7.42323
20
-2.89807
11
7.41984
21
-2.89874
0
LINE
8
BLACK
6
CONTINUOUS
10
7.41984
20
-2.89874
11
7.40016
21
-2.89874
0
LINE
8
BLACK
6
CONTINUOUS
10
7.40016
20
-2.89874
11
7.39677
21
-2.89807
0
LINE
8
BLACK
6
CONTINUOUS
10
7.39677
20
-2.89807
11
7.39389
21
-2.89615
0
LINE
8
BLACK
6
CONTINUOUS
10
7.39389
20
-2.89615
11
7.39197
21
-2.89327
0
LINE
8
BLACK
6
CONTINUOUS
10
7.39197
20
-2.89327
11
7.3913
21
-2.88988
0
LINE
8
BLACK
6
CONTINUOUS
10
7.3913
20
-2.88988
11
7.3913
21
-2.87217
0
LINE
8
BLACK
6
CONTINUOUS
10
7.3913
20
-2.87217
11
7.39197
21
-2.86878
0
LINE
8
BLACK
6
CONTINUOUS
10
7.39197
20
-2.86878
11
7.39389
21
-2.8659
0
LINE
8
BLACK
6
CONTINUOUS
10
7.39389
20
-2.8659
11
7.39677
21
-2.86398
0
LINE
8
BLACK
6
CONTINUOUS
10
7.39677
20
-2.86398
11
7.40016
21
-2.86331
0
LINE
8
BLACK
6
CONTINUOUS
10
7.40016
20
-2.86331
11
7.41984
21
-2.86331
0
LINE
8
BLACK
6
CONTINUOUS
10
7.41984
20
-2.86331
11
7.42323
21
-2.86398
0
LINE
8
BLACK
6
CONTINUOUS
10
7.07323
20
-2.86398
11
7.07611
21
-2.8659
0
LINE
8
BLACK
6
CONTINUOUS
10
7.07611
20
-2.8659
11
7.07803
21
-2.86878
0
LINE
8
BLACK
6
CONTINUOUS
10
7.07803
20
-2.86878
11
7.0787
21
-2.87217
0
LINE
8
BLACK
6
CONTINUOUS
10
7.0787
20
-2.87217
11
7.0787
21
-2.88988
0
LINE
8
BLACK
6
CONTINUOUS
10
7.0787
20
-2.88988
11
7.07803
21
-2.89327
0
LINE
8
BLACK
6
CONTINUOUS
10
7.07803
20
-2.89327
11
7.07611
21
-2.89615
0
LINE
8
BLACK
6
CONTINUOUS
10
7.07611
20
-2.89615
11
7.07323
21
-2.89807
0
LINE
8
BLACK
6
CONTINUOUS
10
7.07323
20
-2.89807
11
7.06984
21
-2.89874
0
LINE
8
BLACK
6
CONTINUOUS
10
7.06984
20
-2.89874
11
7.05016
21
-2.89874
0
LINE
8
BLACK
6
CONTINUOUS
10
7.05016
20
-2.89874
11
7.04677
21
-2.89807
0
LINE
8
BLACK
6
CONTINUOUS
10
7.04677
20
-2.89807
11
7.04389
21
-2.89615
0
LINE
8
BLACK
6
CONTINUOUS
10
7.04389
20
-2.89615
11
7.04197
21
-2.89327
0
LINE
8
BLACK
6
CONTINUOUS
10
7.04197
20
-2.89327
11
7.0413
21
-2.88988
0
LINE
8
BLACK
6
CONTINUOUS
10
7.0413
20
-2.88988
11
7.0413
21
-2.87217
0
LINE
8
BLACK
6
CONTINUOUS
10
7.0413
20
-2.87217
11
7.04197
21
-2.86878
0
LINE
8
BLACK
6
CONTINUOUS
10
7.04197
20
-2.86878
11
7.04389
21
-2.8659
0
LINE
8
BLACK
6
CONTINUOUS
10
7.04389
20
-2.8659
11
7.04677
21
-2.86398
0
LINE
8
BLACK
6
CONTINUOUS
10
7.04677
20
-2.86398
11
7.05016
21
-2.86331
0
LINE
8
BLACK
6
CONTINUOUS
10
7.05016
20
-2.86331
11
7.06984
21
-2.86331
0
LINE
8
BLACK
6
CONTINUOUS
10
7.06984
20
-2.86331
11
7.07323
21
-2.86398
0
LINE
8
BLACK
6
CONTINUOUS
10
7.13323
20
-2.86398
11
7.13611
21
-2.8659
0
LINE
8
BLACK
6
CONTINUOUS
10
7.13611
20
-2.8659
11
7.13803
21
-2.86878
0
LINE
8
BLACK
6
CONTINUOUS
10
7.13803
20
-2.86878
11
7.1387
21
-2.87217
0
LINE
8
BLACK
6
CONTINUOUS
10
7.1387
20
-2.87217
11
7.1387
21
-2.88988
0
LINE
8
BLACK
6
CONTINUOUS
10
7.1387
20
-2.88988
11
7.13803
21
-2.89327
0
LINE
8
BLACK
6
CONTINUOUS
10
7.13803
20
-2.89327
11
7.13611
21
-2.89615
0
LINE
8
BLACK
6
CONTINUOUS
10
7.13611
20
-2.89615
11
7.13323
21
-2.89807
0
LINE
8
BLACK
6
CONTINUOUS
10
7.13323
20
-2.89807
11
7.12984
21
-2.89874
0
LINE
8
BLACK
6
CONTINUOUS
10
7.12984
20
-2.89874
11
7.11016
21
-2.89874
0
LINE
8
BLACK
6
CONTINUOUS
10
7.11016
20
-2.89874
11
7.10677
21
-2.89807
0
LINE
8
BLACK
6
CONTINUOUS
10
7.10677
20
-2.89807
11
7.10389
21
-2.89615
0
LINE
8
BLACK
6
CONTINUOUS
10
7.10389
20
-2.89615
11
7.10197
21
-2.89327
0
LINE
8
BLACK
6
CONTINUOUS
10
7.10197
20
-2.89327
11
7.1013
21
-2.88988
0
LINE
8
BLACK
6
CONTINUOUS
10
7.1013
20
-2.88988
11
7.1013
21
-2.87217
0
LINE
8
BLACK
6
CONTINUOUS
10
7.1013
20
-2.87217
11
7.10197
21
-2.86878
0
LINE
8
BLACK
6
CONTINUOUS
10
7.10197
20
-2.86878
11
7.10389
21
-2.8659
0
LINE
8
BLACK
6
CONTINUOUS
10
7.10389
20
-2.8659
11
7.10677
21
-2.86398
0
LINE
8
BLACK
6
CONTINUOUS
10
7.10677
20
-2.86398
11
7.11016
21
-2.86331
0
LINE
8
BLACK
6
CONTINUOUS
10
7.11016
20
-2.86331
11
7.12984
21
-2.86331
0
LINE
8
BLACK
6
CONTINUOUS
10
7.12984
20
-2.86331
11
7.13323
21
-2.86398
0
LINE
8
BLACK
6
CONTINUOUS
10
7.19323
20
-2.86347
11
7.19611
21
-2.86539
0
LINE
8
BLACK
6
CONTINUOUS
10
7.19611
20
-2.86539
11
7.19803
21
-2.86826
0
LINE
8
BLACK
6
CONTINUOUS
10
7.19803
20
-2.86826
11
7.1987
21
-2.87165
0
LINE
8
BLACK
6
CONTINUOUS
10
7.1987
20
-2.87165
11
7.1987
21
-2.88937
0
LINE
8
BLACK
6
CONTINUOUS
10
7.1987
20
-2.88937
11
7.19803
21
-2.89276
0
LINE
8
BLACK
6
CONTINUOUS
10
7.19803
20
-2.89276
11
7.19611
21
-2.89563
0
LINE
8
BLACK
6
CONTINUOUS
10
7.19611
20
-2.89563
11
7.19323
21
-2.89755
0
LINE
8
BLACK
6
CONTINUOUS
10
7.19323
20
-2.89755
11
7.18984
21
-2.89823
0
LINE
8
BLACK
6
CONTINUOUS
10
7.18984
20
-2.89823
11
7.17016
21
-2.89823
0
LINE
8
BLACK
6
CONTINUOUS
10
7.17016
20
-2.89823
11
7.16677
21
-2.89755
0
LINE
8
BLACK
6
CONTINUOUS
10
7.16677
20
-2.89755
11
7.16389
21
-2.89563
0
LINE
8
BLACK
6
CONTINUOUS
10
7.16389
20
-2.89563
11
7.16197
21
-2.89276
0
LINE
8
BLACK
6
CONTINUOUS
10
7.16197
20
-2.89276
11
7.1613
21
-2.88937
0
LINE
8
BLACK
6
CONTINUOUS
10
7.1613
20
-2.88937
11
7.1613
21
-2.87165
0
LINE
8
BLACK
6
CONTINUOUS
10
7.1613
20
-2.87165
11
7.16197
21
-2.86826
0
LINE
8
BLACK
6
CONTINUOUS
10
7.16197
20
-2.86826
11
7.16389
21
-2.86539
0
LINE
8
BLACK
6
CONTINUOUS
10
7.16389
20
-2.86539
11
7.16677
21
-2.86347
0
LINE
8
BLACK
6
CONTINUOUS
10
7.16677
20
-2.86347
11
7.17016
21
-2.8628
0
LINE
8
BLACK
6
CONTINUOUS
10
7.17016
20
-2.8628
11
7.18984
21
-2.8628
0
LINE
8
BLACK
6
CONTINUOUS
10
7.18984
20
-2.8628
11
7.19323
21
-2.86347
0
LINE
8
BLACK
6
CONTINUOUS
10
7.25323
20
-2.86347
11
7.25611
21
-2.86539
0
LINE
8
BLACK
6
CONTINUOUS
10
7.25611
20
-2.86539
11
7.25803
21
-2.86826
0
LINE
8
BLACK
6
CONTINUOUS
10
7.25803
20
-2.86826
11
7.2587
21
-2.87165
0
LINE
8
BLACK
6
CONTINUOUS
10
7.2587
20
-2.87165
11
7.2587
21
-2.88937
0
LINE
8
BLACK
6
CONTINUOUS
10
7.2587
20
-2.88937
11
7.25803
21
-2.89276
0
LINE
8
BLACK
6
CONTINUOUS
10
7.25803
20
-2.89276
11
7.25611
21
-2.89563
0
LINE
8
BLACK
6
CONTINUOUS
10
7.25611
20
-2.89563
11
7.25323
21
-2.89755
0
LINE
8
BLACK
6
CONTINUOUS
10
7.25323
20
-2.89755
11
7.24984
21
-2.89823
0
LINE
8
BLACK
6
CONTINUOUS
10
7.24984
20
-2.89823
11
7.23016
21
-2.89823
0
LINE
8
BLACK
6
CONTINUOUS
10
7.23016
20
-2.89823
11
7.22677
21
-2.89755
0
LINE
8
BLACK
6
CONTINUOUS
10
7.22677
20
-2.89755
11
7.22389
21
-2.89563
0
LINE
8
BLACK
6
CONTINUOUS
10
7.22389
20
-2.89563
11
7.22197
21
-2.89276
0
LINE
8
BLACK
6
CONTINUOUS
10
7.22197
20
-2.89276
11
7.2213
21
-2.88937
0
LINE
8
BLACK
6
CONTINUOUS
10
7.2213
20
-2.88937
11
7.2213
21
-2.87165
0
LINE
8
BLACK
6
CONTINUOUS
10
7.2213
20
-2.87165
11
7.22197
21
-2.86826
0
LINE
8
BLACK
6
CONTINUOUS
10
7.22197
20
-2.86826
11
7.22389
21
-2.86539
0
LINE
8
BLACK
6
CONTINUOUS
10
7.22389
20
-2.86539
11
7.22677
21
-2.86347
0
LINE
8
BLACK
6
CONTINUOUS
10
7.22677
20
-2.86347
11
7.23016
21
-2.8628
0
LINE
8
BLACK
6
CONTINUOUS
10
7.23016
20
-2.8628
11
7.24984
21
-2.8628
0
LINE
8
BLACK
6
CONTINUOUS
10
7.24984
20
-2.8628
11
7.25323
21
-2.86347
0
LINE
8
BLACK
6
CONTINUOUS
10
7.42323
20
-2.80296
11
7.42611
21
-2.80488
0
LINE
8
BLACK
6
CONTINUOUS
10
7.42611
20
-2.80488
11
7.42803
21
-2.80775
0
LINE
8
BLACK
6
CONTINUOUS
10
7.42803
20
-2.80775
11
7.4287
21
-2.81114
0
LINE
8
BLACK
6
CONTINUOUS
10
7.4287
20
-2.81114
11
7.4287
21
-2.82886
0
LINE
8
BLACK
6
CONTINUOUS
10
7.4287
20
-2.82886
11
7.42803
21
-2.83225
0
LINE
8
BLACK
6
CONTINUOUS
10
7.42803
20
-2.83225
11
7.42611
21
-2.83512
0
LINE
8
BLACK
6
CONTINUOUS
10
7.42611
20
-2.83512
11
7.42323
21
-2.83704
0
LINE
8
BLACK
6
CONTINUOUS
10
7.42323
20
-2.83704
11
7.41984
21
-2.83772
0
LINE
8
BLACK
6
CONTINUOUS
10
7.41984
20
-2.83772
11
7.40016
21
-2.83772
0
LINE
8
BLACK
6
CONTINUOUS
10
7.40016
20
-2.83772
11
7.39677
21
-2.83704
0
LINE
8
BLACK
6
CONTINUOUS
10
7.39677
20
-2.83704
11
7.39389
21
-2.83512
0
LINE
8
BLACK
6
CONTINUOUS
10
7.39389
20
-2.83512
11
7.39197
21
-2.83225
0
LINE
8
BLACK
6
CONTINUOUS
10
7.39197
20
-2.83225
11
7.3913
21
-2.82886
0
LINE
8
BLACK
6
CONTINUOUS
10
7.3913
20
-2.82886
11
7.3913
21
-2.81114
0
LINE
8
BLACK
6
CONTINUOUS
10
7.3913
20
-2.81114
11
7.39197
21
-2.80775
0
LINE
8
BLACK
6
CONTINUOUS
10
7.39197
20
-2.80775
11
7.39389
21
-2.80488
0
LINE
8
BLACK
6
CONTINUOUS
10
7.39389
20
-2.80488
11
7.39677
21
-2.80296
0
LINE
8
BLACK
6
CONTINUOUS
10
7.39677
20
-2.80296
11
7.40016
21
-2.80228
0
LINE
8
BLACK
6
CONTINUOUS
10
7.40016
20
-2.80228
11
7.41984
21
-2.80228
0
LINE
8
BLACK
6
CONTINUOUS
10
7.41984
20
-2.80228
11
7.42323
21
-2.80296
0
LINE
8
BLACK
6
CONTINUOUS
10
7.07323
20
-2.80296
11
7.07611
21
-2.80488
0
LINE
8
BLACK
6
CONTINUOUS
10
7.07611
20
-2.80488
11
7.07803
21
-2.80775
0
LINE
8
BLACK
6
CONTINUOUS
10
7.07803
20
-2.80775
11
7.0787
21
-2.81114
0
LINE
8
BLACK
6
CONTINUOUS
10
7.0787
20
-2.81114
11
7.0787
21
-2.82886
0
LINE
8
BLACK
6
CONTINUOUS
10
7.0787
20
-2.82886
11
7.07803
21
-2.83225
0
LINE
8
BLACK
6
CONTINUOUS
10
7.07803
20
-2.83225
11
7.07611
21
-2.83512
0
LINE
8
BLACK
6
CONTINUOUS
10
7.07611
20
-2.83512
11
7.07323
21
-2.83704
0
LINE
8
BLACK
6
CONTINUOUS
10
7.07323
20
-2.83704
11
7.06984
21
-2.83772
0
LINE
8
BLACK
6
CONTINUOUS
10
7.06984
20
-2.83772
11
7.05016
21
-2.83772
0
LINE
8
BLACK
6
CONTINUOUS
10
7.05016
20
-2.83772
11
7.04677
21
-2.83704
0
LINE
8
BLACK
6
CONTINUOUS
10
7.04677
20
-2.83704
11
7.04389
21
-2.83512
0
LINE
8
BLACK
6
CONTINUOUS
10
7.04389
20
-2.83512
11
7.04197
21
-2.83225
0
LINE
8
BLACK
6
CONTINUOUS
10
7.04197
20
-2.83225
11
7.0413
21
-2.82886
0
LINE
8
BLACK
6
CONTINUOUS
10
7.0413
20
-2.82886
11
7.0413
21
-2.81114
0
LINE
8
BLACK
6
CONTINUOUS
10
7.0413
20
-2.81114
11
7.04197
21
-2.80775
0
LINE
8
BLACK
6
CONTINUOUS
10
7.04197
20
-2.80775
11
7.04389
21
-2.80488
0
LINE
8
BLACK
6
CONTINUOUS
10
7.04389
20
-2.80488
11
7.04677
21
-2.80296
0
LINE
8
BLACK
6
CONTINUOUS
10
7.04677
20
-2.80296
11
7.05016
21
-2.80228
0
LINE
8
BLACK
6
CONTINUOUS
10
7.05016
20
-2.80228
11
7.06984
21
-2.80228
0
LINE
8
BLACK
6
CONTINUOUS
10
7.06984
20
-2.80228
11
7.07323
21
-2.80296
0
LINE
8
BLACK
6
CONTINUOUS
10
7.13323
20
-2.80296
11
7.13611
21
-2.80488
0
LINE
8
BLACK
6
CONTINUOUS
10
7.13611
20
-2.80488
11
7.13803
21
-2.80775
0
LINE
8
BLACK
6
CONTINUOUS
10
7.13803
20
-2.80775
11
7.1387
21
-2.81114
0
LINE
8
BLACK
6
CONTINUOUS
10
7.1387
20
-2.81114
11
7.1387
21
-2.82886
0
LINE
8
BLACK
6
CONTINUOUS
10
7.1387
20
-2.82886
11
7.13803
21
-2.83225
0
LINE
8
BLACK
6
CONTINUOUS
10
7.13803
20
-2.83225
11
7.13611
21
-2.83512
0
LINE
8
BLACK
6
CONTINUOUS
10
7.13611
20
-2.83512
11
7.13323
21
-2.83704
0
LINE
8
BLACK
6
CONTINUOUS
10
7.13323
20
-2.83704
11
7.12984
21
-2.83772
0
LINE
8
BLACK
6
CONTINUOUS
10
7.12984
20
-2.83772
11
7.11016
21
-2.83772
0
LINE
8
BLACK
6
CONTINUOUS
10
7.11016
20
-2.83772
11
7.10677
21
-2.83704
0
LINE
8
BLACK
6
CONTINUOUS
10
7.10677
20
-2.83704
11
7.10389
21
-2.83512
0
LINE
8
BLACK
6
CONTINUOUS
10
7.10389
20
-2.83512
11
7.10197
21
-2.83225
0
LINE
8
BLACK
6
CONTINUOUS
10
7.10197
20
-2.83225
11
7.1013
21
-2.82886
0
LINE
8
BLACK
6
CONTINUOUS
10
7.1013
20
-2.82886
11
7.1013
21
-2.81114
0
LINE
8
BLACK
6
CONTINUOUS
10
7.1013
20
-2.81114
11
7.10197
21
-2.80775
0
LINE
8
BLACK
6
CONTINUOUS
10
7.10197
20
-2.80775
11
7.10389
21
-2.80488
0
LINE
8
BLACK
6
CONTINUOUS
10
7.10389
20
-2.80488
11
7.10677
21
-2.80296
0
LINE
8
BLACK
6
CONTINUOUS
10
7.10677
20
-2.80296
11
7.11016
21
-2.80228
0
LINE
8
BLACK
6
CONTINUOUS
10
7.11016
20
-2.80228
11
7.12984
21
-2.80228
0
LINE
8
BLACK
6
CONTINUOUS
10
7.12984
20
-2.80228
11
7.13323
21
-2.80296
0
LINE
8
BLACK
6
CONTINUOUS
10
7.25323
20
-2.80245
11
7.25611
21
-2.80437
0
LINE
8
BLACK
6
CONTINUOUS
10
7.25611
20
-2.80437
11
7.25803
21
-2.80724
0
LINE
8
BLACK
6
CONTINUOUS
10
7.25803
20
-2.80724
11
7.2587
21
-2.81063
0
LINE
8
BLACK
6
CONTINUOUS
10
7.2587
20
-2.81063
11
7.2587
21
-2.82835
0
LINE
8
BLACK
6
CONTINUOUS
10
7.2587
20
-2.82835
11
7.25803
21
-2.83174
0
LINE
8
BLACK
6
CONTINUOUS
10
7.25803
20
-2.83174
11
7.25611
21
-2.83461
0
LINE
8
BLACK
6
CONTINUOUS
10
7.25611
20
-2.83461
11
7.25323
21
-2.83653
0
LINE
8
BLACK
6
CONTINUOUS
10
7.25323
20
-2.83653
11
7.24984
21
-2.8372
0
LINE
8
BLACK
6
CONTINUOUS
10
7.24984
20
-2.8372
11
7.23016
21
-2.8372
0
LINE
8
BLACK
6
CONTINUOUS
10
7.23016
20
-2.8372
11
7.22677
21
-2.83653
0
LINE
8
BLACK
6
CONTINUOUS
10
7.22677
20
-2.83653
11
7.22389
21
-2.83461
0
LINE
8
BLACK
6
CONTINUOUS
10
7.22389
20
-2.83461
11
7.22197
21
-2.83174
0
LINE
8
BLACK
6
CONTINUOUS
10
7.22197
20
-2.83174
11
7.2213
21
-2.82835
0
LINE
8
BLACK
6
CONTINUOUS
10
7.2213
20
-2.82835
11
7.2213
21
-2.81063
0
LINE
8
BLACK
6
CONTINUOUS
10
7.2213
20
-2.81063
11
7.22197
21
-2.80724
0
LINE
8
BLACK
6
CONTINUOUS
10
7.22197
20
-2.80724
11
7.22389
21
-2.80437
0
LINE
8
BLACK
6
CONTINUOUS
10
7.22389
20
-2.80437
11
7.22677
21
-2.80245
0
LINE
8
BLACK
6
CONTINUOUS
10
7.22677
20
-2.80245
11
7.23016
21
-2.80177
0
LINE
8
BLACK
6
CONTINUOUS
10
7.23016
20
-2.80177
11
7.24984
21
-2.80177
0
LINE
8
BLACK
6
CONTINUOUS
10
7.24984
20
-2.80177
11
7.25323
21
-2.80245
0
LINE
8
BLACK
6
CONTINUOUS
10
7.19323
20
-2.80245
11
7.19611
21
-2.80437
0
LINE
8
BLACK
6
CONTINUOUS
10
7.19611
20
-2.80437
11
7.19803
21
-2.80724
0
LINE
8
BLACK
6
CONTINUOUS
10
7.19803
20
-2.80724
11
7.1987
21
-2.81063
0
LINE
8
BLACK
6
CONTINUOUS
10
7.1987
20
-2.81063
11
7.1987
21
-2.82835
0
LINE
8
BLACK
6
CONTINUOUS
10
7.1987
20
-2.82835
11
7.19803
21
-2.83174
0
LINE
8
BLACK
6
CONTINUOUS
10
7.19803
20
-2.83174
11
7.19611
21
-2.83461
0
LINE
8
BLACK
6
CONTINUOUS
10
7.19611
20
-2.83461
11
7.19323
21
-2.83653
0
LINE
8
BLACK
6
CONTINUOUS
10
7.19323
20
-2.83653
11
7.18984
21
-2.8372
0
LINE
8
BLACK
6
CONTINUOUS
10
7.18984
20
-2.8372
11
7.17016
21
-2.8372
0
LINE
8
BLACK
6
CONTINUOUS
10
7.17016
20
-2.8372
11
7.16677
21
-2.83653
0
LINE
8
BLACK
6
CONTINUOUS
10
7.16677
20
-2.83653
11
7.16389
21
-2.83461
0
LINE
8
BLACK
6
CONTINUOUS
10
7.16389
20
-2.83461
11
7.16197
21
-2.83174
0
LINE
8
BLACK
6
CONTINUOUS
10
7.16197
20
-2.83174
11
7.1613
21
-2.82835
0
LINE
8
BLACK
6
CONTINUOUS
10
7.1613
20
-2.82835
11
7.1613
21
-2.81063
0
LINE
8
BLACK
6
CONTINUOUS
10
7.1613
20
-2.81063
11
7.16197
21
-2.80724
0
LINE
8
BLACK
6
CONTINUOUS
10
7.16197
20
-2.80724
11
7.16389
21
-2.80437
0
LINE
8
BLACK
6
CONTINUOUS
10
7.16389
20
-2.80437
11
7.16677
21
-2.80245
0
LINE
8
BLACK
6
CONTINUOUS
10
7.16677
20
-2.80245
11
7.17016
21
-2.80177
0
LINE
8
BLACK
6
CONTINUOUS
10
7.17016
20
-2.80177
11
7.18984
21
-2.80177
0
LINE
8
BLACK
6
CONTINUOUS
10
7.18984
20
-2.80177
11
7.19323
21
-2.80245
  0
ENDSEC
  0
EOF
