M48
; DRILL file {KiCad (6.0.7)} date Sat Oct 15 10:46:33 2022
; FORMAT={-:-/ absolute / inch / decimal}
; #@! TF.CreationDate,2022-10-15T10:46:33+09:00
; #@! TF.GenerationSoftware,Kicad,Pcbnew,(6.0.7)
; #@! TF.FileFunction,Plated,1,2,PTH
FMAT,2
INCH
; #@! TA.AperFunction,Plated,PTH,ViaDrill
T1C0.0236
; #@! TA.AperFunction,Plated,PTH,ViaDrill
T2C0.0315
; #@! TA.AperFunction,Plated,PTH,ComponentDrill
T3C0.0394
; #@! TA.AperFunction,Plated,PTH,ViaDrill
T4C0.1181
%
G90
G05
T1
X6.8Y-3.0
X6.85Y-3.05
X6.99Y-2.71
X6.99Y-3.48
X7.0295Y-2.6705
X7.06Y-3.48
X7.12Y-2.55
X7.13Y-3.48
X7.1986Y-2.5914
X7.32Y-3.56
X7.38Y-3.56
X7.505Y-2.605
X7.5598Y-3.5102
X7.5909Y-3.5691
X7.66Y-2.74
X7.78Y-3.05
X7.78Y-3.35
X7.7964Y-2.8764
T2
X7.2Y-2.95
X7.2Y-3.15
X7.4Y-2.95
X7.4Y-3.15
T3
X6.6Y-2.6
X6.6Y-2.7
X6.6Y-2.8
X6.6Y-2.9
X6.6Y-3.0
X6.6Y-3.1
X6.6Y-3.2
X6.6Y-3.3
X6.6Y-3.4
X6.6Y-3.5
X6.7Y-2.6
X6.7Y-2.7
X6.7Y-2.8
X6.7Y-2.9
X6.7Y-3.0
X6.7Y-3.1
X6.7Y-3.2
X6.7Y-3.3
X6.7Y-3.4
X6.7Y-3.5
X6.85Y-2.35
X6.85Y-2.45
X6.85Y-3.65
X6.85Y-3.75
X6.95Y-2.35
X6.95Y-2.45
X6.95Y-3.65
X6.95Y-3.75
X7.05Y-2.35
X7.05Y-2.45
X7.05Y-3.65
X7.05Y-3.75
X7.15Y-2.35
X7.15Y-2.45
X7.15Y-3.65
X7.15Y-3.75
X7.25Y-2.35
X7.25Y-2.45
X7.25Y-3.65
X7.25Y-3.75
X7.35Y-2.35
X7.35Y-2.45
X7.35Y-3.65
X7.35Y-3.75
X7.45Y-2.35
X7.45Y-2.45
X7.45Y-3.65
X7.45Y-3.75
X7.55Y-2.35
X7.55Y-2.45
X7.55Y-3.65
X7.55Y-3.75
X7.65Y-2.35
X7.65Y-2.45
X7.65Y-3.65
X7.65Y-3.75
X7.75Y-2.35
X7.75Y-2.45
X7.75Y-3.65
X7.75Y-3.75
X7.9Y-2.6
X7.9Y-2.7
X7.9Y-2.8
X7.9Y-2.9
X7.9Y-3.0
X7.9Y-3.1
X7.9Y-3.2
X7.9Y-3.3
X7.9Y-3.4
X7.9Y-3.5
X8.0Y-2.6
X8.0Y-2.7
X8.0Y-2.8
X8.0Y-2.9
X8.0Y-3.0
X8.0Y-3.1
X8.0Y-3.2
X8.0Y-3.3
X8.0Y-3.4
X8.0Y-3.5
T4
X6.6Y-3.75
X7.3Y-3.05
X8.0Y-2.35
X8.0Y-3.75
T0
M30
