  0
SECTION
  2
HEADER
  9
$ANGBASE
  50
0.0
  9
$ANGDIR
  70
1
  9
$MEASUREMENT
  70
0
  0
ENDSEC
  0
SECTION
  2
TABLES
  0
TABLE
  2
LTYPE
  70
4
  0
LTYPE
  5
40F
  2
CONTINUOUS
  70
0
  3
Solid line
  72
65
  73
0
  40
0.0
  0
LTYPE
  5
410
  2
DASHDOT
 70
0
  3
Dash Dot ____ _ ____ _
 72
65
 73
4
 40
2.0
 49
1.25
 49
-0.25
 49
0.25
 49
-0.25
  0
LTYPE
  5
411
  2
DASHED
 70
0
  3
Dashed __ __ __ __ __
 72
65
 73
2
 40
0.75
 49
0.5
 49
-0.25
  0
LTYPE
  5
43B
  2
DOTTED
 70
0
  3
Dotted .  .  .  .
 72
65
 73
2
 40
0.2
 49
0.0
 49
-0.2
  0
ENDTAB
  0
TABLE
  2
STYLE
  70
4
  0
STYLE
  2
KICAD
  70
0
  40
0
  41
1
  42
1
  50
0
  71
0
  3
isocp.shx
  0
STYLE
  2
KICADB
  70
0
  40
0
  41
1
  42
1
  50
0
  71
0
  3
isocp.shx
  0
STYLE
  2
KICADI
  70
0
  40
0
  41
1
  42
1
  50
15
  71
0
  3
isocp.shx
  0
STYLE
  2
KICADBI
  70
0
  40
0
  41
1
  42
1
  50
15
  71
0
  3
isocp.shx
  0
ENDTAB
  0
TABLE
  2
LAYER
  70
1
  0
LAYER
  2
BLACK
  70
0
  62
7
  6
CONTINUOUS
  0
ENDTAB
  0
ENDSEC
  0
SECTION
  2
ENTITIES
0
LINE
8
BLACK
6
CONTINUOUS
10
7.52323
20
-3.32347
11
7.52611
21
-3.32539
0
LINE
8
BLACK
6
CONTINUOUS
10
7.52611
20
-3.32539
11
7.52803
21
-3.32826
0
LINE
8
BLACK
6
CONTINUOUS
10
7.52803
20
-3.32826
11
7.5287
21
-3.33165
0
LINE
8
BLACK
6
CONTINUOUS
10
7.5287
20
-3.33165
11
7.5287
21
-3.34937
0
LINE
8
BLACK
6
CONTINUOUS
10
7.5287
20
-3.34937
11
7.52803
21
-3.35276
0
LINE
8
BLACK
6
CONTINUOUS
10
7.52803
20
-3.35276
11
7.52611
21
-3.35563
0
LINE
8
BLACK
6
CONTINUOUS
10
7.52611
20
-3.35563
11
7.52323
21
-3.35755
0
LINE
8
BLACK
6
CONTINUOUS
10
7.52323
20
-3.35755
11
7.51984
21
-3.35823
0
LINE
8
BLACK
6
CONTINUOUS
10
7.51984
20
-3.35823
11
7.50016
21
-3.35823
0
LINE
8
BLACK
6
CONTINUOUS
10
7.50016
20
-3.35823
11
7.49677
21
-3.35755
0
LINE
8
BLACK
6
CONTINUOUS
10
7.49677
20
-3.35755
11
7.49389
21
-3.35563
0
LINE
8
BLACK
6
CONTINUOUS
10
7.49389
20
-3.35563
11
7.49197
21
-3.35276
0
LINE
8
BLACK
6
CONTINUOUS
10
7.49197
20
-3.35276
11
7.4913
21
-3.34937
0
LINE
8
BLACK
6
CONTINUOUS
10
7.4913
20
-3.34937
11
7.4913
21
-3.33165
0
LINE
8
BLACK
6
CONTINUOUS
10
7.4913
20
-3.33165
11
7.49197
21
-3.32826
0
LINE
8
BLACK
6
CONTINUOUS
10
7.49197
20
-3.32826
11
7.49389
21
-3.32539
0
LINE
8
BLACK
6
CONTINUOUS
10
7.49389
20
-3.32539
11
7.49677
21
-3.32347
0
LINE
8
BLACK
6
CONTINUOUS
10
7.49677
20
-3.32347
11
7.50016
21
-3.3228
0
LINE
8
BLACK
6
CONTINUOUS
10
7.50016
20
-3.3228
11
7.51984
21
-3.3228
0
LINE
8
BLACK
6
CONTINUOUS
10
7.51984
20
-3.3228
11
7.52323
21
-3.32347
0
LINE
8
BLACK
6
CONTINUOUS
10
7.46323
20
-3.32347
11
7.46611
21
-3.32539
0
LINE
8
BLACK
6
CONTINUOUS
10
7.46611
20
-3.32539
11
7.46803
21
-3.32826
0
LINE
8
BLACK
6
CONTINUOUS
10
7.46803
20
-3.32826
11
7.4687
21
-3.33165
0
LINE
8
BLACK
6
CONTINUOUS
10
7.4687
20
-3.33165
11
7.4687
21
-3.34937
0
LINE
8
BLACK
6
CONTINUOUS
10
7.4687
20
-3.34937
11
7.46803
21
-3.35276
0
LINE
8
BLACK
6
CONTINUOUS
10
7.46803
20
-3.35276
11
7.46611
21
-3.35563
0
LINE
8
BLACK
6
CONTINUOUS
10
7.46611
20
-3.35563
11
7.46323
21
-3.35755
0
LINE
8
BLACK
6
CONTINUOUS
10
7.46323
20
-3.35755
11
7.45984
21
-3.35823
0
LINE
8
BLACK
6
CONTINUOUS
10
7.45984
20
-3.35823
11
7.44016
21
-3.35823
0
LINE
8
BLACK
6
CONTINUOUS
10
7.44016
20
-3.35823
11
7.43677
21
-3.35755
0
LINE
8
BLACK
6
CONTINUOUS
10
7.43677
20
-3.35755
11
7.43389
21
-3.35563
0
LINE
8
BLACK
6
CONTINUOUS
10
7.43389
20
-3.35563
11
7.43197
21
-3.35276
0
LINE
8
BLACK
6
CONTINUOUS
10
7.43197
20
-3.35276
11
7.4313
21
-3.34937
0
LINE
8
BLACK
6
CONTINUOUS
10
7.4313
20
-3.34937
11
7.4313
21
-3.33165
0
LINE
8
BLACK
6
CONTINUOUS
10
7.4313
20
-3.33165
11
7.43197
21
-3.32826
0
LINE
8
BLACK
6
CONTINUOUS
10
7.43197
20
-3.32826
11
7.43389
21
-3.32539
0
LINE
8
BLACK
6
CONTINUOUS
10
7.43389
20
-3.32539
11
7.43677
21
-3.32347
0
LINE
8
BLACK
6
CONTINUOUS
10
7.43677
20
-3.32347
11
7.44016
21
-3.3228
0
LINE
8
BLACK
6
CONTINUOUS
10
7.44016
20
-3.3228
11
7.45984
21
-3.3228
0
LINE
8
BLACK
6
CONTINUOUS
10
7.45984
20
-3.3228
11
7.46323
21
-3.32347
0
LINE
8
BLACK
6
CONTINUOUS
10
7.37323
20
-3.32347
11
7.37611
21
-3.32539
0
LINE
8
BLACK
6
CONTINUOUS
10
7.37611
20
-3.32539
11
7.37803
21
-3.32826
0
LINE
8
BLACK
6
CONTINUOUS
10
7.37803
20
-3.32826
11
7.3787
21
-3.33165
0
LINE
8
BLACK
6
CONTINUOUS
10
7.3787
20
-3.33165
11
7.3787
21
-3.34937
0
LINE
8
BLACK
6
CONTINUOUS
10
7.3787
20
-3.34937
11
7.37803
21
-3.35276
0
LINE
8
BLACK
6
CONTINUOUS
10
7.37803
20
-3.35276
11
7.37611
21
-3.35563
0
LINE
8
BLACK
6
CONTINUOUS
10
7.37611
20
-3.35563
11
7.37323
21
-3.35755
0
LINE
8
BLACK
6
CONTINUOUS
10
7.37323
20
-3.35755
11
7.36984
21
-3.35823
0
LINE
8
BLACK
6
CONTINUOUS
10
7.36984
20
-3.35823
11
7.35016
21
-3.35823
0
LINE
8
BLACK
6
CONTINUOUS
10
7.35016
20
-3.35823
11
7.34677
21
-3.35755
0
LINE
8
BLACK
6
CONTINUOUS
10
7.34677
20
-3.35755
11
7.34389
21
-3.35563
0
LINE
8
BLACK
6
CONTINUOUS
10
7.34389
20
-3.35563
11
7.34197
21
-3.35276
0
LINE
8
BLACK
6
CONTINUOUS
10
7.34197
20
-3.35276
11
7.3413
21
-3.34937
0
LINE
8
BLACK
6
CONTINUOUS
10
7.3413
20
-3.34937
11
7.3413
21
-3.33165
0
LINE
8
BLACK
6
CONTINUOUS
10
7.3413
20
-3.33165
11
7.34197
21
-3.32826
0
LINE
8
BLACK
6
CONTINUOUS
10
7.34197
20
-3.32826
11
7.34389
21
-3.32539
0
LINE
8
BLACK
6
CONTINUOUS
10
7.34389
20
-3.32539
11
7.34677
21
-3.32347
0
LINE
8
BLACK
6
CONTINUOUS
10
7.34677
20
-3.32347
11
7.35016
21
-3.3228
0
LINE
8
BLACK
6
CONTINUOUS
10
7.35016
20
-3.3228
11
7.36984
21
-3.3228
0
LINE
8
BLACK
6
CONTINUOUS
10
7.36984
20
-3.3228
11
7.37323
21
-3.32347
0
LINE
8
BLACK
6
CONTINUOUS
10
7.31323
20
-3.32347
11
7.31611
21
-3.32539
0
LINE
8
BLACK
6
CONTINUOUS
10
7.31611
20
-3.32539
11
7.31803
21
-3.32826
0
LINE
8
BLACK
6
CONTINUOUS
10
7.31803
20
-3.32826
11
7.3187
21
-3.33165
0
LINE
8
BLACK
6
CONTINUOUS
10
7.3187
20
-3.33165
11
7.3187
21
-3.34937
0
LINE
8
BLACK
6
CONTINUOUS
10
7.3187
20
-3.34937
11
7.31803
21
-3.35276
0
LINE
8
BLACK
6
CONTINUOUS
10
7.31803
20
-3.35276
11
7.31611
21
-3.35563
0
LINE
8
BLACK
6
CONTINUOUS
10
7.31611
20
-3.35563
11
7.31323
21
-3.35755
0
LINE
8
BLACK
6
CONTINUOUS
10
7.31323
20
-3.35755
11
7.30984
21
-3.35823
0
LINE
8
BLACK
6
CONTINUOUS
10
7.30984
20
-3.35823
11
7.29016
21
-3.35823
0
LINE
8
BLACK
6
CONTINUOUS
10
7.29016
20
-3.35823
11
7.28677
21
-3.35755
0
LINE
8
BLACK
6
CONTINUOUS
10
7.28677
20
-3.35755
11
7.28389
21
-3.35563
0
LINE
8
BLACK
6
CONTINUOUS
10
7.28389
20
-3.35563
11
7.28197
21
-3.35276
0
LINE
8
BLACK
6
CONTINUOUS
10
7.28197
20
-3.35276
11
7.2813
21
-3.34937
0
LINE
8
BLACK
6
CONTINUOUS
10
7.2813
20
-3.34937
11
7.2813
21
-3.33165
0
LINE
8
BLACK
6
CONTINUOUS
10
7.2813
20
-3.33165
11
7.28197
21
-3.32826
0
LINE
8
BLACK
6
CONTINUOUS
10
7.28197
20
-3.32826
11
7.28389
21
-3.32539
0
LINE
8
BLACK
6
CONTINUOUS
10
7.28389
20
-3.32539
11
7.28677
21
-3.32347
0
LINE
8
BLACK
6
CONTINUOUS
10
7.28677
20
-3.32347
11
7.29016
21
-3.3228
0
LINE
8
BLACK
6
CONTINUOUS
10
7.29016
20
-3.3228
11
7.30984
21
-3.3228
0
LINE
8
BLACK
6
CONTINUOUS
10
7.30984
20
-3.3228
11
7.31323
21
-3.32347
0
LINE
8
BLACK
6
CONTINUOUS
10
7.20323
20
-3.32347
11
7.20611
21
-3.32539
0
LINE
8
BLACK
6
CONTINUOUS
10
7.20611
20
-3.32539
11
7.20803
21
-3.32826
0
LINE
8
BLACK
6
CONTINUOUS
10
7.20803
20
-3.32826
11
7.2087
21
-3.33165
0
LINE
8
BLACK
6
CONTINUOUS
10
7.2087
20
-3.33165
11
7.2087
21
-3.34937
0
LINE
8
BLACK
6
CONTINUOUS
10
7.2087
20
-3.34937
11
7.20803
21
-3.35276
0
LINE
8
BLACK
6
CONTINUOUS
10
7.20803
20
-3.35276
11
7.20611
21
-3.35563
0
LINE
8
BLACK
6
CONTINUOUS
10
7.20611
20
-3.35563
11
7.20323
21
-3.35755
0
LINE
8
BLACK
6
CONTINUOUS
10
7.20323
20
-3.35755
11
7.19984
21
-3.35823
0
LINE
8
BLACK
6
CONTINUOUS
10
7.19984
20
-3.35823
11
7.18016
21
-3.35823
0
LINE
8
BLACK
6
CONTINUOUS
10
7.18016
20
-3.35823
11
7.17677
21
-3.35755
0
LINE
8
BLACK
6
CONTINUOUS
10
7.17677
20
-3.35755
11
7.17389
21
-3.35563
0
LINE
8
BLACK
6
CONTINUOUS
10
7.17389
20
-3.35563
11
7.17197
21
-3.35276
0
LINE
8
BLACK
6
CONTINUOUS
10
7.17197
20
-3.35276
11
7.1713
21
-3.34937
0
LINE
8
BLACK
6
CONTINUOUS
10
7.1713
20
-3.34937
11
7.1713
21
-3.33165
0
LINE
8
BLACK
6
CONTINUOUS
10
7.1713
20
-3.33165
11
7.17197
21
-3.32826
0
LINE
8
BLACK
6
CONTINUOUS
10
7.17197
20
-3.32826
11
7.17389
21
-3.32539
0
LINE
8
BLACK
6
CONTINUOUS
10
7.17389
20
-3.32539
11
7.17677
21
-3.32347
0
LINE
8
BLACK
6
CONTINUOUS
10
7.17677
20
-3.32347
11
7.18016
21
-3.3228
0
LINE
8
BLACK
6
CONTINUOUS
10
7.18016
20
-3.3228
11
7.19984
21
-3.3228
0
LINE
8
BLACK
6
CONTINUOUS
10
7.19984
20
-3.3228
11
7.20323
21
-3.32347
0
LINE
8
BLACK
6
CONTINUOUS
10
7.14323
20
-3.32347
11
7.14611
21
-3.32539
0
LINE
8
BLACK
6
CONTINUOUS
10
7.14611
20
-3.32539
11
7.14803
21
-3.32826
0
LINE
8
BLACK
6
CONTINUOUS
10
7.14803
20
-3.32826
11
7.1487
21
-3.33165
0
LINE
8
BLACK
6
CONTINUOUS
10
7.1487
20
-3.33165
11
7.1487
21
-3.34937
0
LINE
8
BLACK
6
CONTINUOUS
10
7.1487
20
-3.34937
11
7.14803
21
-3.35276
0
LINE
8
BLACK
6
CONTINUOUS
10
7.14803
20
-3.35276
11
7.14611
21
-3.35563
0
LINE
8
BLACK
6
CONTINUOUS
10
7.14611
20
-3.35563
11
7.14323
21
-3.35755
0
LINE
8
BLACK
6
CONTINUOUS
10
7.14323
20
-3.35755
11
7.13984
21
-3.35823
0
LINE
8
BLACK
6
CONTINUOUS
10
7.13984
20
-3.35823
11
7.12016
21
-3.35823
0
LINE
8
BLACK
6
CONTINUOUS
10
7.12016
20
-3.35823
11
7.11677
21
-3.35755
0
LINE
8
BLACK
6
CONTINUOUS
10
7.11677
20
-3.35755
11
7.11389
21
-3.35563
0
LINE
8
BLACK
6
CONTINUOUS
10
7.11389
20
-3.35563
11
7.11197
21
-3.35276
0
LINE
8
BLACK
6
CONTINUOUS
10
7.11197
20
-3.35276
11
7.1113
21
-3.34937
0
LINE
8
BLACK
6
CONTINUOUS
10
7.1113
20
-3.34937
11
7.1113
21
-3.33165
0
LINE
8
BLACK
6
CONTINUOUS
10
7.1113
20
-3.33165
11
7.11197
21
-3.32826
0
LINE
8
BLACK
6
CONTINUOUS
10
7.11197
20
-3.32826
11
7.11389
21
-3.32539
0
LINE
8
BLACK
6
CONTINUOUS
10
7.11389
20
-3.32539
11
7.11677
21
-3.32347
0
LINE
8
BLACK
6
CONTINUOUS
10
7.11677
20
-3.32347
11
7.12016
21
-3.3228
0
LINE
8
BLACK
6
CONTINUOUS
10
7.12016
20
-3.3228
11
7.13984
21
-3.3228
0
LINE
8
BLACK
6
CONTINUOUS
10
7.13984
20
-3.3228
11
7.14323
21
-3.32347
0
LINE
8
BLACK
6
CONTINUOUS
10
7.08323
20
-3.32347
11
7.08611
21
-3.32539
0
LINE
8
BLACK
6
CONTINUOUS
10
7.08611
20
-3.32539
11
7.08803
21
-3.32826
0
LINE
8
BLACK
6
CONTINUOUS
10
7.08803
20
-3.32826
11
7.0887
21
-3.33165
0
LINE
8
BLACK
6
CONTINUOUS
10
7.0887
20
-3.33165
11
7.0887
21
-3.34937
0
LINE
8
BLACK
6
CONTINUOUS
10
7.0887
20
-3.34937
11
7.08803
21
-3.35276
0
LINE
8
BLACK
6
CONTINUOUS
10
7.08803
20
-3.35276
11
7.08611
21
-3.35563
0
LINE
8
BLACK
6
CONTINUOUS
10
7.08611
20
-3.35563
11
7.08323
21
-3.35755
0
LINE
8
BLACK
6
CONTINUOUS
10
7.08323
20
-3.35755
11
7.07984
21
-3.35823
0
LINE
8
BLACK
6
CONTINUOUS
10
7.07984
20
-3.35823
11
7.06016
21
-3.35823
0
LINE
8
BLACK
6
CONTINUOUS
10
7.06016
20
-3.35823
11
7.05677
21
-3.35755
0
LINE
8
BLACK
6
CONTINUOUS
10
7.05677
20
-3.35755
11
7.05389
21
-3.35563
0
LINE
8
BLACK
6
CONTINUOUS
10
7.05389
20
-3.35563
11
7.05197
21
-3.35276
0
LINE
8
BLACK
6
CONTINUOUS
10
7.05197
20
-3.35276
11
7.0513
21
-3.34937
0
LINE
8
BLACK
6
CONTINUOUS
10
7.0513
20
-3.34937
11
7.0513
21
-3.33165
0
LINE
8
BLACK
6
CONTINUOUS
10
7.0513
20
-3.33165
11
7.05197
21
-3.32826
0
LINE
8
BLACK
6
CONTINUOUS
10
7.05197
20
-3.32826
11
7.05389
21
-3.32539
0
LINE
8
BLACK
6
CONTINUOUS
10
7.05389
20
-3.32539
11
7.05677
21
-3.32347
0
LINE
8
BLACK
6
CONTINUOUS
10
7.05677
20
-3.32347
11
7.06016
21
-3.3228
0
LINE
8
BLACK
6
CONTINUOUS
10
7.06016
20
-3.3228
11
7.07984
21
-3.3228
0
LINE
8
BLACK
6
CONTINUOUS
10
7.07984
20
-3.3228
11
7.08323
21
-3.32347
0
LINE
8
BLACK
6
CONTINUOUS
10
7.52323
20
-3.26245
11
7.52611
21
-3.26437
0
LINE
8
BLACK
6
CONTINUOUS
10
7.52611
20
-3.26437
11
7.52803
21
-3.26724
0
LINE
8
BLACK
6
CONTINUOUS
10
7.52803
20
-3.26724
11
7.5287
21
-3.27063
0
LINE
8
BLACK
6
CONTINUOUS
10
7.5287
20
-3.27063
11
7.5287
21
-3.28835
0
LINE
8
BLACK
6
CONTINUOUS
10
7.5287
20
-3.28835
11
7.52803
21
-3.29174
0
LINE
8
BLACK
6
CONTINUOUS
10
7.52803
20
-3.29174
11
7.52611
21
-3.29461
0
LINE
8
BLACK
6
CONTINUOUS
10
7.52611
20
-3.29461
11
7.52323
21
-3.29653
0
LINE
8
BLACK
6
CONTINUOUS
10
7.52323
20
-3.29653
11
7.51984
21
-3.2972
0
LINE
8
BLACK
6
CONTINUOUS
10
7.51984
20
-3.2972
11
7.50016
21
-3.2972
0
LINE
8
BLACK
6
CONTINUOUS
10
7.50016
20
-3.2972
11
7.49677
21
-3.29653
0
LINE
8
BLACK
6
CONTINUOUS
10
7.49677
20
-3.29653
11
7.49389
21
-3.29461
0
LINE
8
BLACK
6
CONTINUOUS
10
7.49389
20
-3.29461
11
7.49197
21
-3.29174
0
LINE
8
BLACK
6
CONTINUOUS
10
7.49197
20
-3.29174
11
7.4913
21
-3.28835
0
LINE
8
BLACK
6
CONTINUOUS
10
7.4913
20
-3.28835
11
7.4913
21
-3.27063
0
LINE
8
BLACK
6
CONTINUOUS
10
7.4913
20
-3.27063
11
7.49197
21
-3.26724
0
LINE
8
BLACK
6
CONTINUOUS
10
7.49197
20
-3.26724
11
7.49389
21
-3.26437
0
LINE
8
BLACK
6
CONTINUOUS
10
7.49389
20
-3.26437
11
7.49677
21
-3.26245
0
LINE
8
BLACK
6
CONTINUOUS
10
7.49677
20
-3.26245
11
7.50016
21
-3.26177
0
LINE
8
BLACK
6
CONTINUOUS
10
7.50016
20
-3.26177
11
7.51984
21
-3.26177
0
LINE
8
BLACK
6
CONTINUOUS
10
7.51984
20
-3.26177
11
7.52323
21
-3.26245
0
LINE
8
BLACK
6
CONTINUOUS
10
7.46323
20
-3.26245
11
7.46611
21
-3.26437
0
LINE
8
BLACK
6
CONTINUOUS
10
7.46611
20
-3.26437
11
7.46803
21
-3.26724
0
LINE
8
BLACK
6
CONTINUOUS
10
7.46803
20
-3.26724
11
7.4687
21
-3.27063
0
LINE
8
BLACK
6
CONTINUOUS
10
7.4687
20
-3.27063
11
7.4687
21
-3.28835
0
LINE
8
BLACK
6
CONTINUOUS
10
7.4687
20
-3.28835
11
7.46803
21
-3.29174
0
LINE
8
BLACK
6
CONTINUOUS
10
7.46803
20
-3.29174
11
7.46611
21
-3.29461
0
LINE
8
BLACK
6
CONTINUOUS
10
7.46611
20
-3.29461
11
7.46323
21
-3.29653
0
LINE
8
BLACK
6
CONTINUOUS
10
7.46323
20
-3.29653
11
7.45984
21
-3.2972
0
LINE
8
BLACK
6
CONTINUOUS
10
7.45984
20
-3.2972
11
7.44016
21
-3.2972
0
LINE
8
BLACK
6
CONTINUOUS
10
7.44016
20
-3.2972
11
7.43677
21
-3.29653
0
LINE
8
BLACK
6
CONTINUOUS
10
7.43677
20
-3.29653
11
7.43389
21
-3.29461
0
LINE
8
BLACK
6
CONTINUOUS
10
7.43389
20
-3.29461
11
7.43197
21
-3.29174
0
LINE
8
BLACK
6
CONTINUOUS
10
7.43197
20
-3.29174
11
7.4313
21
-3.28835
0
LINE
8
BLACK
6
CONTINUOUS
10
7.4313
20
-3.28835
11
7.4313
21
-3.27063
0
LINE
8
BLACK
6
CONTINUOUS
10
7.4313
20
-3.27063
11
7.43197
21
-3.26724
0
LINE
8
BLACK
6
CONTINUOUS
10
7.43197
20
-3.26724
11
7.43389
21
-3.26437
0
LINE
8
BLACK
6
CONTINUOUS
10
7.43389
20
-3.26437
11
7.43677
21
-3.26245
0
LINE
8
BLACK
6
CONTINUOUS
10
7.43677
20
-3.26245
11
7.44016
21
-3.26177
0
LINE
8
BLACK
6
CONTINUOUS
10
7.44016
20
-3.26177
11
7.45984
21
-3.26177
0
LINE
8
BLACK
6
CONTINUOUS
10
7.45984
20
-3.26177
11
7.46323
21
-3.26245
0
LINE
8
BLACK
6
CONTINUOUS
10
7.37323
20
-3.26245
11
7.37611
21
-3.26437
0
LINE
8
BLACK
6
CONTINUOUS
10
7.37611
20
-3.26437
11
7.37803
21
-3.26724
0
LINE
8
BLACK
6
CONTINUOUS
10
7.37803
20
-3.26724
11
7.3787
21
-3.27063
0
LINE
8
BLACK
6
CONTINUOUS
10
7.3787
20
-3.27063
11
7.3787
21
-3.28835
0
LINE
8
BLACK
6
CONTINUOUS
10
7.3787
20
-3.28835
11
7.37803
21
-3.29174
0
LINE
8
BLACK
6
CONTINUOUS
10
7.37803
20
-3.29174
11
7.37611
21
-3.29461
0
LINE
8
BLACK
6
CONTINUOUS
10
7.37611
20
-3.29461
11
7.37323
21
-3.29653
0
LINE
8
BLACK
6
CONTINUOUS
10
7.37323
20
-3.29653
11
7.36984
21
-3.2972
0
LINE
8
BLACK
6
CONTINUOUS
10
7.36984
20
-3.2972
11
7.35016
21
-3.2972
0
LINE
8
BLACK
6
CONTINUOUS
10
7.35016
20
-3.2972
11
7.34677
21
-3.29653
0
LINE
8
BLACK
6
CONTINUOUS
10
7.34677
20
-3.29653
11
7.34389
21
-3.29461
0
LINE
8
BLACK
6
CONTINUOUS
10
7.34389
20
-3.29461
11
7.34197
21
-3.29174
0
LINE
8
BLACK
6
CONTINUOUS
10
7.34197
20
-3.29174
11
7.3413
21
-3.28835
0
LINE
8
BLACK
6
CONTINUOUS
10
7.3413
20
-3.28835
11
7.3413
21
-3.27063
0
LINE
8
BLACK
6
CONTINUOUS
10
7.3413
20
-3.27063
11
7.34197
21
-3.26724
0
LINE
8
BLACK
6
CONTINUOUS
10
7.34197
20
-3.26724
11
7.34389
21
-3.26437
0
LINE
8
BLACK
6
CONTINUOUS
10
7.34389
20
-3.26437
11
7.34677
21
-3.26245
0
LINE
8
BLACK
6
CONTINUOUS
10
7.34677
20
-3.26245
11
7.35016
21
-3.26177
0
LINE
8
BLACK
6
CONTINUOUS
10
7.35016
20
-3.26177
11
7.36984
21
-3.26177
0
LINE
8
BLACK
6
CONTINUOUS
10
7.36984
20
-3.26177
11
7.37323
21
-3.26245
0
LINE
8
BLACK
6
CONTINUOUS
10
7.31323
20
-3.26245
11
7.31611
21
-3.26437
0
LINE
8
BLACK
6
CONTINUOUS
10
7.31611
20
-3.26437
11
7.31803
21
-3.26724
0
LINE
8
BLACK
6
CONTINUOUS
10
7.31803
20
-3.26724
11
7.3187
21
-3.27063
0
LINE
8
BLACK
6
CONTINUOUS
10
7.3187
20
-3.27063
11
7.3187
21
-3.28835
0
LINE
8
BLACK
6
CONTINUOUS
10
7.3187
20
-3.28835
11
7.31803
21
-3.29174
0
LINE
8
BLACK
6
CONTINUOUS
10
7.31803
20
-3.29174
11
7.31611
21
-3.29461
0
LINE
8
BLACK
6
CONTINUOUS
10
7.31611
20
-3.29461
11
7.31323
21
-3.29653
0
LINE
8
BLACK
6
CONTINUOUS
10
7.31323
20
-3.29653
11
7.30984
21
-3.2972
0
LINE
8
BLACK
6
CONTINUOUS
10
7.30984
20
-3.2972
11
7.29016
21
-3.2972
0
LINE
8
BLACK
6
CONTINUOUS
10
7.29016
20
-3.2972
11
7.28677
21
-3.29653
0
LINE
8
BLACK
6
CONTINUOUS
10
7.28677
20
-3.29653
11
7.28389
21
-3.29461
0
LINE
8
BLACK
6
CONTINUOUS
10
7.28389
20
-3.29461
11
7.28197
21
-3.29174
0
LINE
8
BLACK
6
CONTINUOUS
10
7.28197
20
-3.29174
11
7.2813
21
-3.28835
0
LINE
8
BLACK
6
CONTINUOUS
10
7.2813
20
-3.28835
11
7.2813
21
-3.27063
0
LINE
8
BLACK
6
CONTINUOUS
10
7.2813
20
-3.27063
11
7.28197
21
-3.26724
0
LINE
8
BLACK
6
CONTINUOUS
10
7.28197
20
-3.26724
11
7.28389
21
-3.26437
0
LINE
8
BLACK
6
CONTINUOUS
10
7.28389
20
-3.26437
11
7.28677
21
-3.26245
0
LINE
8
BLACK
6
CONTINUOUS
10
7.28677
20
-3.26245
11
7.29016
21
-3.26177
0
LINE
8
BLACK
6
CONTINUOUS
10
7.29016
20
-3.26177
11
7.30984
21
-3.26177
0
LINE
8
BLACK
6
CONTINUOUS
10
7.30984
20
-3.26177
11
7.31323
21
-3.26245
0
LINE
8
BLACK
6
CONTINUOUS
10
7.20323
20
-3.26245
11
7.20611
21
-3.26437
0
LINE
8
BLACK
6
CONTINUOUS
10
7.20611
20
-3.26437
11
7.20803
21
-3.26724
0
LINE
8
BLACK
6
CONTINUOUS
10
7.20803
20
-3.26724
11
7.2087
21
-3.27063
0
LINE
8
BLACK
6
CONTINUOUS
10
7.2087
20
-3.27063
11
7.2087
21
-3.28835
0
LINE
8
BLACK
6
CONTINUOUS
10
7.2087
20
-3.28835
11
7.20803
21
-3.29174
0
LINE
8
BLACK
6
CONTINUOUS
10
7.20803
20
-3.29174
11
7.20611
21
-3.29461
0
LINE
8
BLACK
6
CONTINUOUS
10
7.20611
20
-3.29461
11
7.20323
21
-3.29653
0
LINE
8
BLACK
6
CONTINUOUS
10
7.20323
20
-3.29653
11
7.19984
21
-3.2972
0
LINE
8
BLACK
6
CONTINUOUS
10
7.19984
20
-3.2972
11
7.18016
21
-3.2972
0
LINE
8
BLACK
6
CONTINUOUS
10
7.18016
20
-3.2972
11
7.17677
21
-3.29653
0
LINE
8
BLACK
6
CONTINUOUS
10
7.17677
20
-3.29653
11
7.17389
21
-3.29461
0
LINE
8
BLACK
6
CONTINUOUS
10
7.17389
20
-3.29461
11
7.17197
21
-3.29174
0
LINE
8
BLACK
6
CONTINUOUS
10
7.17197
20
-3.29174
11
7.1713
21
-3.28835
0
LINE
8
BLACK
6
CONTINUOUS
10
7.1713
20
-3.28835
11
7.1713
21
-3.27063
0
LINE
8
BLACK
6
CONTINUOUS
10
7.1713
20
-3.27063
11
7.17197
21
-3.26724
0
LINE
8
BLACK
6
CONTINUOUS
10
7.17197
20
-3.26724
11
7.17389
21
-3.26437
0
LINE
8
BLACK
6
CONTINUOUS
10
7.17389
20
-3.26437
11
7.17677
21
-3.26245
0
LINE
8
BLACK
6
CONTINUOUS
10
7.17677
20
-3.26245
11
7.18016
21
-3.26177
0
LINE
8
BLACK
6
CONTINUOUS
10
7.18016
20
-3.26177
11
7.19984
21
-3.26177
0
LINE
8
BLACK
6
CONTINUOUS
10
7.19984
20
-3.26177
11
7.20323
21
-3.26245
0
LINE
8
BLACK
6
CONTINUOUS
10
7.14323
20
-3.26245
11
7.14611
21
-3.26437
0
LINE
8
BLACK
6
CONTINUOUS
10
7.14611
20
-3.26437
11
7.14803
21
-3.26724
0
LINE
8
BLACK
6
CONTINUOUS
10
7.14803
20
-3.26724
11
7.1487
21
-3.27063
0
LINE
8
BLACK
6
CONTINUOUS
10
7.1487
20
-3.27063
11
7.1487
21
-3.28835
0
LINE
8
BLACK
6
CONTINUOUS
10
7.1487
20
-3.28835
11
7.14803
21
-3.29174
0
LINE
8
BLACK
6
CONTINUOUS
10
7.14803
20
-3.29174
11
7.14611
21
-3.29461
0
LINE
8
BLACK
6
CONTINUOUS
10
7.14611
20
-3.29461
11
7.14323
21
-3.29653
0
LINE
8
BLACK
6
CONTINUOUS
10
7.14323
20
-3.29653
11
7.13984
21
-3.2972
0
LINE
8
BLACK
6
CONTINUOUS
10
7.13984
20
-3.2972
11
7.12016
21
-3.2972
0
LINE
8
BLACK
6
CONTINUOUS
10
7.12016
20
-3.2972
11
7.11677
21
-3.29653
0
LINE
8
BLACK
6
CONTINUOUS
10
7.11677
20
-3.29653
11
7.11389
21
-3.29461
0
LINE
8
BLACK
6
CONTINUOUS
10
7.11389
20
-3.29461
11
7.11197
21
-3.29174
0
LINE
8
BLACK
6
CONTINUOUS
10
7.11197
20
-3.29174
11
7.1113
21
-3.28835
0
LINE
8
BLACK
6
CONTINUOUS
10
7.1113
20
-3.28835
11
7.1113
21
-3.27063
0
LINE
8
BLACK
6
CONTINUOUS
10
7.1113
20
-3.27063
11
7.11197
21
-3.26724
0
LINE
8
BLACK
6
CONTINUOUS
10
7.11197
20
-3.26724
11
7.11389
21
-3.26437
0
LINE
8
BLACK
6
CONTINUOUS
10
7.11389
20
-3.26437
11
7.11677
21
-3.26245
0
LINE
8
BLACK
6
CONTINUOUS
10
7.11677
20
-3.26245
11
7.12016
21
-3.26177
0
LINE
8
BLACK
6
CONTINUOUS
10
7.12016
20
-3.26177
11
7.13984
21
-3.26177
0
LINE
8
BLACK
6
CONTINUOUS
10
7.13984
20
-3.26177
11
7.14323
21
-3.26245
0
LINE
8
BLACK
6
CONTINUOUS
10
7.08323
20
-3.26245
11
7.08611
21
-3.26437
0
LINE
8
BLACK
6
CONTINUOUS
10
7.08611
20
-3.26437
11
7.08803
21
-3.26724
0
LINE
8
BLACK
6
CONTINUOUS
10
7.08803
20
-3.26724
11
7.0887
21
-3.27063
0
LINE
8
BLACK
6
CONTINUOUS
10
7.0887
20
-3.27063
11
7.0887
21
-3.28835
0
LINE
8
BLACK
6
CONTINUOUS
10
7.0887
20
-3.28835
11
7.08803
21
-3.29174
0
LINE
8
BLACK
6
CONTINUOUS
10
7.08803
20
-3.29174
11
7.08611
21
-3.29461
0
LINE
8
BLACK
6
CONTINUOUS
10
7.08611
20
-3.29461
11
7.08323
21
-3.29653
0
LINE
8
BLACK
6
CONTINUOUS
10
7.08323
20
-3.29653
11
7.07984
21
-3.2972
0
LINE
8
BLACK
6
CONTINUOUS
10
7.07984
20
-3.2972
11
7.06016
21
-3.2972
0
LINE
8
BLACK
6
CONTINUOUS
10
7.06016
20
-3.2972
11
7.05677
21
-3.29653
0
LINE
8
BLACK
6
CONTINUOUS
10
7.05677
20
-3.29653
11
7.05389
21
-3.29461
0
LINE
8
BLACK
6
CONTINUOUS
10
7.05389
20
-3.29461
11
7.05197
21
-3.29174
0
LINE
8
BLACK
6
CONTINUOUS
10
7.05197
20
-3.29174
11
7.0513
21
-3.28835
0
LINE
8
BLACK
6
CONTINUOUS
10
7.0513
20
-3.28835
11
7.0513
21
-3.27063
0
LINE
8
BLACK
6
CONTINUOUS
10
7.0513
20
-3.27063
11
7.05197
21
-3.26724
0
LINE
8
BLACK
6
CONTINUOUS
10
7.05197
20
-3.26724
11
7.05389
21
-3.26437
0
LINE
8
BLACK
6
CONTINUOUS
10
7.05389
20
-3.26437
11
7.05677
21
-3.26245
0
LINE
8
BLACK
6
CONTINUOUS
10
7.05677
20
-3.26245
11
7.06016
21
-3.26177
0
LINE
8
BLACK
6
CONTINUOUS
10
7.06016
20
-3.26177
11
7.07984
21
-3.26177
0
LINE
8
BLACK
6
CONTINUOUS
10
7.07984
20
-3.26177
11
7.08323
21
-3.26245
0
LINE
8
BLACK
6
CONTINUOUS
10
7.61276
20
-3.20197
11
7.61563
21
-3.20389
0
LINE
8
BLACK
6
CONTINUOUS
10
7.61563
20
-3.20389
11
7.61755
21
-3.20677
0
LINE
8
BLACK
6
CONTINUOUS
10
7.61755
20
-3.20677
11
7.61823
21
-3.21016
0
LINE
8
BLACK
6
CONTINUOUS
10
7.61823
20
-3.21016
11
7.61823
21
-3.22984
0
LINE
8
BLACK
6
CONTINUOUS
10
7.61823
20
-3.22984
11
7.61755
21
-3.23323
0
LINE
8
BLACK
6
CONTINUOUS
10
7.61755
20
-3.23323
11
7.61563
21
-3.23611
0
LINE
8
BLACK
6
CONTINUOUS
10
7.61563
20
-3.23611
11
7.61276
21
-3.23803
0
LINE
8
BLACK
6
CONTINUOUS
10
7.61276
20
-3.23803
11
7.60937
21
-3.2387
0
LINE
8
BLACK
6
CONTINUOUS
10
7.60937
20
-3.2387
11
7.59165
21
-3.2387
0
LINE
8
BLACK
6
CONTINUOUS
10
7.59165
20
-3.2387
11
7.58826
21
-3.23803
0
LINE
8
BLACK
6
CONTINUOUS
10
7.58826
20
-3.23803
11
7.58539
21
-3.23611
0
LINE
8
BLACK
6
CONTINUOUS
10
7.58539
20
-3.23611
11
7.58347
21
-3.23323
0
LINE
8
BLACK
6
CONTINUOUS
10
7.58347
20
-3.23323
11
7.5828
21
-3.22984
0
LINE
8
BLACK
6
CONTINUOUS
10
7.5828
20
-3.22984
11
7.5828
21
-3.21016
0
LINE
8
BLACK
6
CONTINUOUS
10
7.5828
20
-3.21016
11
7.58347
21
-3.20677
0
LINE
8
BLACK
6
CONTINUOUS
10
7.58347
20
-3.20677
11
7.58539
21
-3.20389
0
LINE
8
BLACK
6
CONTINUOUS
10
7.58539
20
-3.20389
11
7.58826
21
-3.20197
0
LINE
8
BLACK
6
CONTINUOUS
10
7.58826
20
-3.20197
11
7.59165
21
-3.2013
0
LINE
8
BLACK
6
CONTINUOUS
10
7.59165
20
-3.2013
11
7.60937
21
-3.2013
0
LINE
8
BLACK
6
CONTINUOUS
10
7.60937
20
-3.2013
11
7.61276
21
-3.20197
0
LINE
8
BLACK
6
CONTINUOUS
10
7.55174
20
-3.20197
11
7.55461
21
-3.20389
0
LINE
8
BLACK
6
CONTINUOUS
10
7.55461
20
-3.20389
11
7.55653
21
-3.20677
0
LINE
8
BLACK
6
CONTINUOUS
10
7.55653
20
-3.20677
11
7.5572
21
-3.21016
0
LINE
8
BLACK
6
CONTINUOUS
10
7.5572
20
-3.21016
11
7.5572
21
-3.22984
0
LINE
8
BLACK
6
CONTINUOUS
10
7.5572
20
-3.22984
11
7.55653
21
-3.23323
0
LINE
8
BLACK
6
CONTINUOUS
10
7.55653
20
-3.23323
11
7.55461
21
-3.23611
0
LINE
8
BLACK
6
CONTINUOUS
10
7.55461
20
-3.23611
11
7.55174
21
-3.23803
0
LINE
8
BLACK
6
CONTINUOUS
10
7.55174
20
-3.23803
11
7.54835
21
-3.2387
0
LINE
8
BLACK
6
CONTINUOUS
10
7.54835
20
-3.2387
11
7.53063
21
-3.2387
0
LINE
8
BLACK
6
CONTINUOUS
10
7.53063
20
-3.2387
11
7.52724
21
-3.23803
0
LINE
8
BLACK
6
CONTINUOUS
10
7.52724
20
-3.23803
11
7.52437
21
-3.23611
0
LINE
8
BLACK
6
CONTINUOUS
10
7.52437
20
-3.23611
11
7.52245
21
-3.23323
0
LINE
8
BLACK
6
CONTINUOUS
10
7.52245
20
-3.23323
11
7.52177
21
-3.22984
0
LINE
8
BLACK
6
CONTINUOUS
10
7.52177
20
-3.22984
11
7.52177
21
-3.21016
0
LINE
8
BLACK
6
CONTINUOUS
10
7.52177
20
-3.21016
11
7.52245
21
-3.20677
0
LINE
8
BLACK
6
CONTINUOUS
10
7.52245
20
-3.20677
11
7.52437
21
-3.20389
0
LINE
8
BLACK
6
CONTINUOUS
10
7.52437
20
-3.20389
11
7.52724
21
-3.20197
0
LINE
8
BLACK
6
CONTINUOUS
10
7.52724
20
-3.20197
11
7.53063
21
-3.2013
0
LINE
8
BLACK
6
CONTINUOUS
10
7.53063
20
-3.2013
11
7.54835
21
-3.2013
0
LINE
8
BLACK
6
CONTINUOUS
10
7.54835
20
-3.2013
11
7.55174
21
-3.20197
0
LINE
8
BLACK
6
CONTINUOUS
10
7.61276
20
-3.04197
11
7.61563
21
-3.04389
0
LINE
8
BLACK
6
CONTINUOUS
10
7.61563
20
-3.04389
11
7.61755
21
-3.04677
0
LINE
8
BLACK
6
CONTINUOUS
10
7.61755
20
-3.04677
11
7.61823
21
-3.05016
0
LINE
8
BLACK
6
CONTINUOUS
10
7.61823
20
-3.05016
11
7.61823
21
-3.06984
0
LINE
8
BLACK
6
CONTINUOUS
10
7.61823
20
-3.06984
11
7.61755
21
-3.07323
0
LINE
8
BLACK
6
CONTINUOUS
10
7.61755
20
-3.07323
11
7.61563
21
-3.07611
0
LINE
8
BLACK
6
CONTINUOUS
10
7.61563
20
-3.07611
11
7.61276
21
-3.07803
0
LINE
8
BLACK
6
CONTINUOUS
10
7.61276
20
-3.07803
11
7.60937
21
-3.0787
0
LINE
8
BLACK
6
CONTINUOUS
10
7.60937
20
-3.0787
11
7.59165
21
-3.0787
0
LINE
8
BLACK
6
CONTINUOUS
10
7.59165
20
-3.0787
11
7.58826
21
-3.07803
0
LINE
8
BLACK
6
CONTINUOUS
10
7.58826
20
-3.07803
11
7.58539
21
-3.07611
0
LINE
8
BLACK
6
CONTINUOUS
10
7.58539
20
-3.07611
11
7.58347
21
-3.07323
0
LINE
8
BLACK
6
CONTINUOUS
10
7.58347
20
-3.07323
11
7.5828
21
-3.06984
0
LINE
8
BLACK
6
CONTINUOUS
10
7.5828
20
-3.06984
11
7.5828
21
-3.05016
0
LINE
8
BLACK
6
CONTINUOUS
10
7.5828
20
-3.05016
11
7.58347
21
-3.04677
0
LINE
8
BLACK
6
CONTINUOUS
10
7.58347
20
-3.04677
11
7.58539
21
-3.04389
0
LINE
8
BLACK
6
CONTINUOUS
10
7.58539
20
-3.04389
11
7.58826
21
-3.04197
0
LINE
8
BLACK
6
CONTINUOUS
10
7.58826
20
-3.04197
11
7.59165
21
-3.0413
0
LINE
8
BLACK
6
CONTINUOUS
10
7.59165
20
-3.0413
11
7.60937
21
-3.0413
0
LINE
8
BLACK
6
CONTINUOUS
10
7.60937
20
-3.0413
11
7.61276
21
-3.04197
0
LINE
8
BLACK
6
CONTINUOUS
10
7.55174
20
-3.04197
11
7.55461
21
-3.04389
0
LINE
8
BLACK
6
CONTINUOUS
10
7.55461
20
-3.04389
11
7.55653
21
-3.04677
0
LINE
8
BLACK
6
CONTINUOUS
10
7.55653
20
-3.04677
11
7.5572
21
-3.05016
0
LINE
8
BLACK
6
CONTINUOUS
10
7.5572
20
-3.05016
11
7.5572
21
-3.06984
0
LINE
8
BLACK
6
CONTINUOUS
10
7.5572
20
-3.06984
11
7.55653
21
-3.07323
0
LINE
8
BLACK
6
CONTINUOUS
10
7.55653
20
-3.07323
11
7.55461
21
-3.07611
0
LINE
8
BLACK
6
CONTINUOUS
10
7.55461
20
-3.07611
11
7.55174
21
-3.07803
0
LINE
8
BLACK
6
CONTINUOUS
10
7.55174
20
-3.07803
11
7.54835
21
-3.0787
0
LINE
8
BLACK
6
CONTINUOUS
10
7.54835
20
-3.0787
11
7.53063
21
-3.0787
0
LINE
8
BLACK
6
CONTINUOUS
10
7.53063
20
-3.0787
11
7.52724
21
-3.07803
0
LINE
8
BLACK
6
CONTINUOUS
10
7.52724
20
-3.07803
11
7.52437
21
-3.07611
0
LINE
8
BLACK
6
CONTINUOUS
10
7.52437
20
-3.07611
11
7.52245
21
-3.07323
0
LINE
8
BLACK
6
CONTINUOUS
10
7.52245
20
-3.07323
11
7.52177
21
-3.06984
0
LINE
8
BLACK
6
CONTINUOUS
10
7.52177
20
-3.06984
11
7.52177
21
-3.05016
0
LINE
8
BLACK
6
CONTINUOUS
10
7.52177
20
-3.05016
11
7.52245
21
-3.04677
0
LINE
8
BLACK
6
CONTINUOUS
10
7.52245
20
-3.04677
11
7.52437
21
-3.04389
0
LINE
8
BLACK
6
CONTINUOUS
10
7.52437
20
-3.04389
11
7.52724
21
-3.04197
0
LINE
8
BLACK
6
CONTINUOUS
10
7.52724
20
-3.04197
11
7.53063
21
-3.0413
0
LINE
8
BLACK
6
CONTINUOUS
10
7.53063
20
-3.0413
11
7.54835
21
-3.0413
0
LINE
8
BLACK
6
CONTINUOUS
10
7.54835
20
-3.0413
11
7.55174
21
-3.04197
0
LINE
8
BLACK
6
CONTINUOUS
10
7.07225
20
-3.02197
11
7.07512
21
-3.02389
0
LINE
8
BLACK
6
CONTINUOUS
10
7.07512
20
-3.02389
11
7.07704
21
-3.02677
0
LINE
8
BLACK
6
CONTINUOUS
10
7.07704
20
-3.02677
11
7.07772
21
-3.03016
0
LINE
8
BLACK
6
CONTINUOUS
10
7.07772
20
-3.03016
11
7.07772
21
-3.04984
0
LINE
8
BLACK
6
CONTINUOUS
10
7.07772
20
-3.04984
11
7.07704
21
-3.05323
0
LINE
8
BLACK
6
CONTINUOUS
10
7.07704
20
-3.05323
11
7.07512
21
-3.05611
0
LINE
8
BLACK
6
CONTINUOUS
10
7.07512
20
-3.05611
11
7.07225
21
-3.05803
0
LINE
8
BLACK
6
CONTINUOUS
10
7.07225
20
-3.05803
11
7.06886
21
-3.0587
0
LINE
8
BLACK
6
CONTINUOUS
10
7.06886
20
-3.0587
11
7.05114
21
-3.0587
0
LINE
8
BLACK
6
CONTINUOUS
10
7.05114
20
-3.0587
11
7.04775
21
-3.05803
0
LINE
8
BLACK
6
CONTINUOUS
10
7.04775
20
-3.05803
11
7.04488
21
-3.05611
0
LINE
8
BLACK
6
CONTINUOUS
10
7.04488
20
-3.05611
11
7.04296
21
-3.05323
0
LINE
8
BLACK
6
CONTINUOUS
10
7.04296
20
-3.05323
11
7.04228
21
-3.04984
0
LINE
8
BLACK
6
CONTINUOUS
10
7.04228
20
-3.04984
11
7.04228
21
-3.03016
0
LINE
8
BLACK
6
CONTINUOUS
10
7.04228
20
-3.03016
11
7.04296
21
-3.02677
0
LINE
8
BLACK
6
CONTINUOUS
10
7.04296
20
-3.02677
11
7.04488
21
-3.02389
0
LINE
8
BLACK
6
CONTINUOUS
10
7.04488
20
-3.02389
11
7.04775
21
-3.02197
0
LINE
8
BLACK
6
CONTINUOUS
10
7.04775
20
-3.02197
11
7.05114
21
-3.0213
0
LINE
8
BLACK
6
CONTINUOUS
10
7.05114
20
-3.0213
11
7.06886
21
-3.0213
0
LINE
8
BLACK
6
CONTINUOUS
10
7.06886
20
-3.0213
11
7.07225
21
-3.02197
0
LINE
8
BLACK
6
CONTINUOUS
10
7.01122
20
-3.02197
11
7.0141
21
-3.02389
0
LINE
8
BLACK
6
CONTINUOUS
10
7.0141
20
-3.02389
11
7.01602
21
-3.02677
0
LINE
8
BLACK
6
CONTINUOUS
10
7.01602
20
-3.02677
11
7.01669
21
-3.03016
0
LINE
8
BLACK
6
CONTINUOUS
10
7.01669
20
-3.03016
11
7.01669
21
-3.04984
0
LINE
8
BLACK
6
CONTINUOUS
10
7.01669
20
-3.04984
11
7.01602
21
-3.05323
0
LINE
8
BLACK
6
CONTINUOUS
10
7.01602
20
-3.05323
11
7.0141
21
-3.05611
0
LINE
8
BLACK
6
CONTINUOUS
10
7.0141
20
-3.05611
11
7.01122
21
-3.05803
0
LINE
8
BLACK
6
CONTINUOUS
10
7.01122
20
-3.05803
11
7.00783
21
-3.0587
0
LINE
8
BLACK
6
CONTINUOUS
10
7.00783
20
-3.0587
11
6.99012
21
-3.0587
0
LINE
8
BLACK
6
CONTINUOUS
10
6.99012
20
-3.0587
11
6.98673
21
-3.05803
0
LINE
8
BLACK
6
CONTINUOUS
10
6.98673
20
-3.05803
11
6.98385
21
-3.05611
0
LINE
8
BLACK
6
CONTINUOUS
10
6.98385
20
-3.05611
11
6.98193
21
-3.05323
0
LINE
8
BLACK
6
CONTINUOUS
10
6.98193
20
-3.05323
11
6.98126
21
-3.04984
0
LINE
8
BLACK
6
CONTINUOUS
10
6.98126
20
-3.04984
11
6.98126
21
-3.03016
0
LINE
8
BLACK
6
CONTINUOUS
10
6.98126
20
-3.03016
11
6.98193
21
-3.02677
0
LINE
8
BLACK
6
CONTINUOUS
10
6.98193
20
-3.02677
11
6.98385
21
-3.02389
0
LINE
8
BLACK
6
CONTINUOUS
10
6.98385
20
-3.02389
11
6.98673
21
-3.02197
0
LINE
8
BLACK
6
CONTINUOUS
10
6.98673
20
-3.02197
11
6.99012
21
-3.0213
0
LINE
8
BLACK
6
CONTINUOUS
10
6.99012
20
-3.0213
11
7.00783
21
-3.0213
0
LINE
8
BLACK
6
CONTINUOUS
10
7.00783
20
-3.0213
11
7.01122
21
-3.02197
0
LINE
8
BLACK
6
CONTINUOUS
10
7.07276
20
-2.96197
11
7.07563
21
-2.96389
0
LINE
8
BLACK
6
CONTINUOUS
10
7.07563
20
-2.96389
11
7.07755
21
-2.96677
0
LINE
8
BLACK
6
CONTINUOUS
10
7.07755
20
-2.96677
11
7.07823
21
-2.97016
0
LINE
8
BLACK
6
CONTINUOUS
10
7.07823
20
-2.97016
11
7.07823
21
-2.98984
0
LINE
8
BLACK
6
CONTINUOUS
10
7.07823
20
-2.98984
11
7.07755
21
-2.99323
0
LINE
8
BLACK
6
CONTINUOUS
10
7.07755
20
-2.99323
11
7.07563
21
-2.99611
0
LINE
8
BLACK
6
CONTINUOUS
10
7.07563
20
-2.99611
11
7.07276
21
-2.99803
0
LINE
8
BLACK
6
CONTINUOUS
10
7.07276
20
-2.99803
11
7.06937
21
-2.9987
0
LINE
8
BLACK
6
CONTINUOUS
10
7.06937
20
-2.9987
11
7.05165
21
-2.9987
0
LINE
8
BLACK
6
CONTINUOUS
10
7.05165
20
-2.9987
11
7.04826
21
-2.99803
0
LINE
8
BLACK
6
CONTINUOUS
10
7.04826
20
-2.99803
11
7.04539
21
-2.99611
0
LINE
8
BLACK
6
CONTINUOUS
10
7.04539
20
-2.99611
11
7.04347
21
-2.99323
0
LINE
8
BLACK
6
CONTINUOUS
10
7.04347
20
-2.99323
11
7.0428
21
-2.98984
0
LINE
8
BLACK
6
CONTINUOUS
10
7.0428
20
-2.98984
11
7.0428
21
-2.97016
0
LINE
8
BLACK
6
CONTINUOUS
10
7.0428
20
-2.97016
11
7.04347
21
-2.96677
0
LINE
8
BLACK
6
CONTINUOUS
10
7.04347
20
-2.96677
11
7.04539
21
-2.96389
0
LINE
8
BLACK
6
CONTINUOUS
10
7.04539
20
-2.96389
11
7.04826
21
-2.96197
0
LINE
8
BLACK
6
CONTINUOUS
10
7.04826
20
-2.96197
11
7.05165
21
-2.9613
0
LINE
8
BLACK
6
CONTINUOUS
10
7.05165
20
-2.9613
11
7.06937
21
-2.9613
0
LINE
8
BLACK
6
CONTINUOUS
10
7.06937
20
-2.9613
11
7.07276
21
-2.96197
0
LINE
8
BLACK
6
CONTINUOUS
10
7.01174
20
-2.96197
11
7.01461
21
-2.96389
0
LINE
8
BLACK
6
CONTINUOUS
10
7.01461
20
-2.96389
11
7.01653
21
-2.96677
0
LINE
8
BLACK
6
CONTINUOUS
10
7.01653
20
-2.96677
11
7.0172
21
-2.97016
0
LINE
8
BLACK
6
CONTINUOUS
10
7.0172
20
-2.97016
11
7.0172
21
-2.98984
0
LINE
8
BLACK
6
CONTINUOUS
10
7.0172
20
-2.98984
11
7.01653
21
-2.99323
0
LINE
8
BLACK
6
CONTINUOUS
10
7.01653
20
-2.99323
11
7.01461
21
-2.99611
0
LINE
8
BLACK
6
CONTINUOUS
10
7.01461
20
-2.99611
11
7.01174
21
-2.99803
0
LINE
8
BLACK
6
CONTINUOUS
10
7.01174
20
-2.99803
11
7.00835
21
-2.9987
0
LINE
8
BLACK
6
CONTINUOUS
10
7.00835
20
-2.9987
11
6.99063
21
-2.9987
0
LINE
8
BLACK
6
CONTINUOUS
10
6.99063
20
-2.9987
11
6.98724
21
-2.99803
0
LINE
8
BLACK
6
CONTINUOUS
10
6.98724
20
-2.99803
11
6.98437
21
-2.99611
0
LINE
8
BLACK
6
CONTINUOUS
10
6.98437
20
-2.99611
11
6.98245
21
-2.99323
0
LINE
8
BLACK
6
CONTINUOUS
10
6.98245
20
-2.99323
11
6.98177
21
-2.98984
0
LINE
8
BLACK
6
CONTINUOUS
10
6.98177
20
-2.98984
11
6.98177
21
-2.97016
0
LINE
8
BLACK
6
CONTINUOUS
10
6.98177
20
-2.97016
11
6.98245
21
-2.96677
0
LINE
8
BLACK
6
CONTINUOUS
10
6.98245
20
-2.96677
11
6.98437
21
-2.96389
0
LINE
8
BLACK
6
CONTINUOUS
10
6.98437
20
-2.96389
11
6.98724
21
-2.96197
0
LINE
8
BLACK
6
CONTINUOUS
10
6.98724
20
-2.96197
11
6.99063
21
-2.9613
0
LINE
8
BLACK
6
CONTINUOUS
10
6.99063
20
-2.9613
11
7.00835
21
-2.9613
0
LINE
8
BLACK
6
CONTINUOUS
10
7.00835
20
-2.9613
11
7.01174
21
-2.96197
0
LINE
8
BLACK
6
CONTINUOUS
10
7.61276
20
-2.94197
11
7.61563
21
-2.94389
0
LINE
8
BLACK
6
CONTINUOUS
10
7.61563
20
-2.94389
11
7.61755
21
-2.94677
0
LINE
8
BLACK
6
CONTINUOUS
10
7.61755
20
-2.94677
11
7.61823
21
-2.95016
0
LINE
8
BLACK
6
CONTINUOUS
10
7.61823
20
-2.95016
11
7.61823
21
-2.96984
0
LINE
8
BLACK
6
CONTINUOUS
10
7.61823
20
-2.96984
11
7.61755
21
-2.97323
0
LINE
8
BLACK
6
CONTINUOUS
10
7.61755
20
-2.97323
11
7.61563
21
-2.97611
0
LINE
8
BLACK
6
CONTINUOUS
10
7.61563
20
-2.97611
11
7.61276
21
-2.97803
0
LINE
8
BLACK
6
CONTINUOUS
10
7.61276
20
-2.97803
11
7.60937
21
-2.9787
0
LINE
8
BLACK
6
CONTINUOUS
10
7.60937
20
-2.9787
11
7.59165
21
-2.9787
0
LINE
8
BLACK
6
CONTINUOUS
10
7.59165
20
-2.9787
11
7.58826
21
-2.97803
0
LINE
8
BLACK
6
CONTINUOUS
10
7.58826
20
-2.97803
11
7.58539
21
-2.97611
0
LINE
8
BLACK
6
CONTINUOUS
10
7.58539
20
-2.97611
11
7.58347
21
-2.97323
0
LINE
8
BLACK
6
CONTINUOUS
10
7.58347
20
-2.97323
11
7.5828
21
-2.96984
0
LINE
8
BLACK
6
CONTINUOUS
10
7.5828
20
-2.96984
11
7.5828
21
-2.95016
0
LINE
8
BLACK
6
CONTINUOUS
10
7.5828
20
-2.95016
11
7.58347
21
-2.94677
0
LINE
8
BLACK
6
CONTINUOUS
10
7.58347
20
-2.94677
11
7.58539
21
-2.94389
0
LINE
8
BLACK
6
CONTINUOUS
10
7.58539
20
-2.94389
11
7.58826
21
-2.94197
0
LINE
8
BLACK
6
CONTINUOUS
10
7.58826
20
-2.94197
11
7.59165
21
-2.9413
0
LINE
8
BLACK
6
CONTINUOUS
10
7.59165
20
-2.9413
11
7.60937
21
-2.9413
0
LINE
8
BLACK
6
CONTINUOUS
10
7.60937
20
-2.9413
11
7.61276
21
-2.94197
0
LINE
8
BLACK
6
CONTINUOUS
10
7.55174
20
-2.94197
11
7.55461
21
-2.94389
0
LINE
8
BLACK
6
CONTINUOUS
10
7.55461
20
-2.94389
11
7.55653
21
-2.94677
0
LINE
8
BLACK
6
CONTINUOUS
10
7.55653
20
-2.94677
11
7.5572
21
-2.95016
0
LINE
8
BLACK
6
CONTINUOUS
10
7.5572
20
-2.95016
11
7.5572
21
-2.96984
0
LINE
8
BLACK
6
CONTINUOUS
10
7.5572
20
-2.96984
11
7.55653
21
-2.97323
0
LINE
8
BLACK
6
CONTINUOUS
10
7.55653
20
-2.97323
11
7.55461
21
-2.97611
0
LINE
8
BLACK
6
CONTINUOUS
10
7.55461
20
-2.97611
11
7.55174
21
-2.97803
0
LINE
8
BLACK
6
CONTINUOUS
10
7.55174
20
-2.97803
11
7.54835
21
-2.9787
0
LINE
8
BLACK
6
CONTINUOUS
10
7.54835
20
-2.9787
11
7.53063
21
-2.9787
0
LINE
8
BLACK
6
CONTINUOUS
10
7.53063
20
-2.9787
11
7.52724
21
-2.97803
0
LINE
8
BLACK
6
CONTINUOUS
10
7.52724
20
-2.97803
11
7.52437
21
-2.97611
0
LINE
8
BLACK
6
CONTINUOUS
10
7.52437
20
-2.97611
11
7.52245
21
-2.97323
0
LINE
8
BLACK
6
CONTINUOUS
10
7.52245
20
-2.97323
11
7.52177
21
-2.96984
0
LINE
8
BLACK
6
CONTINUOUS
10
7.52177
20
-2.96984
11
7.52177
21
-2.95016
0
LINE
8
BLACK
6
CONTINUOUS
10
7.52177
20
-2.95016
11
7.52245
21
-2.94677
0
LINE
8
BLACK
6
CONTINUOUS
10
7.52245
20
-2.94677
11
7.52437
21
-2.94389
0
LINE
8
BLACK
6
CONTINUOUS
10
7.52437
20
-2.94389
11
7.52724
21
-2.94197
0
LINE
8
BLACK
6
CONTINUOUS
10
7.52724
20
-2.94197
11
7.53063
21
-2.9413
0
LINE
8
BLACK
6
CONTINUOUS
10
7.53063
20
-2.9413
11
7.54835
21
-2.9413
0
LINE
8
BLACK
6
CONTINUOUS
10
7.54835
20
-2.9413
11
7.55174
21
-2.94197
0
LINE
8
BLACK
6
CONTINUOUS
10
7.61276
20
-2.83197
11
7.61563
21
-2.83389
0
LINE
8
BLACK
6
CONTINUOUS
10
7.61563
20
-2.83389
11
7.61755
21
-2.83677
0
LINE
8
BLACK
6
CONTINUOUS
10
7.61755
20
-2.83677
11
7.61823
21
-2.84016
0
LINE
8
BLACK
6
CONTINUOUS
10
7.61823
20
-2.84016
11
7.61823
21
-2.85984
0
LINE
8
BLACK
6
CONTINUOUS
10
7.61823
20
-2.85984
11
7.61755
21
-2.86323
0
LINE
8
BLACK
6
CONTINUOUS
10
7.61755
20
-2.86323
11
7.61563
21
-2.86611
0
LINE
8
BLACK
6
CONTINUOUS
10
7.61563
20
-2.86611
11
7.61276
21
-2.86803
0
LINE
8
BLACK
6
CONTINUOUS
10
7.61276
20
-2.86803
11
7.60937
21
-2.8687
0
LINE
8
BLACK
6
CONTINUOUS
10
7.60937
20
-2.8687
11
7.59165
21
-2.8687
0
LINE
8
BLACK
6
CONTINUOUS
10
7.59165
20
-2.8687
11
7.58826
21
-2.86803
0
LINE
8
BLACK
6
CONTINUOUS
10
7.58826
20
-2.86803
11
7.58539
21
-2.86611
0
LINE
8
BLACK
6
CONTINUOUS
10
7.58539
20
-2.86611
11
7.58347
21
-2.86323
0
LINE
8
BLACK
6
CONTINUOUS
10
7.58347
20
-2.86323
11
7.5828
21
-2.85984
0
LINE
8
BLACK
6
CONTINUOUS
10
7.5828
20
-2.85984
11
7.5828
21
-2.84016
0
LINE
8
BLACK
6
CONTINUOUS
10
7.5828
20
-2.84016
11
7.58347
21
-2.83677
0
LINE
8
BLACK
6
CONTINUOUS
10
7.58347
20
-2.83677
11
7.58539
21
-2.83389
0
LINE
8
BLACK
6
CONTINUOUS
10
7.58539
20
-2.83389
11
7.58826
21
-2.83197
0
LINE
8
BLACK
6
CONTINUOUS
10
7.58826
20
-2.83197
11
7.59165
21
-2.8313
0
LINE
8
BLACK
6
CONTINUOUS
10
7.59165
20
-2.8313
11
7.60937
21
-2.8313
0
LINE
8
BLACK
6
CONTINUOUS
10
7.60937
20
-2.8313
11
7.61276
21
-2.83197
0
LINE
8
BLACK
6
CONTINUOUS
10
7.55174
20
-2.83197
11
7.55461
21
-2.83389
0
LINE
8
BLACK
6
CONTINUOUS
10
7.55461
20
-2.83389
11
7.55653
21
-2.83677
0
LINE
8
BLACK
6
CONTINUOUS
10
7.55653
20
-2.83677
11
7.5572
21
-2.84016
0
LINE
8
BLACK
6
CONTINUOUS
10
7.5572
20
-2.84016
11
7.5572
21
-2.85984
0
LINE
8
BLACK
6
CONTINUOUS
10
7.5572
20
-2.85984
11
7.55653
21
-2.86323
0
LINE
8
BLACK
6
CONTINUOUS
10
7.55653
20
-2.86323
11
7.55461
21
-2.86611
0
LINE
8
BLACK
6
CONTINUOUS
10
7.55461
20
-2.86611
11
7.55174
21
-2.86803
0
LINE
8
BLACK
6
CONTINUOUS
10
7.55174
20
-2.86803
11
7.54835
21
-2.8687
0
LINE
8
BLACK
6
CONTINUOUS
10
7.54835
20
-2.8687
11
7.53063
21
-2.8687
0
LINE
8
BLACK
6
CONTINUOUS
10
7.53063
20
-2.8687
11
7.52724
21
-2.86803
0
LINE
8
BLACK
6
CONTINUOUS
10
7.52724
20
-2.86803
11
7.52437
21
-2.86611
0
LINE
8
BLACK
6
CONTINUOUS
10
7.52437
20
-2.86611
11
7.52245
21
-2.86323
0
LINE
8
BLACK
6
CONTINUOUS
10
7.52245
20
-2.86323
11
7.52177
21
-2.85984
0
LINE
8
BLACK
6
CONTINUOUS
10
7.52177
20
-2.85984
11
7.52177
21
-2.84016
0
LINE
8
BLACK
6
CONTINUOUS
10
7.52177
20
-2.84016
11
7.52245
21
-2.83677
0
LINE
8
BLACK
6
CONTINUOUS
10
7.52245
20
-2.83677
11
7.52437
21
-2.83389
0
LINE
8
BLACK
6
CONTINUOUS
10
7.52437
20
-2.83389
11
7.52724
21
-2.83197
0
LINE
8
BLACK
6
CONTINUOUS
10
7.52724
20
-2.83197
11
7.53063
21
-2.8313
0
LINE
8
BLACK
6
CONTINUOUS
10
7.53063
20
-2.8313
11
7.54835
21
-2.8313
0
LINE
8
BLACK
6
CONTINUOUS
10
7.54835
20
-2.8313
11
7.55174
21
-2.83197
0
LINE
8
BLACK
6
CONTINUOUS
10
7.26323
20
-2.82347
11
7.26611
21
-2.82539
0
LINE
8
BLACK
6
CONTINUOUS
10
7.26611
20
-2.82539
11
7.26803
21
-2.82826
0
LINE
8
BLACK
6
CONTINUOUS
10
7.26803
20
-2.82826
11
7.2687
21
-2.83165
0
LINE
8
BLACK
6
CONTINUOUS
10
7.2687
20
-2.83165
11
7.2687
21
-2.84937
0
LINE
8
BLACK
6
CONTINUOUS
10
7.2687
20
-2.84937
11
7.26803
21
-2.85276
0
LINE
8
BLACK
6
CONTINUOUS
10
7.26803
20
-2.85276
11
7.26611
21
-2.85563
0
LINE
8
BLACK
6
CONTINUOUS
10
7.26611
20
-2.85563
11
7.26323
21
-2.85755
0
LINE
8
BLACK
6
CONTINUOUS
10
7.26323
20
-2.85755
11
7.25984
21
-2.85823
0
LINE
8
BLACK
6
CONTINUOUS
10
7.25984
20
-2.85823
11
7.24016
21
-2.85823
0
LINE
8
BLACK
6
CONTINUOUS
10
7.24016
20
-2.85823
11
7.23677
21
-2.85755
0
LINE
8
BLACK
6
CONTINUOUS
10
7.23677
20
-2.85755
11
7.23389
21
-2.85563
0
LINE
8
BLACK
6
CONTINUOUS
10
7.23389
20
-2.85563
11
7.23197
21
-2.85276
0
LINE
8
BLACK
6
CONTINUOUS
10
7.23197
20
-2.85276
11
7.2313
21
-2.84937
0
LINE
8
BLACK
6
CONTINUOUS
10
7.2313
20
-2.84937
11
7.2313
21
-2.83165
0
LINE
8
BLACK
6
CONTINUOUS
10
7.2313
20
-2.83165
11
7.23197
21
-2.82826
0
LINE
8
BLACK
6
CONTINUOUS
10
7.23197
20
-2.82826
11
7.23389
21
-2.82539
0
LINE
8
BLACK
6
CONTINUOUS
10
7.23389
20
-2.82539
11
7.23677
21
-2.82347
0
LINE
8
BLACK
6
CONTINUOUS
10
7.23677
20
-2.82347
11
7.24016
21
-2.8228
0
LINE
8
BLACK
6
CONTINUOUS
10
7.24016
20
-2.8228
11
7.25984
21
-2.8228
0
LINE
8
BLACK
6
CONTINUOUS
10
7.25984
20
-2.8228
11
7.26323
21
-2.82347
0
LINE
8
BLACK
6
CONTINUOUS
10
7.20323
20
-2.82347
11
7.20611
21
-2.82539
0
LINE
8
BLACK
6
CONTINUOUS
10
7.20611
20
-2.82539
11
7.20803
21
-2.82826
0
LINE
8
BLACK
6
CONTINUOUS
10
7.20803
20
-2.82826
11
7.2087
21
-2.83165
0
LINE
8
BLACK
6
CONTINUOUS
10
7.2087
20
-2.83165
11
7.2087
21
-2.84937
0
LINE
8
BLACK
6
CONTINUOUS
10
7.2087
20
-2.84937
11
7.20803
21
-2.85276
0
LINE
8
BLACK
6
CONTINUOUS
10
7.20803
20
-2.85276
11
7.20611
21
-2.85563
0
LINE
8
BLACK
6
CONTINUOUS
10
7.20611
20
-2.85563
11
7.20323
21
-2.85755
0
LINE
8
BLACK
6
CONTINUOUS
10
7.20323
20
-2.85755
11
7.19984
21
-2.85823
0
LINE
8
BLACK
6
CONTINUOUS
10
7.19984
20
-2.85823
11
7.18016
21
-2.85823
0
LINE
8
BLACK
6
CONTINUOUS
10
7.18016
20
-2.85823
11
7.17677
21
-2.85755
0
LINE
8
BLACK
6
CONTINUOUS
10
7.17677
20
-2.85755
11
7.17389
21
-2.85563
0
LINE
8
BLACK
6
CONTINUOUS
10
7.17389
20
-2.85563
11
7.17197
21
-2.85276
0
LINE
8
BLACK
6
CONTINUOUS
10
7.17197
20
-2.85276
11
7.1713
21
-2.84937
0
LINE
8
BLACK
6
CONTINUOUS
10
7.1713
20
-2.84937
11
7.1713
21
-2.83165
0
LINE
8
BLACK
6
CONTINUOUS
10
7.1713
20
-2.83165
11
7.17197
21
-2.82826
0
LINE
8
BLACK
6
CONTINUOUS
10
7.17197
20
-2.82826
11
7.17389
21
-2.82539
0
LINE
8
BLACK
6
CONTINUOUS
10
7.17389
20
-2.82539
11
7.17677
21
-2.82347
0
LINE
8
BLACK
6
CONTINUOUS
10
7.17677
20
-2.82347
11
7.18016
21
-2.8228
0
LINE
8
BLACK
6
CONTINUOUS
10
7.18016
20
-2.8228
11
7.19984
21
-2.8228
0
LINE
8
BLACK
6
CONTINUOUS
10
7.19984
20
-2.8228
11
7.20323
21
-2.82347
0
LINE
8
BLACK
6
CONTINUOUS
10
7.12323
20
-2.82347
11
7.12611
21
-2.82539
0
LINE
8
BLACK
6
CONTINUOUS
10
7.12611
20
-2.82539
11
7.12803
21
-2.82826
0
LINE
8
BLACK
6
CONTINUOUS
10
7.12803
20
-2.82826
11
7.1287
21
-2.83165
0
LINE
8
BLACK
6
CONTINUOUS
10
7.1287
20
-2.83165
11
7.1287
21
-2.84937
0
LINE
8
BLACK
6
CONTINUOUS
10
7.1287
20
-2.84937
11
7.12803
21
-2.85276
0
LINE
8
BLACK
6
CONTINUOUS
10
7.12803
20
-2.85276
11
7.12611
21
-2.85563
0
LINE
8
BLACK
6
CONTINUOUS
10
7.12611
20
-2.85563
11
7.12323
21
-2.85755
0
LINE
8
BLACK
6
CONTINUOUS
10
7.12323
20
-2.85755
11
7.11984
21
-2.85823
0
LINE
8
BLACK
6
CONTINUOUS
10
7.11984
20
-2.85823
11
7.10016
21
-2.85823
0
LINE
8
BLACK
6
CONTINUOUS
10
7.10016
20
-2.85823
11
7.09677
21
-2.85755
0
LINE
8
BLACK
6
CONTINUOUS
10
7.09677
20
-2.85755
11
7.09389
21
-2.85563
0
LINE
8
BLACK
6
CONTINUOUS
10
7.09389
20
-2.85563
11
7.09197
21
-2.85276
0
LINE
8
BLACK
6
CONTINUOUS
10
7.09197
20
-2.85276
11
7.0913
21
-2.84937
0
LINE
8
BLACK
6
CONTINUOUS
10
7.0913
20
-2.84937
11
7.0913
21
-2.83165
0
LINE
8
BLACK
6
CONTINUOUS
10
7.0913
20
-2.83165
11
7.09197
21
-2.82826
0
LINE
8
BLACK
6
CONTINUOUS
10
7.09197
20
-2.82826
11
7.09389
21
-2.82539
0
LINE
8
BLACK
6
CONTINUOUS
10
7.09389
20
-2.82539
11
7.09677
21
-2.82347
0
LINE
8
BLACK
6
CONTINUOUS
10
7.09677
20
-2.82347
11
7.10016
21
-2.8228
0
LINE
8
BLACK
6
CONTINUOUS
10
7.10016
20
-2.8228
11
7.11984
21
-2.8228
0
LINE
8
BLACK
6
CONTINUOUS
10
7.11984
20
-2.8228
11
7.12323
21
-2.82347
0
LINE
8
BLACK
6
CONTINUOUS
10
7.06323
20
-2.82347
11
7.06611
21
-2.82539
0
LINE
8
BLACK
6
CONTINUOUS
10
7.06611
20
-2.82539
11
7.06803
21
-2.82826
0
LINE
8
BLACK
6
CONTINUOUS
10
7.06803
20
-2.82826
11
7.0687
21
-2.83165
0
LINE
8
BLACK
6
CONTINUOUS
10
7.0687
20
-2.83165
11
7.0687
21
-2.84937
0
LINE
8
BLACK
6
CONTINUOUS
10
7.0687
20
-2.84937
11
7.06803
21
-2.85276
0
LINE
8
BLACK
6
CONTINUOUS
10
7.06803
20
-2.85276
11
7.06611
21
-2.85563
0
LINE
8
BLACK
6
CONTINUOUS
10
7.06611
20
-2.85563
11
7.06323
21
-2.85755
0
LINE
8
BLACK
6
CONTINUOUS
10
7.06323
20
-2.85755
11
7.05984
21
-2.85823
0
LINE
8
BLACK
6
CONTINUOUS
10
7.05984
20
-2.85823
11
7.04016
21
-2.85823
0
LINE
8
BLACK
6
CONTINUOUS
10
7.04016
20
-2.85823
11
7.03677
21
-2.85755
0
LINE
8
BLACK
6
CONTINUOUS
10
7.03677
20
-2.85755
11
7.03389
21
-2.85563
0
LINE
8
BLACK
6
CONTINUOUS
10
7.03389
20
-2.85563
11
7.03197
21
-2.85276
0
LINE
8
BLACK
6
CONTINUOUS
10
7.03197
20
-2.85276
11
7.0313
21
-2.84937
0
LINE
8
BLACK
6
CONTINUOUS
10
7.0313
20
-2.84937
11
7.0313
21
-2.83165
0
LINE
8
BLACK
6
CONTINUOUS
10
7.0313
20
-2.83165
11
7.03197
21
-2.82826
0
LINE
8
BLACK
6
CONTINUOUS
10
7.03197
20
-2.82826
11
7.03389
21
-2.82539
0
LINE
8
BLACK
6
CONTINUOUS
10
7.03389
20
-2.82539
11
7.03677
21
-2.82347
0
LINE
8
BLACK
6
CONTINUOUS
10
7.03677
20
-2.82347
11
7.04016
21
-2.8228
0
LINE
8
BLACK
6
CONTINUOUS
10
7.04016
20
-2.8228
11
7.05984
21
-2.8228
0
LINE
8
BLACK
6
CONTINUOUS
10
7.05984
20
-2.8228
11
7.06323
21
-2.82347
0
LINE
8
BLACK
6
CONTINUOUS
10
7.45323
20
-2.80347
11
7.45611
21
-2.80539
0
LINE
8
BLACK
6
CONTINUOUS
10
7.45611
20
-2.80539
11
7.45803
21
-2.80826
0
LINE
8
BLACK
6
CONTINUOUS
10
7.45803
20
-2.80826
11
7.4587
21
-2.81165
0
LINE
8
BLACK
6
CONTINUOUS
10
7.4587
20
-2.81165
11
7.4587
21
-2.82937
0
LINE
8
BLACK
6
CONTINUOUS
10
7.4587
20
-2.82937
11
7.45803
21
-2.83276
0
LINE
8
BLACK
6
CONTINUOUS
10
7.45803
20
-2.83276
11
7.45611
21
-2.83563
0
LINE
8
BLACK
6
CONTINUOUS
10
7.45611
20
-2.83563
11
7.45323
21
-2.83755
0
LINE
8
BLACK
6
CONTINUOUS
10
7.45323
20
-2.83755
11
7.44984
21
-2.83823
0
LINE
8
BLACK
6
CONTINUOUS
10
7.44984
20
-2.83823
11
7.43016
21
-2.83823
0
LINE
8
BLACK
6
CONTINUOUS
10
7.43016
20
-2.83823
11
7.42677
21
-2.83755
0
LINE
8
BLACK
6
CONTINUOUS
10
7.42677
20
-2.83755
11
7.42389
21
-2.83563
0
LINE
8
BLACK
6
CONTINUOUS
10
7.42389
20
-2.83563
11
7.42197
21
-2.83276
0
LINE
8
BLACK
6
CONTINUOUS
10
7.42197
20
-2.83276
11
7.4213
21
-2.82937
0
LINE
8
BLACK
6
CONTINUOUS
10
7.4213
20
-2.82937
11
7.4213
21
-2.81165
0
LINE
8
BLACK
6
CONTINUOUS
10
7.4213
20
-2.81165
11
7.42197
21
-2.80826
0
LINE
8
BLACK
6
CONTINUOUS
10
7.42197
20
-2.80826
11
7.42389
21
-2.80539
0
LINE
8
BLACK
6
CONTINUOUS
10
7.42389
20
-2.80539
11
7.42677
21
-2.80347
0
LINE
8
BLACK
6
CONTINUOUS
10
7.42677
20
-2.80347
11
7.43016
21
-2.8028
0
LINE
8
BLACK
6
CONTINUOUS
10
7.43016
20
-2.8028
11
7.44984
21
-2.8028
0
LINE
8
BLACK
6
CONTINUOUS
10
7.44984
20
-2.8028
11
7.45323
21
-2.80347
0
LINE
8
BLACK
6
CONTINUOUS
10
7.26323
20
-2.76245
11
7.26611
21
-2.76437
0
LINE
8
BLACK
6
CONTINUOUS
10
7.26611
20
-2.76437
11
7.26803
21
-2.76724
0
LINE
8
BLACK
6
CONTINUOUS
10
7.26803
20
-2.76724
11
7.2687
21
-2.77063
0
LINE
8
BLACK
6
CONTINUOUS
10
7.2687
20
-2.77063
11
7.2687
21
-2.78835
0
LINE
8
BLACK
6
CONTINUOUS
10
7.2687
20
-2.78835
11
7.26803
21
-2.79174
0
LINE
8
BLACK
6
CONTINUOUS
10
7.26803
20
-2.79174
11
7.26611
21
-2.79461
0
LINE
8
BLACK
6
CONTINUOUS
10
7.26611
20
-2.79461
11
7.26323
21
-2.79653
0
LINE
8
BLACK
6
CONTINUOUS
10
7.26323
20
-2.79653
11
7.25984
21
-2.7972
0
LINE
8
BLACK
6
CONTINUOUS
10
7.25984
20
-2.7972
11
7.24016
21
-2.7972
0
LINE
8
BLACK
6
CONTINUOUS
10
7.24016
20
-2.7972
11
7.23677
21
-2.79653
0
LINE
8
BLACK
6
CONTINUOUS
10
7.23677
20
-2.79653
11
7.23389
21
-2.79461
0
LINE
8
BLACK
6
CONTINUOUS
10
7.23389
20
-2.79461
11
7.23197
21
-2.79174
0
LINE
8
BLACK
6
CONTINUOUS
10
7.23197
20
-2.79174
11
7.2313
21
-2.78835
0
LINE
8
BLACK
6
CONTINUOUS
10
7.2313
20
-2.78835
11
7.2313
21
-2.77063
0
LINE
8
BLACK
6
CONTINUOUS
10
7.2313
20
-2.77063
11
7.23197
21
-2.76724
0
LINE
8
BLACK
6
CONTINUOUS
10
7.23197
20
-2.76724
11
7.23389
21
-2.76437
0
LINE
8
BLACK
6
CONTINUOUS
10
7.23389
20
-2.76437
11
7.23677
21
-2.76245
0
LINE
8
BLACK
6
CONTINUOUS
10
7.23677
20
-2.76245
11
7.24016
21
-2.76177
0
LINE
8
BLACK
6
CONTINUOUS
10
7.24016
20
-2.76177
11
7.25984
21
-2.76177
0
LINE
8
BLACK
6
CONTINUOUS
10
7.25984
20
-2.76177
11
7.26323
21
-2.76245
0
LINE
8
BLACK
6
CONTINUOUS
10
7.20323
20
-2.76245
11
7.20611
21
-2.76437
0
LINE
8
BLACK
6
CONTINUOUS
10
7.20611
20
-2.76437
11
7.20803
21
-2.76724
0
LINE
8
BLACK
6
CONTINUOUS
10
7.20803
20
-2.76724
11
7.2087
21
-2.77063
0
LINE
8
BLACK
6
CONTINUOUS
10
7.2087
20
-2.77063
11
7.2087
21
-2.78835
0
LINE
8
BLACK
6
CONTINUOUS
10
7.2087
20
-2.78835
11
7.20803
21
-2.79174
0
LINE
8
BLACK
6
CONTINUOUS
10
7.20803
20
-2.79174
11
7.20611
21
-2.79461
0
LINE
8
BLACK
6
CONTINUOUS
10
7.20611
20
-2.79461
11
7.20323
21
-2.79653
0
LINE
8
BLACK
6
CONTINUOUS
10
7.20323
20
-2.79653
11
7.19984
21
-2.7972
0
LINE
8
BLACK
6
CONTINUOUS
10
7.19984
20
-2.7972
11
7.18016
21
-2.7972
0
LINE
8
BLACK
6
CONTINUOUS
10
7.18016
20
-2.7972
11
7.17677
21
-2.79653
0
LINE
8
BLACK
6
CONTINUOUS
10
7.17677
20
-2.79653
11
7.17389
21
-2.79461
0
LINE
8
BLACK
6
CONTINUOUS
10
7.17389
20
-2.79461
11
7.17197
21
-2.79174
0
LINE
8
BLACK
6
CONTINUOUS
10
7.17197
20
-2.79174
11
7.1713
21
-2.78835
0
LINE
8
BLACK
6
CONTINUOUS
10
7.1713
20
-2.78835
11
7.1713
21
-2.77063
0
LINE
8
BLACK
6
CONTINUOUS
10
7.1713
20
-2.77063
11
7.17197
21
-2.76724
0
LINE
8
BLACK
6
CONTINUOUS
10
7.17197
20
-2.76724
11
7.17389
21
-2.76437
0
LINE
8
BLACK
6
CONTINUOUS
10
7.17389
20
-2.76437
11
7.17677
21
-2.76245
0
LINE
8
BLACK
6
CONTINUOUS
10
7.17677
20
-2.76245
11
7.18016
21
-2.76177
0
LINE
8
BLACK
6
CONTINUOUS
10
7.18016
20
-2.76177
11
7.19984
21
-2.76177
0
LINE
8
BLACK
6
CONTINUOUS
10
7.19984
20
-2.76177
11
7.20323
21
-2.76245
0
LINE
8
BLACK
6
CONTINUOUS
10
7.12323
20
-2.76245
11
7.12611
21
-2.76437
0
LINE
8
BLACK
6
CONTINUOUS
10
7.12611
20
-2.76437
11
7.12803
21
-2.76724
0
LINE
8
BLACK
6
CONTINUOUS
10
7.12803
20
-2.76724
11
7.1287
21
-2.77063
0
LINE
8
BLACK
6
CONTINUOUS
10
7.1287
20
-2.77063
11
7.1287
21
-2.78835
0
LINE
8
BLACK
6
CONTINUOUS
10
7.1287
20
-2.78835
11
7.12803
21
-2.79174
0
LINE
8
BLACK
6
CONTINUOUS
10
7.12803
20
-2.79174
11
7.12611
21
-2.79461
0
LINE
8
BLACK
6
CONTINUOUS
10
7.12611
20
-2.79461
11
7.12323
21
-2.79653
0
LINE
8
BLACK
6
CONTINUOUS
10
7.12323
20
-2.79653
11
7.11984
21
-2.7972
0
LINE
8
BLACK
6
CONTINUOUS
10
7.11984
20
-2.7972
11
7.10016
21
-2.7972
0
LINE
8
BLACK
6
CONTINUOUS
10
7.10016
20
-2.7972
11
7.09677
21
-2.79653
0
LINE
8
BLACK
6
CONTINUOUS
10
7.09677
20
-2.79653
11
7.09389
21
-2.79461
0
LINE
8
BLACK
6
CONTINUOUS
10
7.09389
20
-2.79461
11
7.09197
21
-2.79174
0
LINE
8
BLACK
6
CONTINUOUS
10
7.09197
20
-2.79174
11
7.0913
21
-2.78835
0
LINE
8
BLACK
6
CONTINUOUS
10
7.0913
20
-2.78835
11
7.0913
21
-2.77063
0
LINE
8
BLACK
6
CONTINUOUS
10
7.0913
20
-2.77063
11
7.09197
21
-2.76724
0
LINE
8
BLACK
6
CONTINUOUS
10
7.09197
20
-2.76724
11
7.09389
21
-2.76437
0
LINE
8
BLACK
6
CONTINUOUS
10
7.09389
20
-2.76437
11
7.09677
21
-2.76245
0
LINE
8
BLACK
6
CONTINUOUS
10
7.09677
20
-2.76245
11
7.10016
21
-2.76177
0
LINE
8
BLACK
6
CONTINUOUS
10
7.10016
20
-2.76177
11
7.11984
21
-2.76177
0
LINE
8
BLACK
6
CONTINUOUS
10
7.11984
20
-2.76177
11
7.12323
21
-2.76245
0
LINE
8
BLACK
6
CONTINUOUS
10
7.06323
20
-2.76245
11
7.06611
21
-2.76437
0
LINE
8
BLACK
6
CONTINUOUS
10
7.06611
20
-2.76437
11
7.06803
21
-2.76724
0
LINE
8
BLACK
6
CONTINUOUS
10
7.06803
20
-2.76724
11
7.0687
21
-2.77063
0
LINE
8
BLACK
6
CONTINUOUS
10
7.0687
20
-2.77063
11
7.0687
21
-2.78835
0
LINE
8
BLACK
6
CONTINUOUS
10
7.0687
20
-2.78835
11
7.06803
21
-2.79174
0
LINE
8
BLACK
6
CONTINUOUS
10
7.06803
20
-2.79174
11
7.06611
21
-2.79461
0
LINE
8
BLACK
6
CONTINUOUS
10
7.06611
20
-2.79461
11
7.06323
21
-2.79653
0
LINE
8
BLACK
6
CONTINUOUS
10
7.06323
20
-2.79653
11
7.05984
21
-2.7972
0
LINE
8
BLACK
6
CONTINUOUS
10
7.05984
20
-2.7972
11
7.04016
21
-2.7972
0
LINE
8
BLACK
6
CONTINUOUS
10
7.04016
20
-2.7972
11
7.03677
21
-2.79653
0
LINE
8
BLACK
6
CONTINUOUS
10
7.03677
20
-2.79653
11
7.03389
21
-2.79461
0
LINE
8
BLACK
6
CONTINUOUS
10
7.03389
20
-2.79461
11
7.03197
21
-2.79174
0
LINE
8
BLACK
6
CONTINUOUS
10
7.03197
20
-2.79174
11
7.0313
21
-2.78835
0
LINE
8
BLACK
6
CONTINUOUS
10
7.0313
20
-2.78835
11
7.0313
21
-2.77063
0
LINE
8
BLACK
6
CONTINUOUS
10
7.0313
20
-2.77063
11
7.03197
21
-2.76724
0
LINE
8
BLACK
6
CONTINUOUS
10
7.03197
20
-2.76724
11
7.03389
21
-2.76437
0
LINE
8
BLACK
6
CONTINUOUS
10
7.03389
20
-2.76437
11
7.03677
21
-2.76245
0
LINE
8
BLACK
6
CONTINUOUS
10
7.03677
20
-2.76245
11
7.04016
21
-2.76177
0
LINE
8
BLACK
6
CONTINUOUS
10
7.04016
20
-2.76177
11
7.05984
21
-2.76177
0
LINE
8
BLACK
6
CONTINUOUS
10
7.05984
20
-2.76177
11
7.06323
21
-2.76245
0
LINE
8
BLACK
6
CONTINUOUS
10
7.45323
20
-2.74245
11
7.45611
21
-2.74437
0
LINE
8
BLACK
6
CONTINUOUS
10
7.45611
20
-2.74437
11
7.45803
21
-2.74724
0
LINE
8
BLACK
6
CONTINUOUS
10
7.45803
20
-2.74724
11
7.4587
21
-2.75063
0
LINE
8
BLACK
6
CONTINUOUS
10
7.4587
20
-2.75063
11
7.4587
21
-2.76835
0
LINE
8
BLACK
6
CONTINUOUS
10
7.4587
20
-2.76835
11
7.45803
21
-2.77174
0
LINE
8
BLACK
6
CONTINUOUS
10
7.45803
20
-2.77174
11
7.45611
21
-2.77461
0
LINE
8
BLACK
6
CONTINUOUS
10
7.45611
20
-2.77461
11
7.45323
21
-2.77653
0
LINE
8
BLACK
6
CONTINUOUS
10
7.45323
20
-2.77653
11
7.44984
21
-2.7772
0
LINE
8
BLACK
6
CONTINUOUS
10
7.44984
20
-2.7772
11
7.43016
21
-2.7772
0
LINE
8
BLACK
6
CONTINUOUS
10
7.43016
20
-2.7772
11
7.42677
21
-2.77653
0
LINE
8
BLACK
6
CONTINUOUS
10
7.42677
20
-2.77653
11
7.42389
21
-2.77461
0
LINE
8
BLACK
6
CONTINUOUS
10
7.42389
20
-2.77461
11
7.42197
21
-2.77174
0
LINE
8
BLACK
6
CONTINUOUS
10
7.42197
20
-2.77174
11
7.4213
21
-2.76835
0
LINE
8
BLACK
6
CONTINUOUS
10
7.4213
20
-2.76835
11
7.4213
21
-2.75063
0
LINE
8
BLACK
6
CONTINUOUS
10
7.4213
20
-2.75063
11
7.42197
21
-2.74724
0
LINE
8
BLACK
6
CONTINUOUS
10
7.42197
20
-2.74724
11
7.42389
21
-2.74437
0
LINE
8
BLACK
6
CONTINUOUS
10
7.42389
20
-2.74437
11
7.42677
21
-2.74245
0
LINE
8
BLACK
6
CONTINUOUS
10
7.42677
20
-2.74245
11
7.43016
21
-2.74177
0
LINE
8
BLACK
6
CONTINUOUS
10
7.43016
20
-2.74177
11
7.44984
21
-2.74177
0
LINE
8
BLACK
6
CONTINUOUS
10
7.44984
20
-2.74177
11
7.45323
21
-2.74245
  0
ENDSEC
  0
EOF
