M48
; DRILL file {KiCad 7.0.1} date Fri May 19 01:22:11 2023
; FORMAT={3:3/ absolute / metric / suppress leading zeros}
; #@! TF.CreationDate,2023-05-19T01:22:11+09:00
; #@! TF.GenerationSoftware,Kicad,Pcbnew,7.0.1
; #@! TF.FileFunction,Plated,1,4,PTH
FMAT,2
METRIC,TZ
; #@! TA.AperFunction,Plated,PTH,ViaDrill
T1C0.400
; #@! TA.AperFunction,Plated,PTH,ComponentDrill
T2C1.000
%
G90
G05
T1
X165862Y-62484
X165862Y-92202
X165862Y-94488
X165862Y-97028
X167386Y-60960
X167386Y-62484
X167386Y-92202
X167894Y-94488
X167894Y-97028
X168656Y-92202
X168910Y-59436
X168910Y-60960
X169164Y-62484
X170180Y-92202
X170180Y-93726
X170180Y-95250
X170180Y-97028
X170688Y-57658
X170688Y-59436
X170688Y-60960
X170688Y-62484
X178290Y-76806
X178689Y-69723
X179121Y-78080
X179926Y-68542
X180704Y-84335
X181536Y-71272
X181705Y-84269
X181737Y-73914
X181737Y-75692
X181737Y-77470
X181737Y-79121
X181737Y-80899
X182936Y-68435
X183208Y-83869
X183769Y-73914
X183769Y-75692
X183769Y-77470
X183769Y-79121
X183769Y-80899
X183933Y-68468
X184667Y-71604
X186182Y-84455
X186817Y-74041
X186817Y-75819
X186817Y-77470
X186817Y-79121
X186817Y-80899
X187655Y-83363
X187706Y-71501
X188849Y-74041
X188849Y-75819
X188849Y-77470
X188849Y-79121
X188849Y-80899
X188976Y-67945
X189992Y-84328
X190119Y-71628
X191389Y-76327
X191516Y-79756
X191643Y-71628
X191668Y-83668
X194495Y-71755
X194716Y-75641
X194818Y-77851
X194945Y-81695
X197307Y-70612
X197528Y-72532
X200660Y-57658
X200660Y-59690
X200660Y-61722
X200914Y-92710
X200914Y-94234
X200914Y-95504
X200914Y-97028
X202184Y-61722
X202946Y-57658
X202946Y-59690
X202946Y-92710
X202946Y-94742
X202946Y-97028
X203708Y-61722
X204978Y-92710
X204978Y-94742
X204978Y-97028
X205232Y-57658
X205232Y-59690
X205232Y-61722
T2
X167640Y-66040
X167640Y-68580
X167640Y-71120
X167640Y-73660
X167640Y-76200
X167640Y-78740
X167640Y-81280
X167640Y-83820
X167640Y-86360
X167640Y-88900
X170180Y-66040
X170180Y-68580
X170180Y-71120
X170180Y-73660
X170180Y-76200
X170180Y-78740
X170180Y-81280
X170180Y-83820
X170180Y-86360
X170180Y-88900
X173990Y-59690
X173990Y-62230
X173990Y-92710
X173990Y-95250
X176530Y-59690
X176530Y-62230
X176530Y-92710
X176530Y-95250
X179070Y-59690
X179070Y-62230
X179070Y-92710
X179070Y-95250
X181610Y-59690
X181610Y-62230
X181610Y-92710
X181610Y-95250
X184150Y-59690
X184150Y-62230
X184150Y-92710
X184150Y-95250
X186690Y-59690
X186690Y-62230
X186690Y-92710
X186690Y-95250
X189230Y-59690
X189230Y-62230
X189230Y-92710
X189230Y-95250
X191770Y-59690
X191770Y-62230
X191770Y-92710
X191770Y-95250
X194310Y-59690
X194310Y-62230
X194310Y-92710
X194310Y-95250
X196850Y-59690
X196850Y-62230
X196850Y-92710
X196850Y-95250
X200660Y-66040
X200660Y-68580
X200660Y-71120
X200660Y-73660
X200660Y-76200
X200660Y-78740
X200660Y-81280
X200660Y-83820
X200660Y-86360
X200660Y-88900
X203200Y-66040
X203200Y-68580
X203200Y-71120
X203200Y-73660
X203200Y-76200
X203200Y-78740
X203200Y-81280
X203200Y-83820
X203200Y-86360
X203200Y-88900
T0
M30
