  0
SECTION
  2
HEADER
  9
$ANGBASE
  50
0.0
  9
$ANGDIR
  70
1
  9
$MEASUREMENT
  70
1
  0
ENDSEC
  0
SECTION
  2
TABLES
  0
TABLE
  2
LTYPE
  70
4
  0
LTYPE
  5
40F
  2
CONTINUOUS
  70
0
  3
Solid line
  72
65
  73
0
  40
0.0
  0
LTYPE
  5
410
  2
DASHDOT
 70
0
  3
Dash Dot ____ _ ____ _
 72
65
 73
4
 40
2.0
 49
1.25
 49
-0.25
 49
0.25
 49
-0.25
  0
LTYPE
  5
411
  2
DASHED
 70
0
  3
Dashed __ __ __ __ __
 72
65
 73
2
 40
0.75
 49
0.5
 49
-0.25
  0
LTYPE
  5
43B
  2
DOTTED
 70
0
  3
Dotted .  .  .  .
 72
65
 73
2
 40
0.2
 49
0.0
 49
-0.2
  0
ENDTAB
  0
TABLE
  2
STYLE
  70
4
  0
STYLE
  2
KICAD
  70
0
  40
0
  41
1
  42
1
  50
0
  71
0
  3
isocp.shx
  0
STYLE
  2
KICADB
  70
0
  40
0
  41
1
  42
1
  50
0
  71
0
  3
isocp.shx
  0
STYLE
  2
KICADI
  70
0
  40
0
  41
1
  42
1
  50
15
  71
0
  3
isocp.shx
  0
STYLE
  2
KICADBI
  70
0
  40
0
  41
1
  42
1
  50
15
  71
0
  3
isocp.shx
  0
ENDTAB
  0
TABLE
  2
LAYER
  70
1
  0
LAYER
  2
BLACK
  70
0
  62
7
  6
CONTINUOUS
  0
ENDTAB
  0
ENDSEC
  0
SECTION
  2
ENTITIES
0
LINE
8
BLACK
6
CONTINUOUS
10
205.74
20
-57.15
11
170.18
21
-57.15
0
LINE
8
BLACK
6
CONTINUOUS
10
205.74
20
-97.79
11
205.74
21
-57.15
0
LINE
8
BLACK
6
CONTINUOUS
10
170.18
20
-57.15
11
165.1
21
-62.23
0
LINE
8
BLACK
6
CONTINUOUS
10
165.1
20
-97.79
11
205.74
21
-97.79
0
LINE
8
BLACK
6
CONTINUOUS
10
165.1
20
-62.23
11
165.1
21
-97.79
0
LINE
8
BLACK
6
CONTINUOUS
10
167.526
20
-100.965
11
167.526
21
-98.9652
0
LINE
8
BLACK
6
CONTINUOUS
10
167.526
20
-98.9652
11
168.002
21
-98.9652
0
LINE
8
BLACK
6
CONTINUOUS
10
168.002
20
-98.9652
11
168.288
21
-99.0605
0
LINE
8
BLACK
6
CONTINUOUS
10
168.288
20
-99.0605
11
168.479
21
-99.251
0
LINE
8
BLACK
6
CONTINUOUS
10
168.479
20
-99.251
11
168.574
21
-99.4414
0
LINE
8
BLACK
6
CONTINUOUS
10
168.574
20
-99.4414
11
168.669
21
-99.8224
0
LINE
8
BLACK
6
CONTINUOUS
10
168.669
20
-99.8224
11
168.669
21
-100.108
0
LINE
8
BLACK
6
CONTINUOUS
10
168.669
20
-100.108
11
168.574
21
-100.489
0
LINE
8
BLACK
6
CONTINUOUS
10
168.574
20
-100.489
11
168.479
21
-100.68
0
LINE
8
BLACK
6
CONTINUOUS
10
168.479
20
-100.68
11
168.288
21
-100.87
0
LINE
8
BLACK
6
CONTINUOUS
10
168.288
20
-100.87
11
168.002
21
-100.965
0
LINE
8
BLACK
6
CONTINUOUS
10
168.002
20
-100.965
11
167.526
21
-100.965
0
LINE
8
BLACK
6
CONTINUOUS
10
169.526
20
-100.965
11
169.526
21
-99.6319
0
LINE
8
BLACK
6
CONTINUOUS
10
169.526
20
-100.013
11
169.621
21
-99.8224
0
LINE
8
BLACK
6
CONTINUOUS
10
169.621
20
-99.8224
11
169.717
21
-99.7271
0
LINE
8
BLACK
6
CONTINUOUS
10
169.717
20
-99.7271
11
169.907
21
-99.6319
0
LINE
8
BLACK
6
CONTINUOUS
10
169.907
20
-99.6319
11
170.098
21
-99.6319
0
LINE
8
BLACK
6
CONTINUOUS
10
170.764
20
-100.965
11
170.764
21
-99.6319
0
LINE
8
BLACK
6
CONTINUOUS
10
170.764
20
-98.9652
11
170.669
21
-99.0605
0
LINE
8
BLACK
6
CONTINUOUS
10
170.669
20
-99.0605
11
170.764
21
-99.1557
0
LINE
8
BLACK
6
CONTINUOUS
10
170.764
20
-99.1557
11
170.86
21
-99.0605
0
LINE
8
BLACK
6
CONTINUOUS
10
170.86
20
-99.0605
11
170.764
21
-98.9652
0
LINE
8
BLACK
6
CONTINUOUS
10
170.764
20
-98.9652
11
170.764
21
-99.1557
0
LINE
8
BLACK
6
CONTINUOUS
10
172.002
20
-100.965
11
171.812
21
-100.87
0
LINE
8
BLACK
6
CONTINUOUS
10
171.812
20
-100.87
11
171.717
21
-100.68
0
LINE
8
BLACK
6
CONTINUOUS
10
171.717
20
-100.68
11
171.717
21
-98.9652
0
LINE
8
BLACK
6
CONTINUOUS
10
173.05
20
-100.965
11
172.86
21
-100.87
0
LINE
8
BLACK
6
CONTINUOUS
10
172.86
20
-100.87
11
172.764
21
-100.68
0
LINE
8
BLACK
6
CONTINUOUS
10
172.764
20
-100.68
11
172.764
21
-98.9652
0
LINE
8
BLACK
6
CONTINUOUS
10
175.336
20
-100.965
11
175.336
21
-98.9652
0
LINE
8
BLACK
6
CONTINUOUS
10
175.336
20
-98.9652
11
176.002
21
-100.394
0
LINE
8
BLACK
6
CONTINUOUS
10
176.002
20
-100.394
11
176.669
21
-98.9652
0
LINE
8
BLACK
6
CONTINUOUS
10
176.669
20
-98.9652
11
176.669
21
-100.965
0
LINE
8
BLACK
6
CONTINUOUS
10
178.479
20
-100.965
11
178.479
21
-99.9176
0
LINE
8
BLACK
6
CONTINUOUS
10
178.479
20
-99.9176
11
178.383
21
-99.7271
0
LINE
8
BLACK
6
CONTINUOUS
10
178.383
20
-99.7271
11
178.193
21
-99.6319
0
LINE
8
BLACK
6
CONTINUOUS
10
178.193
20
-99.6319
11
177.812
21
-99.6319
0
LINE
8
BLACK
6
CONTINUOUS
10
177.812
20
-99.6319
11
177.621
21
-99.7271
0
LINE
8
BLACK
6
CONTINUOUS
10
178.479
20
-100.87
11
178.288
21
-100.965
0
LINE
8
BLACK
6
CONTINUOUS
10
178.288
20
-100.965
11
177.812
21
-100.965
0
LINE
8
BLACK
6
CONTINUOUS
10
177.812
20
-100.965
11
177.621
21
-100.87
0
LINE
8
BLACK
6
CONTINUOUS
10
177.621
20
-100.87
11
177.526
21
-100.68
0
LINE
8
BLACK
6
CONTINUOUS
10
177.526
20
-100.68
11
177.526
21
-100.489
0
LINE
8
BLACK
6
CONTINUOUS
10
177.526
20
-100.489
11
177.621
21
-100.299
0
LINE
8
BLACK
6
CONTINUOUS
10
177.621
20
-100.299
11
177.812
21
-100.203
0
LINE
8
BLACK
6
CONTINUOUS
10
177.812
20
-100.203
11
178.288
21
-100.203
0
LINE
8
BLACK
6
CONTINUOUS
10
178.288
20
-100.203
11
178.479
21
-100.108
0
LINE
8
BLACK
6
CONTINUOUS
10
179.431
20
-99.6319
11
179.431
21
-101.632
0
LINE
8
BLACK
6
CONTINUOUS
10
179.431
20
-99.7271
11
179.621
21
-99.6319
0
LINE
8
BLACK
6
CONTINUOUS
10
179.621
20
-99.6319
11
180.002
21
-99.6319
0
LINE
8
BLACK
6
CONTINUOUS
10
180.002
20
-99.6319
11
180.193
21
-99.7271
0
LINE
8
BLACK
6
CONTINUOUS
10
180.193
20
-99.7271
11
180.288
21
-99.8224
0
LINE
8
BLACK
6
CONTINUOUS
10
180.288
20
-99.8224
11
180.383
21
-100.013
0
LINE
8
BLACK
6
CONTINUOUS
10
180.383
20
-100.013
11
180.383
21
-100.584
0
LINE
8
BLACK
6
CONTINUOUS
10
180.383
20
-100.584
11
180.288
21
-100.775
0
LINE
8
BLACK
6
CONTINUOUS
10
180.288
20
-100.775
11
180.193
21
-100.87
0
LINE
8
BLACK
6
CONTINUOUS
10
180.193
20
-100.87
11
180.002
21
-100.965
0
LINE
8
BLACK
6
CONTINUOUS
10
180.002
20
-100.965
11
179.621
21
-100.965
0
LINE
8
BLACK
6
CONTINUOUS
10
179.621
20
-100.965
11
179.431
21
-100.87
0
LINE
8
BLACK
6
CONTINUOUS
10
181.24
20
-100.775
11
181.336
21
-100.87
0
LINE
8
BLACK
6
CONTINUOUS
10
181.336
20
-100.87
11
181.24
21
-100.965
0
LINE
8
BLACK
6
CONTINUOUS
10
181.24
20
-100.965
11
181.145
21
-100.87
0
LINE
8
BLACK
6
CONTINUOUS
10
181.145
20
-100.87
11
181.24
21
-100.775
0
LINE
8
BLACK
6
CONTINUOUS
10
181.24
20
-100.775
11
181.24
21
-100.965
0
LINE
8
BLACK
6
CONTINUOUS
10
181.24
20
-99.7271
11
181.336
21
-99.8224
0
LINE
8
BLACK
6
CONTINUOUS
10
181.336
20
-99.8224
11
181.24
21
-99.9176
0
LINE
8
BLACK
6
CONTINUOUS
10
181.24
20
-99.9176
11
181.145
21
-99.8224
0
LINE
8
BLACK
6
CONTINUOUS
10
181.145
20
-99.8224
11
181.24
21
-99.7271
0
LINE
8
BLACK
6
CONTINUOUS
10
181.24
20
-99.7271
11
181.24
21
-99.9176
  0
ENDSEC
  0
EOF
