  0
SECTION
  2
HEADER
  9
$ANGBASE
  50
0.0
  9
$ANGDIR
  70
1
  9
$MEASUREMENT
  70
1
  0
ENDSEC
  0
SECTION
  2
TABLES
  0
TABLE
  2
LTYPE
  70
4
  0
LTYPE
  5
40F
  2
CONTINUOUS
  70
0
  3
Solid line
  72
65
  73
0
  40
0.0
  0
LTYPE
  5
410
  2
DASHDOT
 70
0
  3
Dash Dot ____ _ ____ _
 72
65
 73
4
 40
2.0
 49
1.25
 49
-0.25
 49
0.25
 49
-0.25
  0
LTYPE
  5
411
  2
DASHED
 70
0
  3
Dashed __ __ __ __ __
 72
65
 73
2
 40
0.75
 49
0.5
 49
-0.25
  0
LTYPE
  5
43B
  2
DOTTED
 70
0
  3
Dotted .  .  .  .
 72
65
 73
2
 40
0.2
 49
0.0
 49
-0.2
  0
ENDTAB
  0
TABLE
  2
STYLE
  70
4
  0
STYLE
  2
KICAD
  70
0
  40
0
  41
1
  42
1
  50
0
  71
0
  3
isocp.shx
  0
STYLE
  2
KICADB
  70
0
  40
0
  41
1
  42
1
  50
0
  71
0
  3
isocp.shx
  0
STYLE
  2
KICADI
  70
0
  40
0
  41
1
  42
1
  50
15
  71
0
  3
isocp.shx
  0
STYLE
  2
KICADBI
  70
0
  40
0
  41
1
  42
1
  50
15
  71
0
  3
isocp.shx
  0
ENDTAB
  0
TABLE
  2
LAYER
  70
1
  0
LAYER
  2
BLACK
  70
0
  62
7
  6
CONTINUOUS
  0
ENDTAB
  0
ENDSEC
  0
SECTION
  2
ENTITIES
0
LINE
8
BLACK
6
CONTINUOUS
10
205.74
20
-57.15
11
170.18
21
-57.15
0
LINE
8
BLACK
6
CONTINUOUS
10
205.74
20
-97.79
11
205.74
21
-57.15
0
LINE
8
BLACK
6
CONTINUOUS
10
170.18
20
-57.15
11
165.1
21
-62.23
0
LINE
8
BLACK
6
CONTINUOUS
10
165.1
20
-97.79
11
205.74
21
-97.79
0
LINE
8
BLACK
6
CONTINUOUS
10
165.1
20
-62.23
11
165.1
21
-97.79
0
LINE
8
BLACK
6
CONTINUOUS
10
165.662
20
-62.284
11
166.062
21
-62.684
0
LINE
8
BLACK
6
CONTINUOUS
10
166.062
20
-62.284
11
165.662
21
-62.684
0
LINE
8
BLACK
6
CONTINUOUS
10
165.662
20
-92.002
11
166.062
21
-92.402
0
LINE
8
BLACK
6
CONTINUOUS
10
166.062
20
-92.002
11
165.662
21
-92.402
0
LINE
8
BLACK
6
CONTINUOUS
10
165.662
20
-94.288
11
166.062
21
-94.688
0
LINE
8
BLACK
6
CONTINUOUS
10
166.062
20
-94.288
11
165.662
21
-94.688
0
LINE
8
BLACK
6
CONTINUOUS
10
165.662
20
-96.828
11
166.062
21
-97.228
0
LINE
8
BLACK
6
CONTINUOUS
10
166.062
20
-96.828
11
165.662
21
-97.228
0
LINE
8
BLACK
6
CONTINUOUS
10
167.186
20
-60.76
11
167.586
21
-61.16
0
LINE
8
BLACK
6
CONTINUOUS
10
167.586
20
-60.76
11
167.186
21
-61.16
0
LINE
8
BLACK
6
CONTINUOUS
10
167.186
20
-62.284
11
167.586
21
-62.684
0
LINE
8
BLACK
6
CONTINUOUS
10
167.586
20
-62.284
11
167.186
21
-62.684
0
LINE
8
BLACK
6
CONTINUOUS
10
167.186
20
-92.002
11
167.586
21
-92.402
0
LINE
8
BLACK
6
CONTINUOUS
10
167.586
20
-92.002
11
167.186
21
-92.402
0
LINE
8
BLACK
6
CONTINUOUS
10
167.694
20
-94.288
11
168.094
21
-94.688
0
LINE
8
BLACK
6
CONTINUOUS
10
168.094
20
-94.288
11
167.694
21
-94.688
0
LINE
8
BLACK
6
CONTINUOUS
10
167.694
20
-96.828
11
168.094
21
-97.228
0
LINE
8
BLACK
6
CONTINUOUS
10
168.094
20
-96.828
11
167.694
21
-97.228
0
LINE
8
BLACK
6
CONTINUOUS
10
168.456
20
-92.002
11
168.856
21
-92.402
0
LINE
8
BLACK
6
CONTINUOUS
10
168.856
20
-92.002
11
168.456
21
-92.402
0
LINE
8
BLACK
6
CONTINUOUS
10
168.71
20
-59.236
11
169.11
21
-59.636
0
LINE
8
BLACK
6
CONTINUOUS
10
169.11
20
-59.236
11
168.71
21
-59.636
0
LINE
8
BLACK
6
CONTINUOUS
10
168.71
20
-60.76
11
169.11
21
-61.16
0
LINE
8
BLACK
6
CONTINUOUS
10
169.11
20
-60.76
11
168.71
21
-61.16
0
LINE
8
BLACK
6
CONTINUOUS
10
168.964
20
-62.284
11
169.364
21
-62.684
0
LINE
8
BLACK
6
CONTINUOUS
10
169.364
20
-62.284
11
168.964
21
-62.684
0
LINE
8
BLACK
6
CONTINUOUS
10
169.98
20
-92.002
11
170.38
21
-92.402
0
LINE
8
BLACK
6
CONTINUOUS
10
170.38
20
-92.002
11
169.98
21
-92.402
0
LINE
8
BLACK
6
CONTINUOUS
10
169.98
20
-93.526
11
170.38
21
-93.926
0
LINE
8
BLACK
6
CONTINUOUS
10
170.38
20
-93.526
11
169.98
21
-93.926
0
LINE
8
BLACK
6
CONTINUOUS
10
169.98
20
-95.05
11
170.38
21
-95.45
0
LINE
8
BLACK
6
CONTINUOUS
10
170.38
20
-95.05
11
169.98
21
-95.45
0
LINE
8
BLACK
6
CONTINUOUS
10
169.98
20
-96.828
11
170.38
21
-97.228
0
LINE
8
BLACK
6
CONTINUOUS
10
170.38
20
-96.828
11
169.98
21
-97.228
0
LINE
8
BLACK
6
CONTINUOUS
10
170.488
20
-57.458
11
170.888
21
-57.858
0
LINE
8
BLACK
6
CONTINUOUS
10
170.888
20
-57.458
11
170.488
21
-57.858
0
LINE
8
BLACK
6
CONTINUOUS
10
170.488
20
-59.236
11
170.888
21
-59.636
0
LINE
8
BLACK
6
CONTINUOUS
10
170.888
20
-59.236
11
170.488
21
-59.636
0
LINE
8
BLACK
6
CONTINUOUS
10
170.488
20
-60.76
11
170.888
21
-61.16
0
LINE
8
BLACK
6
CONTINUOUS
10
170.888
20
-60.76
11
170.488
21
-61.16
0
LINE
8
BLACK
6
CONTINUOUS
10
170.488
20
-62.284
11
170.888
21
-62.684
0
LINE
8
BLACK
6
CONTINUOUS
10
170.888
20
-62.284
11
170.488
21
-62.684
0
LINE
8
BLACK
6
CONTINUOUS
10
178.09
20
-76.6064
11
178.49
21
-77.0064
0
LINE
8
BLACK
6
CONTINUOUS
10
178.49
20
-76.6064
11
178.09
21
-77.0064
0
LINE
8
BLACK
6
CONTINUOUS
10
178.489
20
-69.523
11
178.889
21
-69.923
0
LINE
8
BLACK
6
CONTINUOUS
10
178.889
20
-69.523
11
178.489
21
-69.923
0
LINE
8
BLACK
6
CONTINUOUS
10
178.921
20
-77.8796
11
179.321
21
-78.2796
0
LINE
8
BLACK
6
CONTINUOUS
10
179.321
20
-77.8796
11
178.921
21
-78.2796
0
LINE
8
BLACK
6
CONTINUOUS
10
179.726
20
-68.3424
11
180.126
21
-68.7424
0
LINE
8
BLACK
6
CONTINUOUS
10
180.126
20
-68.3424
11
179.726
21
-68.7424
0
LINE
8
BLACK
6
CONTINUOUS
10
180.504
20
-84.1351
11
180.904
21
-84.5351
0
LINE
8
BLACK
6
CONTINUOUS
10
180.904
20
-84.1351
11
180.504
21
-84.5351
0
LINE
8
BLACK
6
CONTINUOUS
10
181.336
20
-71.0724
11
181.736
21
-71.4724
0
LINE
8
BLACK
6
CONTINUOUS
10
181.736
20
-71.0724
11
181.336
21
-71.4724
0
LINE
8
BLACK
6
CONTINUOUS
10
181.505
20
-84.0689
11
181.905
21
-84.4689
0
LINE
8
BLACK
6
CONTINUOUS
10
181.905
20
-84.0689
11
181.505
21
-84.4689
0
LINE
8
BLACK
6
CONTINUOUS
10
181.537
20
-73.714
11
181.937
21
-74.114
0
LINE
8
BLACK
6
CONTINUOUS
10
181.937
20
-73.714
11
181.537
21
-74.114
0
LINE
8
BLACK
6
CONTINUOUS
10
181.537
20
-75.492
11
181.937
21
-75.892
0
LINE
8
BLACK
6
CONTINUOUS
10
181.937
20
-75.492
11
181.537
21
-75.892
0
LINE
8
BLACK
6
CONTINUOUS
10
181.537
20
-77.27
11
181.937
21
-77.67
0
LINE
8
BLACK
6
CONTINUOUS
10
181.937
20
-77.27
11
181.537
21
-77.67
0
LINE
8
BLACK
6
CONTINUOUS
10
181.537
20
-78.921
11
181.937
21
-79.321
0
LINE
8
BLACK
6
CONTINUOUS
10
181.937
20
-78.921
11
181.537
21
-79.321
0
LINE
8
BLACK
6
CONTINUOUS
10
181.537
20
-80.699
11
181.937
21
-81.099
0
LINE
8
BLACK
6
CONTINUOUS
10
181.937
20
-80.699
11
181.537
21
-81.099
0
LINE
8
BLACK
6
CONTINUOUS
10
182.736
20
-68.2352
11
183.136
21
-68.6352
0
LINE
8
BLACK
6
CONTINUOUS
10
183.136
20
-68.2352
11
182.736
21
-68.6352
0
LINE
8
BLACK
6
CONTINUOUS
10
183.008
20
-83.6692
11
183.408
21
-84.0692
0
LINE
8
BLACK
6
CONTINUOUS
10
183.408
20
-83.6692
11
183.008
21
-84.0692
0
LINE
8
BLACK
6
CONTINUOUS
10
183.569
20
-73.714
11
183.969
21
-74.114
0
LINE
8
BLACK
6
CONTINUOUS
10
183.969
20
-73.714
11
183.569
21
-74.114
0
LINE
8
BLACK
6
CONTINUOUS
10
183.569
20
-75.492
11
183.969
21
-75.892
0
LINE
8
BLACK
6
CONTINUOUS
10
183.969
20
-75.492
11
183.569
21
-75.892
0
LINE
8
BLACK
6
CONTINUOUS
10
183.569
20
-77.27
11
183.969
21
-77.67
0
LINE
8
BLACK
6
CONTINUOUS
10
183.969
20
-77.27
11
183.569
21
-77.67
0
LINE
8
BLACK
6
CONTINUOUS
10
183.569
20
-78.921
11
183.969
21
-79.321
0
LINE
8
BLACK
6
CONTINUOUS
10
183.969
20
-78.921
11
183.569
21
-79.321
0
LINE
8
BLACK
6
CONTINUOUS
10
183.569
20
-80.699
11
183.969
21
-81.099
0
LINE
8
BLACK
6
CONTINUOUS
10
183.969
20
-80.699
11
183.569
21
-81.099
0
LINE
8
BLACK
6
CONTINUOUS
10
183.733
20
-68.2681
11
184.133
21
-68.6681
0
LINE
8
BLACK
6
CONTINUOUS
10
184.133
20
-68.2681
11
183.733
21
-68.6681
0
LINE
8
BLACK
6
CONTINUOUS
10
184.467
20
-71.404
11
184.867
21
-71.804
0
LINE
8
BLACK
6
CONTINUOUS
10
184.867
20
-71.404
11
184.467
21
-71.804
0
LINE
8
BLACK
6
CONTINUOUS
10
185.982
20
-84.255
11
186.382
21
-84.655
0
LINE
8
BLACK
6
CONTINUOUS
10
186.382
20
-84.255
11
185.982
21
-84.655
0
LINE
8
BLACK
6
CONTINUOUS
10
186.617
20
-73.841
11
187.017
21
-74.241
0
LINE
8
BLACK
6
CONTINUOUS
10
187.017
20
-73.841
11
186.617
21
-74.241
0
LINE
8
BLACK
6
CONTINUOUS
10
186.617
20
-75.619
11
187.017
21
-76.019
0
LINE
8
BLACK
6
CONTINUOUS
10
187.017
20
-75.619
11
186.617
21
-76.019
0
LINE
8
BLACK
6
CONTINUOUS
10
186.617
20
-77.27
11
187.017
21
-77.67
0
LINE
8
BLACK
6
CONTINUOUS
10
187.017
20
-77.27
11
186.617
21
-77.67
0
LINE
8
BLACK
6
CONTINUOUS
10
186.617
20
-78.921
11
187.017
21
-79.321
0
LINE
8
BLACK
6
CONTINUOUS
10
187.017
20
-78.921
11
186.617
21
-79.321
0
LINE
8
BLACK
6
CONTINUOUS
10
186.617
20
-80.699
11
187.017
21
-81.099
0
LINE
8
BLACK
6
CONTINUOUS
10
187.017
20
-80.699
11
186.617
21
-81.099
0
LINE
8
BLACK
6
CONTINUOUS
10
187.455
20
-83.1628
11
187.855
21
-83.5628
0
LINE
8
BLACK
6
CONTINUOUS
10
187.855
20
-83.1628
11
187.455
21
-83.5628
0
LINE
8
BLACK
6
CONTINUOUS
10
187.506
20
-71.301
11
187.906
21
-71.701
0
LINE
8
BLACK
6
CONTINUOUS
10
187.906
20
-71.301
11
187.506
21
-71.701
0
LINE
8
BLACK
6
CONTINUOUS
10
188.649
20
-73.841
11
189.049
21
-74.241
0
LINE
8
BLACK
6
CONTINUOUS
10
189.049
20
-73.841
11
188.649
21
-74.241
0
LINE
8
BLACK
6
CONTINUOUS
10
188.649
20
-75.619
11
189.049
21
-76.019
0
LINE
8
BLACK
6
CONTINUOUS
10
189.049
20
-75.619
11
188.649
21
-76.019
0
LINE
8
BLACK
6
CONTINUOUS
10
188.649
20
-77.27
11
189.049
21
-77.67
0
LINE
8
BLACK
6
CONTINUOUS
10
189.049
20
-77.27
11
188.649
21
-77.67
0
LINE
8
BLACK
6
CONTINUOUS
10
188.649
20
-78.921
11
189.049
21
-79.321
0
LINE
8
BLACK
6
CONTINUOUS
10
189.049
20
-78.921
11
188.649
21
-79.321
0
LINE
8
BLACK
6
CONTINUOUS
10
188.649
20
-80.699
11
189.049
21
-81.099
0
LINE
8
BLACK
6
CONTINUOUS
10
189.049
20
-80.699
11
188.649
21
-81.099
0
LINE
8
BLACK
6
CONTINUOUS
10
188.776
20
-67.745
11
189.176
21
-68.145
0
LINE
8
BLACK
6
CONTINUOUS
10
189.176
20
-67.745
11
188.776
21
-68.145
0
LINE
8
BLACK
6
CONTINUOUS
10
189.792
20
-84.128
11
190.192
21
-84.528
0
LINE
8
BLACK
6
CONTINUOUS
10
190.192
20
-84.128
11
189.792
21
-84.528
0
LINE
8
BLACK
6
CONTINUOUS
10
189.919
20
-71.428
11
190.319
21
-71.828
0
LINE
8
BLACK
6
CONTINUOUS
10
190.319
20
-71.428
11
189.919
21
-71.828
0
LINE
8
BLACK
6
CONTINUOUS
10
191.189
20
-76.127
11
191.589
21
-76.527
0
LINE
8
BLACK
6
CONTINUOUS
10
191.589
20
-76.127
11
191.189
21
-76.527
0
LINE
8
BLACK
6
CONTINUOUS
10
191.316
20
-79.556
11
191.716
21
-79.956
0
LINE
8
BLACK
6
CONTINUOUS
10
191.716
20
-79.556
11
191.316
21
-79.956
0
LINE
8
BLACK
6
CONTINUOUS
10
191.443
20
-71.428
11
191.843
21
-71.828
0
LINE
8
BLACK
6
CONTINUOUS
10
191.843
20
-71.428
11
191.443
21
-71.828
0
LINE
8
BLACK
6
CONTINUOUS
10
191.468
20
-83.4676
11
191.868
21
-83.8676
0
LINE
8
BLACK
6
CONTINUOUS
10
191.868
20
-83.4676
11
191.468
21
-83.8676
0
LINE
8
BLACK
6
CONTINUOUS
10
194.295
20
-71.555
11
194.695
21
-71.955
0
LINE
8
BLACK
6
CONTINUOUS
10
194.695
20
-71.555
11
194.295
21
-71.955
0
LINE
8
BLACK
6
CONTINUOUS
10
194.516
20
-75.4412
11
194.916
21
-75.8412
0
LINE
8
BLACK
6
CONTINUOUS
10
194.916
20
-75.4412
11
194.516
21
-75.8412
0
LINE
8
BLACK
6
CONTINUOUS
10
194.618
20
-77.651
11
195.018
21
-78.051
0
LINE
8
BLACK
6
CONTINUOUS
10
195.018
20
-77.651
11
194.618
21
-78.051
0
LINE
8
BLACK
6
CONTINUOUS
10
194.745
20
-81.495
11
195.145
21
-81.895
0
LINE
8
BLACK
6
CONTINUOUS
10
195.145
20
-81.495
11
194.745
21
-81.895
0
LINE
8
BLACK
6
CONTINUOUS
10
197.107
20
-70.412
11
197.507
21
-70.812
0
LINE
8
BLACK
6
CONTINUOUS
10
197.507
20
-70.412
11
197.107
21
-70.812
0
LINE
8
BLACK
6
CONTINUOUS
10
197.328
20
-72.3322
11
197.728
21
-72.7322
0
LINE
8
BLACK
6
CONTINUOUS
10
197.728
20
-72.3322
11
197.328
21
-72.7322
0
LINE
8
BLACK
6
CONTINUOUS
10
200.46
20
-57.458
11
200.86
21
-57.858
0
LINE
8
BLACK
6
CONTINUOUS
10
200.86
20
-57.458
11
200.46
21
-57.858
0
LINE
8
BLACK
6
CONTINUOUS
10
200.46
20
-59.49
11
200.86
21
-59.89
0
LINE
8
BLACK
6
CONTINUOUS
10
200.86
20
-59.49
11
200.46
21
-59.89
0
LINE
8
BLACK
6
CONTINUOUS
10
200.46
20
-61.522
11
200.86
21
-61.922
0
LINE
8
BLACK
6
CONTINUOUS
10
200.86
20
-61.522
11
200.46
21
-61.922
0
LINE
8
BLACK
6
CONTINUOUS
10
200.714
20
-92.51
11
201.114
21
-92.91
0
LINE
8
BLACK
6
CONTINUOUS
10
201.114
20
-92.51
11
200.714
21
-92.91
0
LINE
8
BLACK
6
CONTINUOUS
10
200.714
20
-94.034
11
201.114
21
-94.434
0
LINE
8
BLACK
6
CONTINUOUS
10
201.114
20
-94.034
11
200.714
21
-94.434
0
LINE
8
BLACK
6
CONTINUOUS
10
200.714
20
-95.304
11
201.114
21
-95.704
0
LINE
8
BLACK
6
CONTINUOUS
10
201.114
20
-95.304
11
200.714
21
-95.704
0
LINE
8
BLACK
6
CONTINUOUS
10
200.714
20
-96.828
11
201.114
21
-97.228
0
LINE
8
BLACK
6
CONTINUOUS
10
201.114
20
-96.828
11
200.714
21
-97.228
0
LINE
8
BLACK
6
CONTINUOUS
10
201.984
20
-61.522
11
202.384
21
-61.922
0
LINE
8
BLACK
6
CONTINUOUS
10
202.384
20
-61.522
11
201.984
21
-61.922
0
LINE
8
BLACK
6
CONTINUOUS
10
202.746
20
-57.458
11
203.146
21
-57.858
0
LINE
8
BLACK
6
CONTINUOUS
10
203.146
20
-57.458
11
202.746
21
-57.858
0
LINE
8
BLACK
6
CONTINUOUS
10
202.746
20
-59.49
11
203.146
21
-59.89
0
LINE
8
BLACK
6
CONTINUOUS
10
203.146
20
-59.49
11
202.746
21
-59.89
0
LINE
8
BLACK
6
CONTINUOUS
10
202.746
20
-92.51
11
203.146
21
-92.91
0
LINE
8
BLACK
6
CONTINUOUS
10
203.146
20
-92.51
11
202.746
21
-92.91
0
LINE
8
BLACK
6
CONTINUOUS
10
202.746
20
-94.542
11
203.146
21
-94.942
0
LINE
8
BLACK
6
CONTINUOUS
10
203.146
20
-94.542
11
202.746
21
-94.942
0
LINE
8
BLACK
6
CONTINUOUS
10
202.746
20
-96.828
11
203.146
21
-97.228
0
LINE
8
BLACK
6
CONTINUOUS
10
203.146
20
-96.828
11
202.746
21
-97.228
0
LINE
8
BLACK
6
CONTINUOUS
10
203.508
20
-61.522
11
203.908
21
-61.922
0
LINE
8
BLACK
6
CONTINUOUS
10
203.908
20
-61.522
11
203.508
21
-61.922
0
LINE
8
BLACK
6
CONTINUOUS
10
204.778
20
-92.51
11
205.178
21
-92.91
0
LINE
8
BLACK
6
CONTINUOUS
10
205.178
20
-92.51
11
204.778
21
-92.91
0
LINE
8
BLACK
6
CONTINUOUS
10
204.778
20
-94.542
11
205.178
21
-94.942
0
LINE
8
BLACK
6
CONTINUOUS
10
205.178
20
-94.542
11
204.778
21
-94.942
0
LINE
8
BLACK
6
CONTINUOUS
10
204.778
20
-96.828
11
205.178
21
-97.228
0
LINE
8
BLACK
6
CONTINUOUS
10
205.178
20
-96.828
11
204.778
21
-97.228
0
LINE
8
BLACK
6
CONTINUOUS
10
205.032
20
-57.458
11
205.432
21
-57.858
0
LINE
8
BLACK
6
CONTINUOUS
10
205.432
20
-57.458
11
205.032
21
-57.858
0
LINE
8
BLACK
6
CONTINUOUS
10
205.032
20
-59.49
11
205.432
21
-59.89
0
LINE
8
BLACK
6
CONTINUOUS
10
205.432
20
-59.49
11
205.032
21
-59.89
0
LINE
8
BLACK
6
CONTINUOUS
10
205.032
20
-61.522
11
205.432
21
-61.922
0
LINE
8
BLACK
6
CONTINUOUS
10
205.432
20
-61.522
11
205.032
21
-61.922
0
CIRCLE
8
BLACK
10
167.64
20
-66.04
40
0.5
0
CIRCLE
8
BLACK
10
167.64
20
-68.58
40
0.5
0
CIRCLE
8
BLACK
10
167.64
20
-71.12
40
0.5
0
CIRCLE
8
BLACK
10
167.64
20
-73.66
40
0.5
0
CIRCLE
8
BLACK
10
167.64
20
-76.2
40
0.5
0
CIRCLE
8
BLACK
10
167.64
20
-78.74
40
0.5
0
CIRCLE
8
BLACK
10
167.64
20
-81.28
40
0.5
0
CIRCLE
8
BLACK
10
167.64
20
-83.82
40
0.5
0
CIRCLE
8
BLACK
10
167.64
20
-86.36
40
0.5
0
CIRCLE
8
BLACK
10
167.64
20
-88.9
40
0.5
0
CIRCLE
8
BLACK
10
170.18
20
-66.04
40
0.5
0
CIRCLE
8
BLACK
10
170.18
20
-68.58
40
0.5
0
CIRCLE
8
BLACK
10
170.18
20
-71.12
40
0.5
0
CIRCLE
8
BLACK
10
170.18
20
-73.66
40
0.5
0
CIRCLE
8
BLACK
10
170.18
20
-76.2
40
0.5
0
CIRCLE
8
BLACK
10
170.18
20
-78.74
40
0.5
0
CIRCLE
8
BLACK
10
170.18
20
-81.28
40
0.5
0
CIRCLE
8
BLACK
10
170.18
20
-83.82
40
0.5
0
CIRCLE
8
BLACK
10
170.18
20
-86.36
40
0.5
0
CIRCLE
8
BLACK
10
170.18
20
-88.9
40
0.5
0
CIRCLE
8
BLACK
10
173.99
20
-59.69
40
0.5
0
CIRCLE
8
BLACK
10
173.99
20
-62.23
40
0.5
0
CIRCLE
8
BLACK
10
173.99
20
-92.71
40
0.5
0
CIRCLE
8
BLACK
10
173.99
20
-95.25
40
0.5
0
CIRCLE
8
BLACK
10
176.53
20
-59.69
40
0.5
0
CIRCLE
8
BLACK
10
176.53
20
-62.23
40
0.5
0
CIRCLE
8
BLACK
10
176.53
20
-92.71
40
0.5
0
CIRCLE
8
BLACK
10
176.53
20
-95.25
40
0.5
0
CIRCLE
8
BLACK
10
179.07
20
-59.69
40
0.5
0
CIRCLE
8
BLACK
10
179.07
20
-62.23
40
0.5
0
CIRCLE
8
BLACK
10
179.07
20
-92.71
40
0.5
0
CIRCLE
8
BLACK
10
179.07
20
-95.25
40
0.5
0
CIRCLE
8
BLACK
10
181.61
20
-59.69
40
0.5
0
CIRCLE
8
BLACK
10
181.61
20
-62.23
40
0.5
0
CIRCLE
8
BLACK
10
181.61
20
-92.71
40
0.5
0
CIRCLE
8
BLACK
10
181.61
20
-95.25
40
0.5
0
CIRCLE
8
BLACK
10
184.15
20
-59.69
40
0.5
0
CIRCLE
8
BLACK
10
184.15
20
-62.23
40
0.5
0
CIRCLE
8
BLACK
10
184.15
20
-92.71
40
0.5
0
CIRCLE
8
BLACK
10
184.15
20
-95.25
40
0.5
0
CIRCLE
8
BLACK
10
186.69
20
-59.69
40
0.5
0
CIRCLE
8
BLACK
10
186.69
20
-62.23
40
0.5
0
CIRCLE
8
BLACK
10
186.69
20
-92.71
40
0.5
0
CIRCLE
8
BLACK
10
186.69
20
-95.25
40
0.5
0
CIRCLE
8
BLACK
10
189.23
20
-59.69
40
0.5
0
CIRCLE
8
BLACK
10
189.23
20
-62.23
40
0.5
0
CIRCLE
8
BLACK
10
189.23
20
-92.71
40
0.5
0
CIRCLE
8
BLACK
10
189.23
20
-95.25
40
0.5
0
CIRCLE
8
BLACK
10
191.77
20
-59.69
40
0.5
0
CIRCLE
8
BLACK
10
191.77
20
-62.23
40
0.5
0
CIRCLE
8
BLACK
10
191.77
20
-92.71
40
0.5
0
CIRCLE
8
BLACK
10
191.77
20
-95.25
40
0.5
0
CIRCLE
8
BLACK
10
194.31
20
-59.69
40
0.5
0
CIRCLE
8
BLACK
10
194.31
20
-62.23
40
0.5
0
CIRCLE
8
BLACK
10
194.31
20
-92.71
40
0.5
0
CIRCLE
8
BLACK
10
194.31
20
-95.25
40
0.5
0
CIRCLE
8
BLACK
10
196.85
20
-59.69
40
0.5
0
CIRCLE
8
BLACK
10
196.85
20
-62.23
40
0.5
0
CIRCLE
8
BLACK
10
196.85
20
-92.71
40
0.5
0
CIRCLE
8
BLACK
10
196.85
20
-95.25
40
0.5
0
CIRCLE
8
BLACK
10
200.66
20
-66.04
40
0.5
0
CIRCLE
8
BLACK
10
200.66
20
-68.58
40
0.5
0
CIRCLE
8
BLACK
10
200.66
20
-71.12
40
0.5
0
CIRCLE
8
BLACK
10
200.66
20
-73.66
40
0.5
0
CIRCLE
8
BLACK
10
200.66
20
-76.2
40
0.5
0
CIRCLE
8
BLACK
10
200.66
20
-78.74
40
0.5
0
CIRCLE
8
BLACK
10
200.66
20
-81.28
40
0.5
0
CIRCLE
8
BLACK
10
200.66
20
-83.82
40
0.5
0
CIRCLE
8
BLACK
10
200.66
20
-86.36
40
0.5
0
CIRCLE
8
BLACK
10
200.66
20
-88.9
40
0.5
0
CIRCLE
8
BLACK
10
203.2
20
-66.04
40
0.5
0
CIRCLE
8
BLACK
10
203.2
20
-68.58
40
0.5
0
CIRCLE
8
BLACK
10
203.2
20
-71.12
40
0.5
0
CIRCLE
8
BLACK
10
203.2
20
-73.66
40
0.5
0
CIRCLE
8
BLACK
10
203.2
20
-76.2
40
0.5
0
CIRCLE
8
BLACK
10
203.2
20
-78.74
40
0.5
0
CIRCLE
8
BLACK
10
203.2
20
-81.28
40
0.5
0
CIRCLE
8
BLACK
10
203.2
20
-83.82
40
0.5
0
CIRCLE
8
BLACK
10
203.2
20
-86.36
40
0.5
0
CIRCLE
8
BLACK
10
203.2
20
-88.9
40
0.5
0
LINE
8
BLACK
6
CONTINUOUS
10
167.526
20
-100.965
11
167.526
21
-98.9652
0
LINE
8
BLACK
6
CONTINUOUS
10
167.526
20
-98.9652
11
168.002
21
-98.9652
0
LINE
8
BLACK
6
CONTINUOUS
10
168.002
20
-98.9652
11
168.288
21
-99.0605
0
LINE
8
BLACK
6
CONTINUOUS
10
168.288
20
-99.0605
11
168.479
21
-99.251
0
LINE
8
BLACK
6
CONTINUOUS
10
168.479
20
-99.251
11
168.574
21
-99.4414
0
LINE
8
BLACK
6
CONTINUOUS
10
168.574
20
-99.4414
11
168.669
21
-99.8224
0
LINE
8
BLACK
6
CONTINUOUS
10
168.669
20
-99.8224
11
168.669
21
-100.108
0
LINE
8
BLACK
6
CONTINUOUS
10
168.669
20
-100.108
11
168.574
21
-100.489
0
LINE
8
BLACK
6
CONTINUOUS
10
168.574
20
-100.489
11
168.479
21
-100.68
0
LINE
8
BLACK
6
CONTINUOUS
10
168.479
20
-100.68
11
168.288
21
-100.87
0
LINE
8
BLACK
6
CONTINUOUS
10
168.288
20
-100.87
11
168.002
21
-100.965
0
LINE
8
BLACK
6
CONTINUOUS
10
168.002
20
-100.965
11
167.526
21
-100.965
0
LINE
8
BLACK
6
CONTINUOUS
10
169.526
20
-100.965
11
169.526
21
-99.6319
0
LINE
8
BLACK
6
CONTINUOUS
10
169.526
20
-100.013
11
169.621
21
-99.8224
0
LINE
8
BLACK
6
CONTINUOUS
10
169.621
20
-99.8224
11
169.717
21
-99.7271
0
LINE
8
BLACK
6
CONTINUOUS
10
169.717
20
-99.7271
11
169.907
21
-99.6319
0
LINE
8
BLACK
6
CONTINUOUS
10
169.907
20
-99.6319
11
170.098
21
-99.6319
0
LINE
8
BLACK
6
CONTINUOUS
10
170.764
20
-100.965
11
170.764
21
-99.6319
0
LINE
8
BLACK
6
CONTINUOUS
10
170.764
20
-98.9652
11
170.669
21
-99.0605
0
LINE
8
BLACK
6
CONTINUOUS
10
170.669
20
-99.0605
11
170.764
21
-99.1557
0
LINE
8
BLACK
6
CONTINUOUS
10
170.764
20
-99.1557
11
170.86
21
-99.0605
0
LINE
8
BLACK
6
CONTINUOUS
10
170.86
20
-99.0605
11
170.764
21
-98.9652
0
LINE
8
BLACK
6
CONTINUOUS
10
170.764
20
-98.9652
11
170.764
21
-99.1557
0
LINE
8
BLACK
6
CONTINUOUS
10
172.002
20
-100.965
11
171.812
21
-100.87
0
LINE
8
BLACK
6
CONTINUOUS
10
171.812
20
-100.87
11
171.717
21
-100.68
0
LINE
8
BLACK
6
CONTINUOUS
10
171.717
20
-100.68
11
171.717
21
-98.9652
0
LINE
8
BLACK
6
CONTINUOUS
10
173.05
20
-100.965
11
172.86
21
-100.87
0
LINE
8
BLACK
6
CONTINUOUS
10
172.86
20
-100.87
11
172.764
21
-100.68
0
LINE
8
BLACK
6
CONTINUOUS
10
172.764
20
-100.68
11
172.764
21
-98.9652
0
LINE
8
BLACK
6
CONTINUOUS
10
175.336
20
-100.965
11
175.336
21
-98.9652
0
LINE
8
BLACK
6
CONTINUOUS
10
175.336
20
-98.9652
11
176.002
21
-100.394
0
LINE
8
BLACK
6
CONTINUOUS
10
176.002
20
-100.394
11
176.669
21
-98.9652
0
LINE
8
BLACK
6
CONTINUOUS
10
176.669
20
-98.9652
11
176.669
21
-100.965
0
LINE
8
BLACK
6
CONTINUOUS
10
178.479
20
-100.965
11
178.479
21
-99.9176
0
LINE
8
BLACK
6
CONTINUOUS
10
178.479
20
-99.9176
11
178.383
21
-99.7271
0
LINE
8
BLACK
6
CONTINUOUS
10
178.383
20
-99.7271
11
178.193
21
-99.6319
0
LINE
8
BLACK
6
CONTINUOUS
10
178.193
20
-99.6319
11
177.812
21
-99.6319
0
LINE
8
BLACK
6
CONTINUOUS
10
177.812
20
-99.6319
11
177.621
21
-99.7271
0
LINE
8
BLACK
6
CONTINUOUS
10
178.479
20
-100.87
11
178.288
21
-100.965
0
LINE
8
BLACK
6
CONTINUOUS
10
178.288
20
-100.965
11
177.812
21
-100.965
0
LINE
8
BLACK
6
CONTINUOUS
10
177.812
20
-100.965
11
177.621
21
-100.87
0
LINE
8
BLACK
6
CONTINUOUS
10
177.621
20
-100.87
11
177.526
21
-100.68
0
LINE
8
BLACK
6
CONTINUOUS
10
177.526
20
-100.68
11
177.526
21
-100.489
0
LINE
8
BLACK
6
CONTINUOUS
10
177.526
20
-100.489
11
177.621
21
-100.299
0
LINE
8
BLACK
6
CONTINUOUS
10
177.621
20
-100.299
11
177.812
21
-100.203
0
LINE
8
BLACK
6
CONTINUOUS
10
177.812
20
-100.203
11
178.288
21
-100.203
0
LINE
8
BLACK
6
CONTINUOUS
10
178.288
20
-100.203
11
178.479
21
-100.108
0
LINE
8
BLACK
6
CONTINUOUS
10
179.431
20
-99.6319
11
179.431
21
-101.632
0
LINE
8
BLACK
6
CONTINUOUS
10
179.431
20
-99.7271
11
179.621
21
-99.6319
0
LINE
8
BLACK
6
CONTINUOUS
10
179.621
20
-99.6319
11
180.002
21
-99.6319
0
LINE
8
BLACK
6
CONTINUOUS
10
180.002
20
-99.6319
11
180.193
21
-99.7271
0
LINE
8
BLACK
6
CONTINUOUS
10
180.193
20
-99.7271
11
180.288
21
-99.8224
0
LINE
8
BLACK
6
CONTINUOUS
10
180.288
20
-99.8224
11
180.383
21
-100.013
0
LINE
8
BLACK
6
CONTINUOUS
10
180.383
20
-100.013
11
180.383
21
-100.584
0
LINE
8
BLACK
6
CONTINUOUS
10
180.383
20
-100.584
11
180.288
21
-100.775
0
LINE
8
BLACK
6
CONTINUOUS
10
180.288
20
-100.775
11
180.193
21
-100.87
0
LINE
8
BLACK
6
CONTINUOUS
10
180.193
20
-100.87
11
180.002
21
-100.965
0
LINE
8
BLACK
6
CONTINUOUS
10
180.002
20
-100.965
11
179.621
21
-100.965
0
LINE
8
BLACK
6
CONTINUOUS
10
179.621
20
-100.965
11
179.431
21
-100.87
0
LINE
8
BLACK
6
CONTINUOUS
10
181.24
20
-100.775
11
181.336
21
-100.87
0
LINE
8
BLACK
6
CONTINUOUS
10
181.336
20
-100.87
11
181.24
21
-100.965
0
LINE
8
BLACK
6
CONTINUOUS
10
181.24
20
-100.965
11
181.145
21
-100.87
0
LINE
8
BLACK
6
CONTINUOUS
10
181.145
20
-100.87
11
181.24
21
-100.775
0
LINE
8
BLACK
6
CONTINUOUS
10
181.24
20
-100.775
11
181.24
21
-100.965
0
LINE
8
BLACK
6
CONTINUOUS
10
181.24
20
-99.7271
11
181.336
21
-99.8224
0
LINE
8
BLACK
6
CONTINUOUS
10
181.336
20
-99.8224
11
181.24
21
-99.9176
0
LINE
8
BLACK
6
CONTINUOUS
10
181.24
20
-99.9176
11
181.145
21
-99.8224
0
LINE
8
BLACK
6
CONTINUOUS
10
181.145
20
-99.8224
11
181.24
21
-99.7271
0
LINE
8
BLACK
6
CONTINUOUS
10
181.24
20
-99.7271
11
181.24
21
-99.9176
0
LINE
8
BLACK
6
CONTINUOUS
10
164.65
20
-104.04
11
165.05
21
-104.44
0
LINE
8
BLACK
6
CONTINUOUS
10
165.05
20
-104.04
11
164.65
21
-104.44
0
LINE
8
BLACK
6
CONTINUOUS
10
167.907
20
-103.165
11
168.098
21
-103.165
0
LINE
8
BLACK
6
CONTINUOUS
10
168.098
20
-103.165
11
168.288
21
-103.26
0
LINE
8
BLACK
6
CONTINUOUS
10
168.288
20
-103.26
11
168.383
21
-103.356
0
LINE
8
BLACK
6
CONTINUOUS
10
168.383
20
-103.356
11
168.479
21
-103.546
0
LINE
8
BLACK
6
CONTINUOUS
10
168.479
20
-103.546
11
168.574
21
-103.927
0
LINE
8
BLACK
6
CONTINUOUS
10
168.574
20
-103.927
11
168.574
21
-104.403
0
LINE
8
BLACK
6
CONTINUOUS
10
168.574
20
-104.403
11
168.479
21
-104.784
0
LINE
8
BLACK
6
CONTINUOUS
10
168.479
20
-104.784
11
168.383
21
-104.975
0
LINE
8
BLACK
6
CONTINUOUS
10
168.383
20
-104.975
11
168.288
21
-105.07
0
LINE
8
BLACK
6
CONTINUOUS
10
168.288
20
-105.07
11
168.098
21
-105.165
0
LINE
8
BLACK
6
CONTINUOUS
10
168.098
20
-105.165
11
167.907
21
-105.165
0
LINE
8
BLACK
6
CONTINUOUS
10
167.907
20
-105.165
11
167.717
21
-105.07
0
LINE
8
BLACK
6
CONTINUOUS
10
167.717
20
-105.07
11
167.621
21
-104.975
0
LINE
8
BLACK
6
CONTINUOUS
10
167.621
20
-104.975
11
167.526
21
-104.784
0
LINE
8
BLACK
6
CONTINUOUS
10
167.526
20
-104.784
11
167.431
21
-104.403
0
LINE
8
BLACK
6
CONTINUOUS
10
167.431
20
-104.403
11
167.431
21
-103.927
0
LINE
8
BLACK
6
CONTINUOUS
10
167.431
20
-103.927
11
167.526
21
-103.546
0
LINE
8
BLACK
6
CONTINUOUS
10
167.526
20
-103.546
11
167.621
21
-103.356
0
LINE
8
BLACK
6
CONTINUOUS
10
167.621
20
-103.356
11
167.717
21
-103.26
0
LINE
8
BLACK
6
CONTINUOUS
10
167.717
20
-103.26
11
167.907
21
-103.165
0
LINE
8
BLACK
6
CONTINUOUS
10
169.431
20
-104.975
11
169.526
21
-105.07
0
LINE
8
BLACK
6
CONTINUOUS
10
169.526
20
-105.07
11
169.431
21
-105.165
0
LINE
8
BLACK
6
CONTINUOUS
10
169.431
20
-105.165
11
169.336
21
-105.07
0
LINE
8
BLACK
6
CONTINUOUS
10
169.336
20
-105.07
11
169.431
21
-104.975
0
LINE
8
BLACK
6
CONTINUOUS
10
169.431
20
-104.975
11
169.431
21
-105.165
0
LINE
8
BLACK
6
CONTINUOUS
10
171.24
20
-103.832
11
171.24
21
-105.165
0
LINE
8
BLACK
6
CONTINUOUS
10
170.764
20
-103.07
11
170.288
21
-104.499
0
LINE
8
BLACK
6
CONTINUOUS
10
170.288
20
-104.499
11
171.526
21
-104.499
0
LINE
8
BLACK
6
CONTINUOUS
10
172.669
20
-103.165
11
172.86
21
-103.165
0
LINE
8
BLACK
6
CONTINUOUS
10
172.86
20
-103.165
11
173.05
21
-103.26
0
LINE
8
BLACK
6
CONTINUOUS
10
173.05
20
-103.26
11
173.145
21
-103.356
0
LINE
8
BLACK
6
CONTINUOUS
10
173.145
20
-103.356
11
173.24
21
-103.546
0
LINE
8
BLACK
6
CONTINUOUS
10
173.24
20
-103.546
11
173.336
21
-103.927
0
LINE
8
BLACK
6
CONTINUOUS
10
173.336
20
-103.927
11
173.336
21
-104.403
0
LINE
8
BLACK
6
CONTINUOUS
10
173.336
20
-104.403
11
173.24
21
-104.784
0
LINE
8
BLACK
6
CONTINUOUS
10
173.24
20
-104.784
11
173.145
21
-104.975
0
LINE
8
BLACK
6
CONTINUOUS
10
173.145
20
-104.975
11
173.05
21
-105.07
0
LINE
8
BLACK
6
CONTINUOUS
10
173.05
20
-105.07
11
172.86
21
-105.165
0
LINE
8
BLACK
6
CONTINUOUS
10
172.86
20
-105.165
11
172.669
21
-105.165
0
LINE
8
BLACK
6
CONTINUOUS
10
172.669
20
-105.165
11
172.479
21
-105.07
0
LINE
8
BLACK
6
CONTINUOUS
10
172.479
20
-105.07
11
172.383
21
-104.975
0
LINE
8
BLACK
6
CONTINUOUS
10
172.383
20
-104.975
11
172.288
21
-104.784
0
LINE
8
BLACK
6
CONTINUOUS
10
172.288
20
-104.784
11
172.193
21
-104.403
0
LINE
8
BLACK
6
CONTINUOUS
10
172.193
20
-104.403
11
172.193
21
-103.927
0
LINE
8
BLACK
6
CONTINUOUS
10
172.193
20
-103.927
11
172.288
21
-103.546
0
LINE
8
BLACK
6
CONTINUOUS
10
172.288
20
-103.546
11
172.383
21
-103.356
0
LINE
8
BLACK
6
CONTINUOUS
10
172.383
20
-103.356
11
172.479
21
-103.26
0
LINE
8
BLACK
6
CONTINUOUS
10
172.479
20
-103.26
11
172.669
21
-103.165
0
LINE
8
BLACK
6
CONTINUOUS
10
174.574
20
-103.165
11
174.764
21
-103.165
0
LINE
8
BLACK
6
CONTINUOUS
10
174.764
20
-103.165
11
174.955
21
-103.26
0
LINE
8
BLACK
6
CONTINUOUS
10
174.955
20
-103.26
11
175.05
21
-103.356
0
LINE
8
BLACK
6
CONTINUOUS
10
175.05
20
-103.356
11
175.145
21
-103.546
0
LINE
8
BLACK
6
CONTINUOUS
10
175.145
20
-103.546
11
175.24
21
-103.927
0
LINE
8
BLACK
6
CONTINUOUS
10
175.24
20
-103.927
11
175.24
21
-104.403
0
LINE
8
BLACK
6
CONTINUOUS
10
175.24
20
-104.403
11
175.145
21
-104.784
0
LINE
8
BLACK
6
CONTINUOUS
10
175.145
20
-104.784
11
175.05
21
-104.975
0
LINE
8
BLACK
6
CONTINUOUS
10
175.05
20
-104.975
11
174.955
21
-105.07
0
LINE
8
BLACK
6
CONTINUOUS
10
174.955
20
-105.07
11
174.764
21
-105.165
0
LINE
8
BLACK
6
CONTINUOUS
10
174.764
20
-105.165
11
174.574
21
-105.165
0
LINE
8
BLACK
6
CONTINUOUS
10
174.574
20
-105.165
11
174.383
21
-105.07
0
LINE
8
BLACK
6
CONTINUOUS
10
174.383
20
-105.07
11
174.288
21
-104.975
0
LINE
8
BLACK
6
CONTINUOUS
10
174.288
20
-104.975
11
174.193
21
-104.784
0
LINE
8
BLACK
6
CONTINUOUS
10
174.193
20
-104.784
11
174.098
21
-104.403
0
LINE
8
BLACK
6
CONTINUOUS
10
174.098
20
-104.403
11
174.098
21
-103.927
0
LINE
8
BLACK
6
CONTINUOUS
10
174.098
20
-103.927
11
174.193
21
-103.546
0
LINE
8
BLACK
6
CONTINUOUS
10
174.193
20
-103.546
11
174.288
21
-103.356
0
LINE
8
BLACK
6
CONTINUOUS
10
174.288
20
-103.356
11
174.383
21
-103.26
0
LINE
8
BLACK
6
CONTINUOUS
10
174.383
20
-103.26
11
174.574
21
-103.165
0
LINE
8
BLACK
6
CONTINUOUS
10
176.098
20
-105.165
11
176.098
21
-103.832
0
LINE
8
BLACK
6
CONTINUOUS
10
176.098
20
-104.022
11
176.193
21
-103.927
0
LINE
8
BLACK
6
CONTINUOUS
10
176.193
20
-103.927
11
176.383
21
-103.832
0
LINE
8
BLACK
6
CONTINUOUS
10
176.383
20
-103.832
11
176.669
21
-103.832
0
LINE
8
BLACK
6
CONTINUOUS
10
176.669
20
-103.832
11
176.86
21
-103.927
0
LINE
8
BLACK
6
CONTINUOUS
10
176.86
20
-103.927
11
176.955
21
-104.118
0
LINE
8
BLACK
6
CONTINUOUS
10
176.955
20
-104.118
11
176.955
21
-105.165
0
LINE
8
BLACK
6
CONTINUOUS
10
176.955
20
-104.118
11
177.05
21
-103.927
0
LINE
8
BLACK
6
CONTINUOUS
10
177.05
20
-103.927
11
177.24
21
-103.832
0
LINE
8
BLACK
6
CONTINUOUS
10
177.24
20
-103.832
11
177.526
21
-103.832
0
LINE
8
BLACK
6
CONTINUOUS
10
177.526
20
-103.832
11
177.717
21
-103.927
0
LINE
8
BLACK
6
CONTINUOUS
10
177.717
20
-103.927
11
177.812
21
-104.118
0
LINE
8
BLACK
6
CONTINUOUS
10
177.812
20
-104.118
11
177.812
21
-105.165
0
LINE
8
BLACK
6
CONTINUOUS
10
178.764
20
-105.165
11
178.764
21
-103.832
0
LINE
8
BLACK
6
CONTINUOUS
10
178.764
20
-104.022
11
178.86
21
-103.927
0
LINE
8
BLACK
6
CONTINUOUS
10
178.86
20
-103.927
11
179.05
21
-103.832
0
LINE
8
BLACK
6
CONTINUOUS
10
179.05
20
-103.832
11
179.336
21
-103.832
0
LINE
8
BLACK
6
CONTINUOUS
10
179.336
20
-103.832
11
179.526
21
-103.927
0
LINE
8
BLACK
6
CONTINUOUS
10
179.526
20
-103.927
11
179.621
21
-104.118
0
LINE
8
BLACK
6
CONTINUOUS
10
179.621
20
-104.118
11
179.621
21
-105.165
0
LINE
8
BLACK
6
CONTINUOUS
10
179.621
20
-104.118
11
179.717
21
-103.927
0
LINE
8
BLACK
6
CONTINUOUS
10
179.717
20
-103.927
11
179.907
21
-103.832
0
LINE
8
BLACK
6
CONTINUOUS
10
179.907
20
-103.832
11
180.193
21
-103.832
0
LINE
8
BLACK
6
CONTINUOUS
10
180.193
20
-103.832
11
180.383
21
-103.927
0
LINE
8
BLACK
6
CONTINUOUS
10
180.383
20
-103.927
11
180.479
21
-104.118
0
LINE
8
BLACK
6
CONTINUOUS
10
180.479
20
-104.118
11
180.479
21
-105.165
0
LINE
8
BLACK
6
CONTINUOUS
10
184.383
20
-103.07
11
182.669
21
-105.641
0
LINE
8
BLACK
6
CONTINUOUS
10
186.955
20
-103.165
11
187.145
21
-103.165
0
LINE
8
BLACK
6
CONTINUOUS
10
187.145
20
-103.165
11
187.336
21
-103.26
0
LINE
8
BLACK
6
CONTINUOUS
10
187.336
20
-103.26
11
187.431
21
-103.356
0
LINE
8
BLACK
6
CONTINUOUS
10
187.431
20
-103.356
11
187.526
21
-103.546
0
LINE
8
BLACK
6
CONTINUOUS
10
187.526
20
-103.546
11
187.621
21
-103.927
0
LINE
8
BLACK
6
CONTINUOUS
10
187.621
20
-103.927
11
187.621
21
-104.403
0
LINE
8
BLACK
6
CONTINUOUS
10
187.621
20
-104.403
11
187.526
21
-104.784
0
LINE
8
BLACK
6
CONTINUOUS
10
187.526
20
-104.784
11
187.431
21
-104.975
0
LINE
8
BLACK
6
CONTINUOUS
10
187.431
20
-104.975
11
187.336
21
-105.07
0
LINE
8
BLACK
6
CONTINUOUS
10
187.336
20
-105.07
11
187.145
21
-105.165
0
LINE
8
BLACK
6
CONTINUOUS
10
187.145
20
-105.165
11
186.955
21
-105.165
0
LINE
8
BLACK
6
CONTINUOUS
10
186.955
20
-105.165
11
186.764
21
-105.07
0
LINE
8
BLACK
6
CONTINUOUS
10
186.764
20
-105.07
11
186.669
21
-104.975
0
LINE
8
BLACK
6
CONTINUOUS
10
186.669
20
-104.975
11
186.574
21
-104.784
0
LINE
8
BLACK
6
CONTINUOUS
10
186.574
20
-104.784
11
186.479
21
-104.403
0
LINE
8
BLACK
6
CONTINUOUS
10
186.479
20
-104.403
11
186.479
21
-103.927
0
LINE
8
BLACK
6
CONTINUOUS
10
186.479
20
-103.927
11
186.574
21
-103.546
0
LINE
8
BLACK
6
CONTINUOUS
10
186.574
20
-103.546
11
186.669
21
-103.356
0
LINE
8
BLACK
6
CONTINUOUS
10
186.669
20
-103.356
11
186.764
21
-103.26
0
LINE
8
BLACK
6
CONTINUOUS
10
186.764
20
-103.26
11
186.955
21
-103.165
0
LINE
8
BLACK
6
CONTINUOUS
10
188.479
20
-104.975
11
188.574
21
-105.07
0
LINE
8
BLACK
6
CONTINUOUS
10
188.574
20
-105.07
11
188.479
21
-105.165
0
LINE
8
BLACK
6
CONTINUOUS
10
188.479
20
-105.165
11
188.383
21
-105.07
0
LINE
8
BLACK
6
CONTINUOUS
10
188.383
20
-105.07
11
188.479
21
-104.975
0
LINE
8
BLACK
6
CONTINUOUS
10
188.479
20
-104.975
11
188.479
21
-105.165
0
LINE
8
BLACK
6
CONTINUOUS
10
189.812
20
-103.165
11
190.002
21
-103.165
0
LINE
8
BLACK
6
CONTINUOUS
10
190.002
20
-103.165
11
190.193
21
-103.26
0
LINE
8
BLACK
6
CONTINUOUS
10
190.193
20
-103.26
11
190.288
21
-103.356
0
LINE
8
BLACK
6
CONTINUOUS
10
190.288
20
-103.356
11
190.383
21
-103.546
0
LINE
8
BLACK
6
CONTINUOUS
10
190.383
20
-103.546
11
190.479
21
-103.927
0
LINE
8
BLACK
6
CONTINUOUS
10
190.479
20
-103.927
11
190.479
21
-104.403
0
LINE
8
BLACK
6
CONTINUOUS
10
190.479
20
-104.403
11
190.383
21
-104.784
0
LINE
8
BLACK
6
CONTINUOUS
10
190.383
20
-104.784
11
190.288
21
-104.975
0
LINE
8
BLACK
6
CONTINUOUS
10
190.288
20
-104.975
11
190.193
21
-105.07
0
LINE
8
BLACK
6
CONTINUOUS
10
190.193
20
-105.07
11
190.002
21
-105.165
0
LINE
8
BLACK
6
CONTINUOUS
10
190.002
20
-105.165
11
189.812
21
-105.165
0
LINE
8
BLACK
6
CONTINUOUS
10
189.812
20
-105.165
11
189.621
21
-105.07
0
LINE
8
BLACK
6
CONTINUOUS
10
189.621
20
-105.07
11
189.526
21
-104.975
0
LINE
8
BLACK
6
CONTINUOUS
10
189.526
20
-104.975
11
189.431
21
-104.784
0
LINE
8
BLACK
6
CONTINUOUS
10
189.431
20
-104.784
11
189.336
21
-104.403
0
LINE
8
BLACK
6
CONTINUOUS
10
189.336
20
-104.403
11
189.336
21
-103.927
0
LINE
8
BLACK
6
CONTINUOUS
10
189.336
20
-103.927
11
189.431
21
-103.546
0
LINE
8
BLACK
6
CONTINUOUS
10
189.431
20
-103.546
11
189.526
21
-103.356
0
LINE
8
BLACK
6
CONTINUOUS
10
189.526
20
-103.356
11
189.621
21
-103.26
0
LINE
8
BLACK
6
CONTINUOUS
10
189.621
20
-103.26
11
189.812
21
-103.165
0
LINE
8
BLACK
6
CONTINUOUS
10
192.383
20
-105.165
11
191.24
21
-105.165
0
LINE
8
BLACK
6
CONTINUOUS
10
191.812
20
-105.165
11
191.812
21
-103.165
0
LINE
8
BLACK
6
CONTINUOUS
10
191.812
20
-103.165
11
191.621
21
-103.451
0
LINE
8
BLACK
6
CONTINUOUS
10
191.621
20
-103.451
11
191.431
21
-103.641
0
LINE
8
BLACK
6
CONTINUOUS
10
191.431
20
-103.641
11
191.24
21
-103.737
0
LINE
8
BLACK
6
CONTINUOUS
10
194.193
20
-103.165
11
193.24
21
-103.165
0
LINE
8
BLACK
6
CONTINUOUS
10
193.24
20
-103.165
11
193.145
21
-104.118
0
LINE
8
BLACK
6
CONTINUOUS
10
193.145
20
-104.118
11
193.24
21
-104.022
0
LINE
8
BLACK
6
CONTINUOUS
10
193.24
20
-104.022
11
193.431
21
-103.927
0
LINE
8
BLACK
6
CONTINUOUS
10
193.431
20
-103.927
11
193.907
21
-103.927
0
LINE
8
BLACK
6
CONTINUOUS
10
193.907
20
-103.927
11
194.098
21
-104.022
0
LINE
8
BLACK
6
CONTINUOUS
10
194.098
20
-104.022
11
194.193
21
-104.118
0
LINE
8
BLACK
6
CONTINUOUS
10
194.193
20
-104.118
11
194.288
21
-104.308
0
LINE
8
BLACK
6
CONTINUOUS
10
194.288
20
-104.308
11
194.288
21
-104.784
0
LINE
8
BLACK
6
CONTINUOUS
10
194.288
20
-104.784
11
194.193
21
-104.975
0
LINE
8
BLACK
6
CONTINUOUS
10
194.193
20
-104.975
11
194.098
21
-105.07
0
LINE
8
BLACK
6
CONTINUOUS
10
194.098
20
-105.07
11
193.907
21
-105.165
0
LINE
8
BLACK
6
CONTINUOUS
10
193.907
20
-105.165
11
193.431
21
-105.165
0
LINE
8
BLACK
6
CONTINUOUS
10
193.431
20
-105.165
11
193.24
21
-105.07
0
LINE
8
BLACK
6
CONTINUOUS
10
193.24
20
-105.07
11
193.145
21
-104.975
0
LINE
8
BLACK
6
CONTINUOUS
10
194.955
20
-103.165
11
196.288
21
-103.165
0
LINE
8
BLACK
6
CONTINUOUS
10
196.288
20
-103.165
11
195.431
21
-105.165
0
LINE
8
BLACK
6
CONTINUOUS
10
196.955
20
-103.165
11
196.955
21
-103.546
0
LINE
8
BLACK
6
CONTINUOUS
10
197.717
20
-103.165
11
197.717
21
-103.546
0
LINE
8
BLACK
6
CONTINUOUS
10
200.669
20
-105.927
11
200.574
21
-105.832
0
LINE
8
BLACK
6
CONTINUOUS
10
200.574
20
-105.832
11
200.383
21
-105.546
0
LINE
8
BLACK
6
CONTINUOUS
10
200.383
20
-105.546
11
200.288
21
-105.356
0
LINE
8
BLACK
6
CONTINUOUS
10
200.288
20
-105.356
11
200.193
21
-105.07
0
LINE
8
BLACK
6
CONTINUOUS
10
200.193
20
-105.07
11
200.098
21
-104.594
0
LINE
8
BLACK
6
CONTINUOUS
10
200.098
20
-104.594
11
200.098
21
-104.213
0
LINE
8
BLACK
6
CONTINUOUS
10
200.098
20
-104.213
11
200.193
21
-103.737
0
LINE
8
BLACK
6
CONTINUOUS
10
200.193
20
-103.737
11
200.288
21
-103.451
0
LINE
8
BLACK
6
CONTINUOUS
10
200.288
20
-103.451
11
200.383
21
-103.26
0
LINE
8
BLACK
6
CONTINUOUS
10
200.383
20
-103.26
11
200.574
21
-102.975
0
LINE
8
BLACK
6
CONTINUOUS
10
200.574
20
-102.975
11
200.669
21
-102.88
0
LINE
8
BLACK
6
CONTINUOUS
10
201.717
20
-104.022
11
201.526
21
-103.927
0
LINE
8
BLACK
6
CONTINUOUS
10
201.526
20
-103.927
11
201.431
21
-103.832
0
LINE
8
BLACK
6
CONTINUOUS
10
201.431
20
-103.832
11
201.336
21
-103.641
0
LINE
8
BLACK
6
CONTINUOUS
10
201.336
20
-103.641
11
201.336
21
-103.546
0
LINE
8
BLACK
6
CONTINUOUS
10
201.336
20
-103.546
11
201.431
21
-103.356
0
LINE
8
BLACK
6
CONTINUOUS
10
201.431
20
-103.356
11
201.526
21
-103.26
0
LINE
8
BLACK
6
CONTINUOUS
10
201.526
20
-103.26
11
201.717
21
-103.165
0
LINE
8
BLACK
6
CONTINUOUS
10
201.717
20
-103.165
11
202.098
21
-103.165
0
LINE
8
BLACK
6
CONTINUOUS
10
202.098
20
-103.165
11
202.288
21
-103.26
0
LINE
8
BLACK
6
CONTINUOUS
10
202.288
20
-103.26
11
202.383
21
-103.356
0
LINE
8
BLACK
6
CONTINUOUS
10
202.383
20
-103.356
11
202.479
21
-103.546
0
LINE
8
BLACK
6
CONTINUOUS
10
202.479
20
-103.546
11
202.479
21
-103.641
0
LINE
8
BLACK
6
CONTINUOUS
10
202.479
20
-103.641
11
202.383
21
-103.832
0
LINE
8
BLACK
6
CONTINUOUS
10
202.383
20
-103.832
11
202.288
21
-103.927
0
LINE
8
BLACK
6
CONTINUOUS
10
202.288
20
-103.927
11
202.098
21
-104.022
0
LINE
8
BLACK
6
CONTINUOUS
10
202.098
20
-104.022
11
201.717
21
-104.022
0
LINE
8
BLACK
6
CONTINUOUS
10
201.717
20
-104.022
11
201.526
21
-104.118
0
LINE
8
BLACK
6
CONTINUOUS
10
201.526
20
-104.118
11
201.431
21
-104.213
0
LINE
8
BLACK
6
CONTINUOUS
10
201.431
20
-104.213
11
201.336
21
-104.403
0
LINE
8
BLACK
6
CONTINUOUS
10
201.336
20
-104.403
11
201.336
21
-104.784
0
LINE
8
BLACK
6
CONTINUOUS
10
201.336
20
-104.784
11
201.431
21
-104.975
0
LINE
8
BLACK
6
CONTINUOUS
10
201.431
20
-104.975
11
201.526
21
-105.07
0
LINE
8
BLACK
6
CONTINUOUS
10
201.526
20
-105.07
11
201.717
21
-105.165
0
LINE
8
BLACK
6
CONTINUOUS
10
201.717
20
-105.165
11
202.098
21
-105.165
0
LINE
8
BLACK
6
CONTINUOUS
10
202.098
20
-105.165
11
202.288
21
-105.07
0
LINE
8
BLACK
6
CONTINUOUS
10
202.288
20
-105.07
11
202.383
21
-104.975
0
LINE
8
BLACK
6
CONTINUOUS
10
202.383
20
-104.975
11
202.479
21
-104.784
0
LINE
8
BLACK
6
CONTINUOUS
10
202.479
20
-104.784
11
202.479
21
-104.403
0
LINE
8
BLACK
6
CONTINUOUS
10
202.479
20
-104.403
11
202.383
21
-104.213
0
LINE
8
BLACK
6
CONTINUOUS
10
202.383
20
-104.213
11
202.288
21
-104.118
0
LINE
8
BLACK
6
CONTINUOUS
10
202.288
20
-104.118
11
202.098
21
-104.022
0
LINE
8
BLACK
6
CONTINUOUS
10
203.621
20
-104.022
11
203.431
21
-103.927
0
LINE
8
BLACK
6
CONTINUOUS
10
203.431
20
-103.927
11
203.336
21
-103.832
0
LINE
8
BLACK
6
CONTINUOUS
10
203.336
20
-103.832
11
203.24
21
-103.641
0
LINE
8
BLACK
6
CONTINUOUS
10
203.24
20
-103.641
11
203.24
21
-103.546
0
LINE
8
BLACK
6
CONTINUOUS
10
203.24
20
-103.546
11
203.336
21
-103.356
0
LINE
8
BLACK
6
CONTINUOUS
10
203.336
20
-103.356
11
203.431
21
-103.26
0
LINE
8
BLACK
6
CONTINUOUS
10
203.431
20
-103.26
11
203.621
21
-103.165
0
LINE
8
BLACK
6
CONTINUOUS
10
203.621
20
-103.165
11
204.002
21
-103.165
0
LINE
8
BLACK
6
CONTINUOUS
10
204.002
20
-103.165
11
204.193
21
-103.26
0
LINE
8
BLACK
6
CONTINUOUS
10
204.193
20
-103.26
11
204.288
21
-103.356
0
LINE
8
BLACK
6
CONTINUOUS
10
204.288
20
-103.356
11
204.383
21
-103.546
0
LINE
8
BLACK
6
CONTINUOUS
10
204.383
20
-103.546
11
204.383
21
-103.641
0
LINE
8
BLACK
6
CONTINUOUS
10
204.383
20
-103.641
11
204.288
21
-103.832
0
LINE
8
BLACK
6
CONTINUOUS
10
204.288
20
-103.832
11
204.193
21
-103.927
0
LINE
8
BLACK
6
CONTINUOUS
10
204.193
20
-103.927
11
204.002
21
-104.022
0
LINE
8
BLACK
6
CONTINUOUS
10
204.002
20
-104.022
11
203.621
21
-104.022
0
LINE
8
BLACK
6
CONTINUOUS
10
203.621
20
-104.022
11
203.431
21
-104.118
0
LINE
8
BLACK
6
CONTINUOUS
10
203.431
20
-104.118
11
203.336
21
-104.213
0
LINE
8
BLACK
6
CONTINUOUS
10
203.336
20
-104.213
11
203.24
21
-104.403
0
LINE
8
BLACK
6
CONTINUOUS
10
203.24
20
-104.403
11
203.24
21
-104.784
0
LINE
8
BLACK
6
CONTINUOUS
10
203.24
20
-104.784
11
203.336
21
-104.975
0
LINE
8
BLACK
6
CONTINUOUS
10
203.336
20
-104.975
11
203.431
21
-105.07
0
LINE
8
BLACK
6
CONTINUOUS
10
203.431
20
-105.07
11
203.621
21
-105.165
0
LINE
8
BLACK
6
CONTINUOUS
10
203.621
20
-105.165
11
204.002
21
-105.165
0
LINE
8
BLACK
6
CONTINUOUS
10
204.002
20
-105.165
11
204.193
21
-105.07
0
LINE
8
BLACK
6
CONTINUOUS
10
204.193
20
-105.07
11
204.288
21
-104.975
0
LINE
8
BLACK
6
CONTINUOUS
10
204.288
20
-104.975
11
204.383
21
-104.784
0
LINE
8
BLACK
6
CONTINUOUS
10
204.383
20
-104.784
11
204.383
21
-104.403
0
LINE
8
BLACK
6
CONTINUOUS
10
204.383
20
-104.403
11
204.288
21
-104.213
0
LINE
8
BLACK
6
CONTINUOUS
10
204.288
20
-104.213
11
204.193
21
-104.118
0
LINE
8
BLACK
6
CONTINUOUS
10
204.193
20
-104.118
11
204.002
21
-104.022
0
LINE
8
BLACK
6
CONTINUOUS
10
206.764
20
-105.165
11
206.764
21
-103.165
0
LINE
8
BLACK
6
CONTINUOUS
10
207.621
20
-105.165
11
207.621
21
-104.118
0
LINE
8
BLACK
6
CONTINUOUS
10
207.621
20
-104.118
11
207.526
21
-103.927
0
LINE
8
BLACK
6
CONTINUOUS
10
207.526
20
-103.927
11
207.336
21
-103.832
0
LINE
8
BLACK
6
CONTINUOUS
10
207.336
20
-103.832
11
207.05
21
-103.832
0
LINE
8
BLACK
6
CONTINUOUS
10
207.05
20
-103.832
11
206.86
21
-103.927
0
LINE
8
BLACK
6
CONTINUOUS
10
206.86
20
-103.927
11
206.764
21
-104.022
0
LINE
8
BLACK
6
CONTINUOUS
10
208.86
20
-105.165
11
208.669
21
-105.07
0
LINE
8
BLACK
6
CONTINUOUS
10
208.669
20
-105.07
11
208.574
21
-104.975
0
LINE
8
BLACK
6
CONTINUOUS
10
208.574
20
-104.975
11
208.479
21
-104.784
0
LINE
8
BLACK
6
CONTINUOUS
10
208.479
20
-104.784
11
208.479
21
-104.213
0
LINE
8
BLACK
6
CONTINUOUS
10
208.479
20
-104.213
11
208.574
21
-104.022
0
LINE
8
BLACK
6
CONTINUOUS
10
208.574
20
-104.022
11
208.669
21
-103.927
0
LINE
8
BLACK
6
CONTINUOUS
10
208.669
20
-103.927
11
208.86
21
-103.832
0
LINE
8
BLACK
6
CONTINUOUS
10
208.86
20
-103.832
11
209.145
21
-103.832
0
LINE
8
BLACK
6
CONTINUOUS
10
209.145
20
-103.832
11
209.336
21
-103.927
0
LINE
8
BLACK
6
CONTINUOUS
10
209.336
20
-103.927
11
209.431
21
-104.022
0
LINE
8
BLACK
6
CONTINUOUS
10
209.431
20
-104.022
11
209.526
21
-104.213
0
LINE
8
BLACK
6
CONTINUOUS
10
209.526
20
-104.213
11
209.526
21
-104.784
0
LINE
8
BLACK
6
CONTINUOUS
10
209.526
20
-104.784
11
209.431
21
-104.975
0
LINE
8
BLACK
6
CONTINUOUS
10
209.431
20
-104.975
11
209.336
21
-105.07
0
LINE
8
BLACK
6
CONTINUOUS
10
209.336
20
-105.07
11
209.145
21
-105.165
0
LINE
8
BLACK
6
CONTINUOUS
10
209.145
20
-105.165
11
208.86
21
-105.165
0
LINE
8
BLACK
6
CONTINUOUS
10
210.669
20
-105.165
11
210.479
21
-105.07
0
LINE
8
BLACK
6
CONTINUOUS
10
210.479
20
-105.07
11
210.383
21
-104.88
0
LINE
8
BLACK
6
CONTINUOUS
10
210.383
20
-104.88
11
210.383
21
-103.165
0
LINE
8
BLACK
6
CONTINUOUS
10
212.193
20
-105.07
11
212.002
21
-105.165
0
LINE
8
BLACK
6
CONTINUOUS
10
212.002
20
-105.165
11
211.621
21
-105.165
0
LINE
8
BLACK
6
CONTINUOUS
10
211.621
20
-105.165
11
211.431
21
-105.07
0
LINE
8
BLACK
6
CONTINUOUS
10
211.431
20
-105.07
11
211.336
21
-104.88
0
LINE
8
BLACK
6
CONTINUOUS
10
211.336
20
-104.88
11
211.336
21
-104.118
0
LINE
8
BLACK
6
CONTINUOUS
10
211.336
20
-104.118
11
211.431
21
-103.927
0
LINE
8
BLACK
6
CONTINUOUS
10
211.431
20
-103.927
11
211.621
21
-103.832
0
LINE
8
BLACK
6
CONTINUOUS
10
211.621
20
-103.832
11
212.002
21
-103.832
0
LINE
8
BLACK
6
CONTINUOUS
10
212.002
20
-103.832
11
212.193
21
-103.927
0
LINE
8
BLACK
6
CONTINUOUS
10
212.193
20
-103.927
11
212.288
21
-104.118
0
LINE
8
BLACK
6
CONTINUOUS
10
212.288
20
-104.118
11
212.288
21
-104.308
0
LINE
8
BLACK
6
CONTINUOUS
10
212.288
20
-104.308
11
211.336
21
-104.499
0
LINE
8
BLACK
6
CONTINUOUS
10
213.05
20
-105.07
11
213.24
21
-105.165
0
LINE
8
BLACK
6
CONTINUOUS
10
213.24
20
-105.165
11
213.621
21
-105.165
0
LINE
8
BLACK
6
CONTINUOUS
10
213.621
20
-105.165
11
213.812
21
-105.07
0
LINE
8
BLACK
6
CONTINUOUS
10
213.812
20
-105.07
11
213.907
21
-104.88
0
LINE
8
BLACK
6
CONTINUOUS
10
213.907
20
-104.88
11
213.907
21
-104.784
0
LINE
8
BLACK
6
CONTINUOUS
10
213.907
20
-104.784
11
213.812
21
-104.594
0
LINE
8
BLACK
6
CONTINUOUS
10
213.812
20
-104.594
11
213.621
21
-104.499
0
LINE
8
BLACK
6
CONTINUOUS
10
213.621
20
-104.499
11
213.336
21
-104.499
0
LINE
8
BLACK
6
CONTINUOUS
10
213.336
20
-104.499
11
213.145
21
-104.403
0
LINE
8
BLACK
6
CONTINUOUS
10
213.145
20
-104.403
11
213.05
21
-104.213
0
LINE
8
BLACK
6
CONTINUOUS
10
213.05
20
-104.213
11
213.05
21
-104.118
0
LINE
8
BLACK
6
CONTINUOUS
10
213.05
20
-104.118
11
213.145
21
-103.927
0
LINE
8
BLACK
6
CONTINUOUS
10
213.145
20
-103.927
11
213.336
21
-103.832
0
LINE
8
BLACK
6
CONTINUOUS
10
213.336
20
-103.832
11
213.621
21
-103.832
0
LINE
8
BLACK
6
CONTINUOUS
10
213.621
20
-103.832
11
213.812
21
-103.927
0
LINE
8
BLACK
6
CONTINUOUS
10
214.574
20
-105.927
11
214.669
21
-105.832
0
LINE
8
BLACK
6
CONTINUOUS
10
214.669
20
-105.832
11
214.86
21
-105.546
0
LINE
8
BLACK
6
CONTINUOUS
10
214.86
20
-105.546
11
214.955
21
-105.356
0
LINE
8
BLACK
6
CONTINUOUS
10
214.955
20
-105.356
11
215.05
21
-105.07
0
LINE
8
BLACK
6
CONTINUOUS
10
215.05
20
-105.07
11
215.145
21
-104.594
0
LINE
8
BLACK
6
CONTINUOUS
10
215.145
20
-104.594
11
215.145
21
-104.213
0
LINE
8
BLACK
6
CONTINUOUS
10
215.145
20
-104.213
11
215.05
21
-103.737
0
LINE
8
BLACK
6
CONTINUOUS
10
215.05
20
-103.737
11
214.955
21
-103.451
0
LINE
8
BLACK
6
CONTINUOUS
10
214.955
20
-103.451
11
214.86
21
-103.26
0
LINE
8
BLACK
6
CONTINUOUS
10
214.86
20
-103.26
11
214.669
21
-102.975
0
LINE
8
BLACK
6
CONTINUOUS
10
214.669
20
-102.975
11
214.574
21
-102.88
0
CIRCLE
8
BLACK
10
164.55
20
-106.88
40
0.5
0
LINE
8
BLACK
6
CONTINUOUS
10
168.574
20
-107.805
11
167.431
21
-107.805
0
LINE
8
BLACK
6
CONTINUOUS
10
168.002
20
-107.805
11
168.002
21
-105.805
0
LINE
8
BLACK
6
CONTINUOUS
10
168.002
20
-105.805
11
167.812
21
-106.091
0
LINE
8
BLACK
6
CONTINUOUS
10
167.812
20
-106.091
11
167.621
21
-106.281
0
LINE
8
BLACK
6
CONTINUOUS
10
167.621
20
-106.281
11
167.431
21
-106.377
0
LINE
8
BLACK
6
CONTINUOUS
10
169.431
20
-107.615
11
169.526
21
-107.71
0
LINE
8
BLACK
6
CONTINUOUS
10
169.526
20
-107.71
11
169.431
21
-107.805
0
LINE
8
BLACK
6
CONTINUOUS
10
169.431
20
-107.805
11
169.336
21
-107.71
0
LINE
8
BLACK
6
CONTINUOUS
10
169.336
20
-107.71
11
169.431
21
-107.615
0
LINE
8
BLACK
6
CONTINUOUS
10
169.431
20
-107.615
11
169.431
21
-107.805
0
LINE
8
BLACK
6
CONTINUOUS
10
170.764
20
-105.805
11
170.955
21
-105.805
0
LINE
8
BLACK
6
CONTINUOUS
10
170.955
20
-105.805
11
171.145
21
-105.9
0
LINE
8
BLACK
6
CONTINUOUS
10
171.145
20
-105.9
11
171.24
21
-105.996
0
LINE
8
BLACK
6
CONTINUOUS
10
171.24
20
-105.996
11
171.336
21
-106.186
0
LINE
8
BLACK
6
CONTINUOUS
10
171.336
20
-106.186
11
171.431
21
-106.567
0
LINE
8
BLACK
6
CONTINUOUS
10
171.431
20
-106.567
11
171.431
21
-107.043
0
LINE
8
BLACK
6
CONTINUOUS
10
171.431
20
-107.043
11
171.336
21
-107.424
0
LINE
8
BLACK
6
CONTINUOUS
10
171.336
20
-107.424
11
171.24
21
-107.615
0
LINE
8
BLACK
6
CONTINUOUS
10
171.24
20
-107.615
11
171.145
21
-107.71
0
LINE
8
BLACK
6
CONTINUOUS
10
171.145
20
-107.71
11
170.955
21
-107.805
0
LINE
8
BLACK
6
CONTINUOUS
10
170.955
20
-107.805
11
170.764
21
-107.805
0
LINE
8
BLACK
6
CONTINUOUS
10
170.764
20
-107.805
11
170.574
21
-107.71
0
LINE
8
BLACK
6
CONTINUOUS
10
170.574
20
-107.71
11
170.479
21
-107.615
0
LINE
8
BLACK
6
CONTINUOUS
10
170.479
20
-107.615
11
170.383
21
-107.424
0
LINE
8
BLACK
6
CONTINUOUS
10
170.383
20
-107.424
11
170.288
21
-107.043
0
LINE
8
BLACK
6
CONTINUOUS
10
170.288
20
-107.043
11
170.288
21
-106.567
0
LINE
8
BLACK
6
CONTINUOUS
10
170.288
20
-106.567
11
170.383
21
-106.186
0
LINE
8
BLACK
6
CONTINUOUS
10
170.383
20
-106.186
11
170.479
21
-105.996
0
LINE
8
BLACK
6
CONTINUOUS
10
170.479
20
-105.996
11
170.574
21
-105.9
0
LINE
8
BLACK
6
CONTINUOUS
10
170.574
20
-105.9
11
170.764
21
-105.805
0
LINE
8
BLACK
6
CONTINUOUS
10
172.669
20
-105.805
11
172.86
21
-105.805
0
LINE
8
BLACK
6
CONTINUOUS
10
172.86
20
-105.805
11
173.05
21
-105.9
0
LINE
8
BLACK
6
CONTINUOUS
10
173.05
20
-105.9
11
173.145
21
-105.996
0
LINE
8
BLACK
6
CONTINUOUS
10
173.145
20
-105.996
11
173.24
21
-106.186
0
LINE
8
BLACK
6
CONTINUOUS
10
173.24
20
-106.186
11
173.336
21
-106.567
0
LINE
8
BLACK
6
CONTINUOUS
10
173.336
20
-106.567
11
173.336
21
-107.043
0
LINE
8
BLACK
6
CONTINUOUS
10
173.336
20
-107.043
11
173.24
21
-107.424
0
LINE
8
BLACK
6
CONTINUOUS
10
173.24
20
-107.424
11
173.145
21
-107.615
0
LINE
8
BLACK
6
CONTINUOUS
10
173.145
20
-107.615
11
173.05
21
-107.71
0
LINE
8
BLACK
6
CONTINUOUS
10
173.05
20
-107.71
11
172.86
21
-107.805
0
LINE
8
BLACK
6
CONTINUOUS
10
172.86
20
-107.805
11
172.669
21
-107.805
0
LINE
8
BLACK
6
CONTINUOUS
10
172.669
20
-107.805
11
172.479
21
-107.71
0
LINE
8
BLACK
6
CONTINUOUS
10
172.479
20
-107.71
11
172.383
21
-107.615
0
LINE
8
BLACK
6
CONTINUOUS
10
172.383
20
-107.615
11
172.288
21
-107.424
0
LINE
8
BLACK
6
CONTINUOUS
10
172.288
20
-107.424
11
172.193
21
-107.043
0
LINE
8
BLACK
6
CONTINUOUS
10
172.193
20
-107.043
11
172.193
21
-106.567
0
LINE
8
BLACK
6
CONTINUOUS
10
172.193
20
-106.567
11
172.288
21
-106.186
0
LINE
8
BLACK
6
CONTINUOUS
10
172.288
20
-106.186
11
172.383
21
-105.996
0
LINE
8
BLACK
6
CONTINUOUS
10
172.383
20
-105.996
11
172.479
21
-105.9
0
LINE
8
BLACK
6
CONTINUOUS
10
172.479
20
-105.9
11
172.669
21
-105.805
0
LINE
8
BLACK
6
CONTINUOUS
10
174.574
20
-105.805
11
174.764
21
-105.805
0
LINE
8
BLACK
6
CONTINUOUS
10
174.764
20
-105.805
11
174.955
21
-105.9
0
LINE
8
BLACK
6
CONTINUOUS
10
174.955
20
-105.9
11
175.05
21
-105.996
0
LINE
8
BLACK
6
CONTINUOUS
10
175.05
20
-105.996
11
175.145
21
-106.186
0
LINE
8
BLACK
6
CONTINUOUS
10
175.145
20
-106.186
11
175.24
21
-106.567
0
LINE
8
BLACK
6
CONTINUOUS
10
175.24
20
-106.567
11
175.24
21
-107.043
0
LINE
8
BLACK
6
CONTINUOUS
10
175.24
20
-107.043
11
175.145
21
-107.424
0
LINE
8
BLACK
6
CONTINUOUS
10
175.145
20
-107.424
11
175.05
21
-107.615
0
LINE
8
BLACK
6
CONTINUOUS
10
175.05
20
-107.615
11
174.955
21
-107.71
0
LINE
8
BLACK
6
CONTINUOUS
10
174.955
20
-107.71
11
174.764
21
-107.805
0
LINE
8
BLACK
6
CONTINUOUS
10
174.764
20
-107.805
11
174.574
21
-107.805
0
LINE
8
BLACK
6
CONTINUOUS
10
174.574
20
-107.805
11
174.383
21
-107.71
0
LINE
8
BLACK
6
CONTINUOUS
10
174.383
20
-107.71
11
174.288
21
-107.615
0
LINE
8
BLACK
6
CONTINUOUS
10
174.288
20
-107.615
11
174.193
21
-107.424
0
LINE
8
BLACK
6
CONTINUOUS
10
174.193
20
-107.424
11
174.098
21
-107.043
0
LINE
8
BLACK
6
CONTINUOUS
10
174.098
20
-107.043
11
174.098
21
-106.567
0
LINE
8
BLACK
6
CONTINUOUS
10
174.098
20
-106.567
11
174.193
21
-106.186
0
LINE
8
BLACK
6
CONTINUOUS
10
174.193
20
-106.186
11
174.288
21
-105.996
0
LINE
8
BLACK
6
CONTINUOUS
10
174.288
20
-105.996
11
174.383
21
-105.9
0
LINE
8
BLACK
6
CONTINUOUS
10
174.383
20
-105.9
11
174.574
21
-105.805
0
LINE
8
BLACK
6
CONTINUOUS
10
176.098
20
-107.805
11
176.098
21
-106.472
0
LINE
8
BLACK
6
CONTINUOUS
10
176.098
20
-106.662
11
176.193
21
-106.567
0
LINE
8
BLACK
6
CONTINUOUS
10
176.193
20
-106.567
11
176.383
21
-106.472
0
LINE
8
BLACK
6
CONTINUOUS
10
176.383
20
-106.472
11
176.669
21
-106.472
0
LINE
8
BLACK
6
CONTINUOUS
10
176.669
20
-106.472
11
176.86
21
-106.567
0
LINE
8
BLACK
6
CONTINUOUS
10
176.86
20
-106.567
11
176.955
21
-106.758
0
LINE
8
BLACK
6
CONTINUOUS
10
176.955
20
-106.758
11
176.955
21
-107.805
0
LINE
8
BLACK
6
CONTINUOUS
10
176.955
20
-106.758
11
177.05
21
-106.567
0
LINE
8
BLACK
6
CONTINUOUS
10
177.05
20
-106.567
11
177.24
21
-106.472
0
LINE
8
BLACK
6
CONTINUOUS
10
177.24
20
-106.472
11
177.526
21
-106.472
0
LINE
8
BLACK
6
CONTINUOUS
10
177.526
20
-106.472
11
177.717
21
-106.567
0
LINE
8
BLACK
6
CONTINUOUS
10
177.717
20
-106.567
11
177.812
21
-106.758
0
LINE
8
BLACK
6
CONTINUOUS
10
177.812
20
-106.758
11
177.812
21
-107.805
0
LINE
8
BLACK
6
CONTINUOUS
10
178.764
20
-107.805
11
178.764
21
-106.472
0
LINE
8
BLACK
6
CONTINUOUS
10
178.764
20
-106.662
11
178.86
21
-106.567
0
LINE
8
BLACK
6
CONTINUOUS
10
178.86
20
-106.567
11
179.05
21
-106.472
0
LINE
8
BLACK
6
CONTINUOUS
10
179.05
20
-106.472
11
179.336
21
-106.472
0
LINE
8
BLACK
6
CONTINUOUS
10
179.336
20
-106.472
11
179.526
21
-106.567
0
LINE
8
BLACK
6
CONTINUOUS
10
179.526
20
-106.567
11
179.621
21
-106.758
0
LINE
8
BLACK
6
CONTINUOUS
10
179.621
20
-106.758
11
179.621
21
-107.805
0
LINE
8
BLACK
6
CONTINUOUS
10
179.621
20
-106.758
11
179.717
21
-106.567
0
LINE
8
BLACK
6
CONTINUOUS
10
179.717
20
-106.567
11
179.907
21
-106.472
0
LINE
8
BLACK
6
CONTINUOUS
10
179.907
20
-106.472
11
180.193
21
-106.472
0
LINE
8
BLACK
6
CONTINUOUS
10
180.193
20
-106.472
11
180.383
21
-106.567
0
LINE
8
BLACK
6
CONTINUOUS
10
180.383
20
-106.567
11
180.479
21
-106.758
0
LINE
8
BLACK
6
CONTINUOUS
10
180.479
20
-106.758
11
180.479
21
-107.805
0
LINE
8
BLACK
6
CONTINUOUS
10
184.383
20
-105.71
11
182.669
21
-108.281
0
LINE
8
BLACK
6
CONTINUOUS
10
186.955
20
-105.805
11
187.145
21
-105.805
0
LINE
8
BLACK
6
CONTINUOUS
10
187.145
20
-105.805
11
187.336
21
-105.9
0
LINE
8
BLACK
6
CONTINUOUS
10
187.336
20
-105.9
11
187.431
21
-105.996
0
LINE
8
BLACK
6
CONTINUOUS
10
187.431
20
-105.996
11
187.526
21
-106.186
0
LINE
8
BLACK
6
CONTINUOUS
10
187.526
20
-106.186
11
187.621
21
-106.567
0
LINE
8
BLACK
6
CONTINUOUS
10
187.621
20
-106.567
11
187.621
21
-107.043
0
LINE
8
BLACK
6
CONTINUOUS
10
187.621
20
-107.043
11
187.526
21
-107.424
0
LINE
8
BLACK
6
CONTINUOUS
10
187.526
20
-107.424
11
187.431
21
-107.615
0
LINE
8
BLACK
6
CONTINUOUS
10
187.431
20
-107.615
11
187.336
21
-107.71
0
LINE
8
BLACK
6
CONTINUOUS
10
187.336
20
-107.71
11
187.145
21
-107.805
0
LINE
8
BLACK
6
CONTINUOUS
10
187.145
20
-107.805
11
186.955
21
-107.805
0
LINE
8
BLACK
6
CONTINUOUS
10
186.955
20
-107.805
11
186.764
21
-107.71
0
LINE
8
BLACK
6
CONTINUOUS
10
186.764
20
-107.71
11
186.669
21
-107.615
0
LINE
8
BLACK
6
CONTINUOUS
10
186.669
20
-107.615
11
186.574
21
-107.424
0
LINE
8
BLACK
6
CONTINUOUS
10
186.574
20
-107.424
11
186.479
21
-107.043
0
LINE
8
BLACK
6
CONTINUOUS
10
186.479
20
-107.043
11
186.479
21
-106.567
0
LINE
8
BLACK
6
CONTINUOUS
10
186.479
20
-106.567
11
186.574
21
-106.186
0
LINE
8
BLACK
6
CONTINUOUS
10
186.574
20
-106.186
11
186.669
21
-105.996
0
LINE
8
BLACK
6
CONTINUOUS
10
186.669
20
-105.996
11
186.764
21
-105.9
0
LINE
8
BLACK
6
CONTINUOUS
10
186.764
20
-105.9
11
186.955
21
-105.805
0
LINE
8
BLACK
6
CONTINUOUS
10
188.479
20
-107.615
11
188.574
21
-107.71
0
LINE
8
BLACK
6
CONTINUOUS
10
188.574
20
-107.71
11
188.479
21
-107.805
0
LINE
8
BLACK
6
CONTINUOUS
10
188.479
20
-107.805
11
188.383
21
-107.71
0
LINE
8
BLACK
6
CONTINUOUS
10
188.383
20
-107.71
11
188.479
21
-107.615
0
LINE
8
BLACK
6
CONTINUOUS
10
188.479
20
-107.615
11
188.479
21
-107.805
0
LINE
8
BLACK
6
CONTINUOUS
10
189.812
20
-105.805
11
190.002
21
-105.805
0
LINE
8
BLACK
6
CONTINUOUS
10
190.002
20
-105.805
11
190.193
21
-105.9
0
LINE
8
BLACK
6
CONTINUOUS
10
190.193
20
-105.9
11
190.288
21
-105.996
0
LINE
8
BLACK
6
CONTINUOUS
10
190.288
20
-105.996
11
190.383
21
-106.186
0
LINE
8
BLACK
6
CONTINUOUS
10
190.383
20
-106.186
11
190.479
21
-106.567
0
LINE
8
BLACK
6
CONTINUOUS
10
190.479
20
-106.567
11
190.479
21
-107.043
0
LINE
8
BLACK
6
CONTINUOUS
10
190.479
20
-107.043
11
190.383
21
-107.424
0
LINE
8
BLACK
6
CONTINUOUS
10
190.383
20
-107.424
11
190.288
21
-107.615
0
LINE
8
BLACK
6
CONTINUOUS
10
190.288
20
-107.615
11
190.193
21
-107.71
0
LINE
8
BLACK
6
CONTINUOUS
10
190.193
20
-107.71
11
190.002
21
-107.805
0
LINE
8
BLACK
6
CONTINUOUS
10
190.002
20
-107.805
11
189.812
21
-107.805
0
LINE
8
BLACK
6
CONTINUOUS
10
189.812
20
-107.805
11
189.621
21
-107.71
0
LINE
8
BLACK
6
CONTINUOUS
10
189.621
20
-107.71
11
189.526
21
-107.615
0
LINE
8
BLACK
6
CONTINUOUS
10
189.526
20
-107.615
11
189.431
21
-107.424
0
LINE
8
BLACK
6
CONTINUOUS
10
189.431
20
-107.424
11
189.336
21
-107.043
0
LINE
8
BLACK
6
CONTINUOUS
10
189.336
20
-107.043
11
189.336
21
-106.567
0
LINE
8
BLACK
6
CONTINUOUS
10
189.336
20
-106.567
11
189.431
21
-106.186
0
LINE
8
BLACK
6
CONTINUOUS
10
189.431
20
-106.186
11
189.526
21
-105.996
0
LINE
8
BLACK
6
CONTINUOUS
10
189.526
20
-105.996
11
189.621
21
-105.9
0
LINE
8
BLACK
6
CONTINUOUS
10
189.621
20
-105.9
11
189.812
21
-105.805
0
LINE
8
BLACK
6
CONTINUOUS
10
191.145
20
-105.805
11
192.383
21
-105.805
0
LINE
8
BLACK
6
CONTINUOUS
10
192.383
20
-105.805
11
191.717
21
-106.567
0
LINE
8
BLACK
6
CONTINUOUS
10
191.717
20
-106.567
11
192.002
21
-106.567
0
LINE
8
BLACK
6
CONTINUOUS
10
192.002
20
-106.567
11
192.193
21
-106.662
0
LINE
8
BLACK
6
CONTINUOUS
10
192.193
20
-106.662
11
192.288
21
-106.758
0
LINE
8
BLACK
6
CONTINUOUS
10
192.288
20
-106.758
11
192.383
21
-106.948
0
LINE
8
BLACK
6
CONTINUOUS
10
192.383
20
-106.948
11
192.383
21
-107.424
0
LINE
8
BLACK
6
CONTINUOUS
10
192.383
20
-107.424
11
192.288
21
-107.615
0
LINE
8
BLACK
6
CONTINUOUS
10
192.288
20
-107.615
11
192.193
21
-107.71
0
LINE
8
BLACK
6
CONTINUOUS
10
192.193
20
-107.71
11
192.002
21
-107.805
0
LINE
8
BLACK
6
CONTINUOUS
10
192.002
20
-107.805
11
191.431
21
-107.805
0
LINE
8
BLACK
6
CONTINUOUS
10
191.431
20
-107.805
11
191.24
21
-107.71
0
LINE
8
BLACK
6
CONTINUOUS
10
191.24
20
-107.71
11
191.145
21
-107.615
0
LINE
8
BLACK
6
CONTINUOUS
10
193.336
20
-107.805
11
193.717
21
-107.805
0
LINE
8
BLACK
6
CONTINUOUS
10
193.717
20
-107.805
11
193.907
21
-107.71
0
LINE
8
BLACK
6
CONTINUOUS
10
193.907
20
-107.71
11
194.002
21
-107.615
0
LINE
8
BLACK
6
CONTINUOUS
10
194.002
20
-107.615
11
194.193
21
-107.329
0
LINE
8
BLACK
6
CONTINUOUS
10
194.193
20
-107.329
11
194.288
21
-106.948
0
LINE
8
BLACK
6
CONTINUOUS
10
194.288
20
-106.948
11
194.288
21
-106.186
0
LINE
8
BLACK
6
CONTINUOUS
10
194.288
20
-106.186
11
194.193
21
-105.996
0
LINE
8
BLACK
6
CONTINUOUS
10
194.193
20
-105.996
11
194.098
21
-105.9
0
LINE
8
BLACK
6
CONTINUOUS
10
194.098
20
-105.9
11
193.907
21
-105.805
0
LINE
8
BLACK
6
CONTINUOUS
10
193.907
20
-105.805
11
193.526
21
-105.805
0
LINE
8
BLACK
6
CONTINUOUS
10
193.526
20
-105.805
11
193.336
21
-105.9
0
LINE
8
BLACK
6
CONTINUOUS
10
193.336
20
-105.9
11
193.24
21
-105.996
0
LINE
8
BLACK
6
CONTINUOUS
10
193.24
20
-105.996
11
193.145
21
-106.186
0
LINE
8
BLACK
6
CONTINUOUS
10
193.145
20
-106.186
11
193.145
21
-106.662
0
LINE
8
BLACK
6
CONTINUOUS
10
193.145
20
-106.662
11
193.24
21
-106.853
0
LINE
8
BLACK
6
CONTINUOUS
10
193.24
20
-106.853
11
193.336
21
-106.948
0
LINE
8
BLACK
6
CONTINUOUS
10
193.336
20
-106.948
11
193.526
21
-107.043
0
LINE
8
BLACK
6
CONTINUOUS
10
193.526
20
-107.043
11
193.907
21
-107.043
0
LINE
8
BLACK
6
CONTINUOUS
10
193.907
20
-107.043
11
194.098
21
-106.948
0
LINE
8
BLACK
6
CONTINUOUS
10
194.098
20
-106.948
11
194.193
21
-106.853
0
LINE
8
BLACK
6
CONTINUOUS
10
194.193
20
-106.853
11
194.288
21
-106.662
0
LINE
8
BLACK
6
CONTINUOUS
10
196.002
20
-106.472
11
196.002
21
-107.805
0
LINE
8
BLACK
6
CONTINUOUS
10
195.526
20
-105.71
11
195.05
21
-107.139
0
LINE
8
BLACK
6
CONTINUOUS
10
195.05
20
-107.139
11
196.288
21
-107.139
0
LINE
8
BLACK
6
CONTINUOUS
10
196.955
20
-105.805
11
196.955
21
-106.186
0
LINE
8
BLACK
6
CONTINUOUS
10
197.717
20
-105.805
11
197.717
21
-106.186
0
LINE
8
BLACK
6
CONTINUOUS
10
200.669
20
-108.567
11
200.574
21
-108.472
0
LINE
8
BLACK
6
CONTINUOUS
10
200.574
20
-108.472
11
200.383
21
-108.186
0
LINE
8
BLACK
6
CONTINUOUS
10
200.383
20
-108.186
11
200.288
21
-107.996
0
LINE
8
BLACK
6
CONTINUOUS
10
200.288
20
-107.996
11
200.193
21
-107.71
0
LINE
8
BLACK
6
CONTINUOUS
10
200.193
20
-107.71
11
200.098
21
-107.234
0
LINE
8
BLACK
6
CONTINUOUS
10
200.098
20
-107.234
11
200.098
21
-106.853
0
LINE
8
BLACK
6
CONTINUOUS
10
200.098
20
-106.853
11
200.193
21
-106.377
0
LINE
8
BLACK
6
CONTINUOUS
10
200.193
20
-106.377
11
200.288
21
-106.091
0
LINE
8
BLACK
6
CONTINUOUS
10
200.288
20
-106.091
11
200.383
21
-105.9
0
LINE
8
BLACK
6
CONTINUOUS
10
200.383
20
-105.9
11
200.574
21
-105.615
0
LINE
8
BLACK
6
CONTINUOUS
10
200.574
20
-105.615
11
200.669
21
-105.52
0
LINE
8
BLACK
6
CONTINUOUS
10
201.717
20
-106.662
11
201.526
21
-106.567
0
LINE
8
BLACK
6
CONTINUOUS
10
201.526
20
-106.567
11
201.431
21
-106.472
0
LINE
8
BLACK
6
CONTINUOUS
10
201.431
20
-106.472
11
201.336
21
-106.281
0
LINE
8
BLACK
6
CONTINUOUS
10
201.336
20
-106.281
11
201.336
21
-106.186
0
LINE
8
BLACK
6
CONTINUOUS
10
201.336
20
-106.186
11
201.431
21
-105.996
0
LINE
8
BLACK
6
CONTINUOUS
10
201.431
20
-105.996
11
201.526
21
-105.9
0
LINE
8
BLACK
6
CONTINUOUS
10
201.526
20
-105.9
11
201.717
21
-105.805
0
LINE
8
BLACK
6
CONTINUOUS
10
201.717
20
-105.805
11
202.098
21
-105.805
0
LINE
8
BLACK
6
CONTINUOUS
10
202.098
20
-105.805
11
202.288
21
-105.9
0
LINE
8
BLACK
6
CONTINUOUS
10
202.288
20
-105.9
11
202.383
21
-105.996
0
LINE
8
BLACK
6
CONTINUOUS
10
202.383
20
-105.996
11
202.479
21
-106.186
0
LINE
8
BLACK
6
CONTINUOUS
10
202.479
20
-106.186
11
202.479
21
-106.281
0
LINE
8
BLACK
6
CONTINUOUS
10
202.479
20
-106.281
11
202.383
21
-106.472
0
LINE
8
BLACK
6
CONTINUOUS
10
202.383
20
-106.472
11
202.288
21
-106.567
0
LINE
8
BLACK
6
CONTINUOUS
10
202.288
20
-106.567
11
202.098
21
-106.662
0
LINE
8
BLACK
6
CONTINUOUS
10
202.098
20
-106.662
11
201.717
21
-106.662
0
LINE
8
BLACK
6
CONTINUOUS
10
201.717
20
-106.662
11
201.526
21
-106.758
0
LINE
8
BLACK
6
CONTINUOUS
10
201.526
20
-106.758
11
201.431
21
-106.853
0
LINE
8
BLACK
6
CONTINUOUS
10
201.431
20
-106.853
11
201.336
21
-107.043
0
LINE
8
BLACK
6
CONTINUOUS
10
201.336
20
-107.043
11
201.336
21
-107.424
0
LINE
8
BLACK
6
CONTINUOUS
10
201.336
20
-107.424
11
201.431
21
-107.615
0
LINE
8
BLACK
6
CONTINUOUS
10
201.431
20
-107.615
11
201.526
21
-107.71
0
LINE
8
BLACK
6
CONTINUOUS
10
201.526
20
-107.71
11
201.717
21
-107.805
0
LINE
8
BLACK
6
CONTINUOUS
10
201.717
20
-107.805
11
202.098
21
-107.805
0
LINE
8
BLACK
6
CONTINUOUS
10
202.098
20
-107.805
11
202.288
21
-107.71
0
LINE
8
BLACK
6
CONTINUOUS
10
202.288
20
-107.71
11
202.383
21
-107.615
0
LINE
8
BLACK
6
CONTINUOUS
10
202.383
20
-107.615
11
202.479
21
-107.424
0
LINE
8
BLACK
6
CONTINUOUS
10
202.479
20
-107.424
11
202.479
21
-107.043
0
LINE
8
BLACK
6
CONTINUOUS
10
202.479
20
-107.043
11
202.383
21
-106.853
0
LINE
8
BLACK
6
CONTINUOUS
10
202.383
20
-106.853
11
202.288
21
-106.758
0
LINE
8
BLACK
6
CONTINUOUS
10
202.288
20
-106.758
11
202.098
21
-106.662
0
LINE
8
BLACK
6
CONTINUOUS
10
203.717
20
-105.805
11
203.907
21
-105.805
0
LINE
8
BLACK
6
CONTINUOUS
10
203.907
20
-105.805
11
204.098
21
-105.9
0
LINE
8
BLACK
6
CONTINUOUS
10
204.098
20
-105.9
11
204.193
21
-105.996
0
LINE
8
BLACK
6
CONTINUOUS
10
204.193
20
-105.996
11
204.288
21
-106.186
0
LINE
8
BLACK
6
CONTINUOUS
10
204.288
20
-106.186
11
204.383
21
-106.567
0
LINE
8
BLACK
6
CONTINUOUS
10
204.383
20
-106.567
11
204.383
21
-107.043
0
LINE
8
BLACK
6
CONTINUOUS
10
204.383
20
-107.043
11
204.288
21
-107.424
0
LINE
8
BLACK
6
CONTINUOUS
10
204.288
20
-107.424
11
204.193
21
-107.615
0
LINE
8
BLACK
6
CONTINUOUS
10
204.193
20
-107.615
11
204.098
21
-107.71
0
LINE
8
BLACK
6
CONTINUOUS
10
204.098
20
-107.71
11
203.907
21
-107.805
0
LINE
8
BLACK
6
CONTINUOUS
10
203.907
20
-107.805
11
203.717
21
-107.805
0
LINE
8
BLACK
6
CONTINUOUS
10
203.717
20
-107.805
11
203.526
21
-107.71
0
LINE
8
BLACK
6
CONTINUOUS
10
203.526
20
-107.71
11
203.431
21
-107.615
0
LINE
8
BLACK
6
CONTINUOUS
10
203.431
20
-107.615
11
203.336
21
-107.424
0
LINE
8
BLACK
6
CONTINUOUS
10
203.336
20
-107.424
11
203.24
21
-107.043
0
LINE
8
BLACK
6
CONTINUOUS
10
203.24
20
-107.043
11
203.24
21
-106.567
0
LINE
8
BLACK
6
CONTINUOUS
10
203.24
20
-106.567
11
203.336
21
-106.186
0
LINE
8
BLACK
6
CONTINUOUS
10
203.336
20
-106.186
11
203.431
21
-105.996
0
LINE
8
BLACK
6
CONTINUOUS
10
203.431
20
-105.996
11
203.526
21
-105.9
0
LINE
8
BLACK
6
CONTINUOUS
10
203.526
20
-105.9
11
203.717
21
-105.805
0
LINE
8
BLACK
6
CONTINUOUS
10
206.764
20
-107.805
11
206.764
21
-105.805
0
LINE
8
BLACK
6
CONTINUOUS
10
207.621
20
-107.805
11
207.621
21
-106.758
0
LINE
8
BLACK
6
CONTINUOUS
10
207.621
20
-106.758
11
207.526
21
-106.567
0
LINE
8
BLACK
6
CONTINUOUS
10
207.526
20
-106.567
11
207.336
21
-106.472
0
LINE
8
BLACK
6
CONTINUOUS
10
207.336
20
-106.472
11
207.05
21
-106.472
0
LINE
8
BLACK
6
CONTINUOUS
10
207.05
20
-106.472
11
206.86
21
-106.567
0
LINE
8
BLACK
6
CONTINUOUS
10
206.86
20
-106.567
11
206.764
21
-106.662
0
LINE
8
BLACK
6
CONTINUOUS
10
208.86
20
-107.805
11
208.669
21
-107.71
0
LINE
8
BLACK
6
CONTINUOUS
10
208.669
20
-107.71
11
208.574
21
-107.615
0
LINE
8
BLACK
6
CONTINUOUS
10
208.574
20
-107.615
11
208.479
21
-107.424
0
LINE
8
BLACK
6
CONTINUOUS
10
208.479
20
-107.424
11
208.479
21
-106.853
0
LINE
8
BLACK
6
CONTINUOUS
10
208.479
20
-106.853
11
208.574
21
-106.662
0
LINE
8
BLACK
6
CONTINUOUS
10
208.574
20
-106.662
11
208.669
21
-106.567
0
LINE
8
BLACK
6
CONTINUOUS
10
208.669
20
-106.567
11
208.86
21
-106.472
0
LINE
8
BLACK
6
CONTINUOUS
10
208.86
20
-106.472
11
209.145
21
-106.472
0
LINE
8
BLACK
6
CONTINUOUS
10
209.145
20
-106.472
11
209.336
21
-106.567
0
LINE
8
BLACK
6
CONTINUOUS
10
209.336
20
-106.567
11
209.431
21
-106.662
0
LINE
8
BLACK
6
CONTINUOUS
10
209.431
20
-106.662
11
209.526
21
-106.853
0
LINE
8
BLACK
6
CONTINUOUS
10
209.526
20
-106.853
11
209.526
21
-107.424
0
LINE
8
BLACK
6
CONTINUOUS
10
209.526
20
-107.424
11
209.431
21
-107.615
0
LINE
8
BLACK
6
CONTINUOUS
10
209.431
20
-107.615
11
209.336
21
-107.71
0
LINE
8
BLACK
6
CONTINUOUS
10
209.336
20
-107.71
11
209.145
21
-107.805
0
LINE
8
BLACK
6
CONTINUOUS
10
209.145
20
-107.805
11
208.86
21
-107.805
0
LINE
8
BLACK
6
CONTINUOUS
10
210.669
20
-107.805
11
210.479
21
-107.71
0
LINE
8
BLACK
6
CONTINUOUS
10
210.479
20
-107.71
11
210.383
21
-107.52
0
LINE
8
BLACK
6
CONTINUOUS
10
210.383
20
-107.52
11
210.383
21
-105.805
0
LINE
8
BLACK
6
CONTINUOUS
10
212.193
20
-107.71
11
212.002
21
-107.805
0
LINE
8
BLACK
6
CONTINUOUS
10
212.002
20
-107.805
11
211.621
21
-107.805
0
LINE
8
BLACK
6
CONTINUOUS
10
211.621
20
-107.805
11
211.431
21
-107.71
0
LINE
8
BLACK
6
CONTINUOUS
10
211.431
20
-107.71
11
211.336
21
-107.52
0
LINE
8
BLACK
6
CONTINUOUS
10
211.336
20
-107.52
11
211.336
21
-106.758
0
LINE
8
BLACK
6
CONTINUOUS
10
211.336
20
-106.758
11
211.431
21
-106.567
0
LINE
8
BLACK
6
CONTINUOUS
10
211.431
20
-106.567
11
211.621
21
-106.472
0
LINE
8
BLACK
6
CONTINUOUS
10
211.621
20
-106.472
11
212.002
21
-106.472
0
LINE
8
BLACK
6
CONTINUOUS
10
212.002
20
-106.472
11
212.193
21
-106.567
0
LINE
8
BLACK
6
CONTINUOUS
10
212.193
20
-106.567
11
212.288
21
-106.758
0
LINE
8
BLACK
6
CONTINUOUS
10
212.288
20
-106.758
11
212.288
21
-106.948
0
LINE
8
BLACK
6
CONTINUOUS
10
212.288
20
-106.948
11
211.336
21
-107.139
0
LINE
8
BLACK
6
CONTINUOUS
10
213.05
20
-107.71
11
213.24
21
-107.805
0
LINE
8
BLACK
6
CONTINUOUS
10
213.24
20
-107.805
11
213.621
21
-107.805
0
LINE
8
BLACK
6
CONTINUOUS
10
213.621
20
-107.805
11
213.812
21
-107.71
0
LINE
8
BLACK
6
CONTINUOUS
10
213.812
20
-107.71
11
213.907
21
-107.52
0
LINE
8
BLACK
6
CONTINUOUS
10
213.907
20
-107.52
11
213.907
21
-107.424
0
LINE
8
BLACK
6
CONTINUOUS
10
213.907
20
-107.424
11
213.812
21
-107.234
0
LINE
8
BLACK
6
CONTINUOUS
10
213.812
20
-107.234
11
213.621
21
-107.139
0
LINE
8
BLACK
6
CONTINUOUS
10
213.621
20
-107.139
11
213.336
21
-107.139
0
LINE
8
BLACK
6
CONTINUOUS
10
213.336
20
-107.139
11
213.145
21
-107.043
0
LINE
8
BLACK
6
CONTINUOUS
10
213.145
20
-107.043
11
213.05
21
-106.853
0
LINE
8
BLACK
6
CONTINUOUS
10
213.05
20
-106.853
11
213.05
21
-106.758
0
LINE
8
BLACK
6
CONTINUOUS
10
213.05
20
-106.758
11
213.145
21
-106.567
0
LINE
8
BLACK
6
CONTINUOUS
10
213.145
20
-106.567
11
213.336
21
-106.472
0
LINE
8
BLACK
6
CONTINUOUS
10
213.336
20
-106.472
11
213.621
21
-106.472
0
LINE
8
BLACK
6
CONTINUOUS
10
213.621
20
-106.472
11
213.812
21
-106.567
0
LINE
8
BLACK
6
CONTINUOUS
10
214.574
20
-108.567
11
214.669
21
-108.472
0
LINE
8
BLACK
6
CONTINUOUS
10
214.669
20
-108.472
11
214.86
21
-108.186
0
LINE
8
BLACK
6
CONTINUOUS
10
214.86
20
-108.186
11
214.955
21
-107.996
0
LINE
8
BLACK
6
CONTINUOUS
10
214.955
20
-107.996
11
215.05
21
-107.71
0
LINE
8
BLACK
6
CONTINUOUS
10
215.05
20
-107.71
11
215.145
21
-107.234
0
LINE
8
BLACK
6
CONTINUOUS
10
215.145
20
-107.234
11
215.145
21
-106.853
0
LINE
8
BLACK
6
CONTINUOUS
10
215.145
20
-106.853
11
215.05
21
-106.377
0
LINE
8
BLACK
6
CONTINUOUS
10
215.05
20
-106.377
11
214.955
21
-106.091
0
LINE
8
BLACK
6
CONTINUOUS
10
214.955
20
-106.091
11
214.86
21
-105.9
0
LINE
8
BLACK
6
CONTINUOUS
10
214.86
20
-105.9
11
214.669
21
-105.615
0
LINE
8
BLACK
6
CONTINUOUS
10
214.669
20
-105.615
11
214.574
21
-105.52
  0
ENDSEC
  0
EOF
